<svg width="32" height="32" viewBox="0 0 32 32" fill="none" xmlns="http://www.w3.org/2000/svg">
<circle cx="16" cy="16" r="16" fill="#0A718D"/>
<path d="M19.2564 15.1475C19.1959 15.0868 19.1294 15.036 19.0601 14.9915L14.4089 10.3403C13.955 9.88678 13.2191 9.88635 12.7649 10.3403C12.3114 10.7942 12.311 11.5299 12.7649 11.9843L16.7706 15.9896L12.7447 20.0161C12.2909 20.4701 12.2907 21.2058 12.7447 21.6599C12.972 21.8866 13.2692 22.0004 13.5665 22C13.8639 22.0004 14.1614 21.8866 14.3878 21.6595L19.0599 16.9881C19.1294 16.9435 19.1957 16.8923 19.2564 16.8312C19.4884 16.5991 19.6002 16.2939 19.5948 15.9896C19.6004 15.6856 19.4884 15.3796 19.2564 15.1475Z" fill="#52AE32"/>
</svg>
