<svg width="50" height="50" viewBox="0 0 50 50" fill="none" xmlns="http://www.w3.org/2000/svg">
<path d="M25.0008 5.98975C23.4118 5.98975 22.1191 7.28242 22.1191 8.87139C22.1191 10.4604 23.4118 11.753 25.0008 11.753C26.5897 11.753 27.8824 10.4604 27.8824 8.87139C27.8824 7.28242 26.5896 5.98975 25.0008 5.98975ZM25.0008 10.1813C24.2785 10.1813 23.6909 9.59375 23.6909 8.87139C23.6909 8.14903 24.2785 7.56152 25.0008 7.56152C25.723 7.56152 26.3106 8.14903 26.3106 8.87139C26.3106 9.59375 25.7229 10.1813 25.0008 10.1813Z" fill="white"/>
<path d="M43.0746 22.2317V19.0882H46.7421V15.6826C46.7421 14.6716 45.9194 13.8488 44.9083 13.8488H42.0437L24.999 0L7.9543 13.8489H5.08975C4.07871 13.8489 3.25596 14.6716 3.25596 15.6827V19.0883H6.92344V22.2318H8.49521V38.4736H6.92344V41.6172H5.87559V44.7607H5.08965C4.07861 44.7607 3.25586 45.5834 3.25586 46.5945V50H46.742V46.5944C46.742 45.5834 45.9193 44.7606 44.9082 44.7606H44.1223V41.6171H43.0744V38.4735H41.5026V22.2317H43.0746ZM24.999 2.0252L39.5513 13.8488H10.4468L24.999 2.0252ZM4.82773 17.5164V15.6826C4.82773 15.5406 4.94775 15.4206 5.08965 15.4206H44.9082C45.0502 15.4206 45.1702 15.5406 45.1702 15.6826V17.5164H4.82773ZM37.8353 36.1159V22.2317H39.931V38.4735H34.1678V22.2317H36.2635V36.1158H37.8353V36.1159ZM41.5028 40.0453V41.6171H32.596V40.0453H41.5028ZM20.5456 31.1386V41.6172H18.9738V38.4736H17.402V26.4232H32.596V38.4736H31.0242V41.6172H29.4524V31.1386H20.5456ZM22.1174 34.8061V32.7104H27.8806V34.8061H22.1174ZM27.8807 36.3778V41.6171H22.1175V36.3778H27.8807ZM13.7346 36.1159V22.2317H15.8303V38.4735H10.0671V22.2317H12.1628V36.1158H13.7346V36.1159ZM8.49531 20.66V19.0882H17.4021V20.66H8.49531ZM32.596 24.8515H17.402V22.2318H18.9738V19.0883H31.0242V22.2318H32.596V24.8515ZM8.49531 40.0453H17.4021V41.6171H8.49531V40.0453ZM44.9083 46.3325C45.0503 46.3325 45.1703 46.4525 45.1703 46.5944V48.4282H4.82773V46.5944C4.82773 46.4524 4.94775 46.3325 5.08965 46.3325H44.9083ZM42.5507 43.189V44.7607H7.44736V43.189H42.5507ZM32.596 20.66V19.0882H41.5028V20.66H32.596Z" fill="white"/>
<path d="M26.5713 21.1836H23.4277V22.7554H26.5713V21.1836Z" fill="white"/>
</svg>
