<svg width="1086" height="783" viewBox="0 0 1086 783" fill="none" xmlns="http://www.w3.org/2000/svg">
<g opacity="0.05">
<circle cx="937" cy="5" r="5" fill="#0F001A"/>
<circle cx="937" cy="33.6875" r="5" fill="#0F001A"/>
<circle cx="937" cy="62.375" r="5" fill="#0F001A"/>
<circle cx="937" cy="91.0625" r="5" fill="#0F001A"/>
<circle cx="937" cy="119.75" r="5" fill="#0F001A"/>
<circle cx="937" cy="148.438" r="5" fill="#0F001A"/>
<circle cx="965.688" cy="5" r="5" fill="#0F001A"/>
<circle cx="965.688" cy="33.6875" r="5" fill="#0F001A"/>
<circle cx="965.688" cy="62.375" r="5" fill="#0F001A"/>
<circle cx="965.688" cy="91.0625" r="5" fill="#0F001A"/>
<circle cx="965.688" cy="119.75" r="5" fill="#0F001A"/>
<circle cx="965.688" cy="148.438" r="5" fill="#0F001A"/>
<circle cx="994.375" cy="5" r="5" fill="#0F001A"/>
<circle cx="994.375" cy="33.6875" r="5" fill="#0F001A"/>
<circle cx="994.375" cy="62.375" r="5" fill="#0F001A"/>
<circle cx="994.375" cy="91.0625" r="5" fill="#0F001A"/>
<circle cx="994.375" cy="119.75" r="5" fill="#0F001A"/>
<circle cx="994.375" cy="148.438" r="5" fill="#0F001A"/>
<circle cx="1023.06" cy="5" r="5" fill="#0F001A"/>
<circle cx="1051.75" cy="5" r="5" fill="#0F001A"/>
<circle cx="1080.44" cy="5" r="5" fill="#0F001A"/>
<circle cx="1023.06" cy="33.6875" r="5" fill="#0F001A"/>
<circle cx="1051.75" cy="33.6875" r="5" fill="#0F001A"/>
<circle cx="1080.44" cy="33.6875" r="5" fill="#0F001A"/>
<circle cx="1023.06" cy="62.375" r="5" fill="#0F001A"/>
<circle cx="1051.75" cy="62.375" r="5" fill="#0F001A"/>
<circle cx="1080.44" cy="62.375" r="5" fill="#0F001A"/>
<circle cx="1023.06" cy="91.0625" r="5" fill="#0F001A"/>
<circle cx="1023.06" cy="119.75" r="5" fill="#0F001A"/>
<circle cx="1023.06" cy="148.438" r="5" fill="#0F001A"/>
<circle cx="1051.75" cy="91.0625" r="5" fill="#0F001A"/>
<circle cx="1051.75" cy="119.75" r="5" fill="#0F001A"/>
<circle cx="1051.75" cy="148.438" r="5" fill="#0F001A"/>
<circle cx="1080.44" cy="91.0625" r="5" fill="#0F001A"/>
<circle cx="1080.44" cy="119.75" r="5" fill="#0F001A"/>
<circle cx="1080.44" cy="148.438" r="5" fill="#0F001A"/>
</g>
<g opacity="0.05">
<circle cx="5" cy="634" r="5" fill="#0F001A"/>
<circle cx="5" cy="662.688" r="5" fill="#0F001A"/>
<circle cx="5" cy="691.375" r="5" fill="#0F001A"/>
<circle cx="5" cy="720.062" r="5" fill="#0F001A"/>
<circle cx="5" cy="748.75" r="5" fill="#0F001A"/>
<circle cx="5" cy="777.438" r="5" fill="#0F001A"/>
<circle cx="33.6875" cy="634" r="5" fill="#0F001A"/>
<circle cx="33.6875" cy="662.688" r="5" fill="#0F001A"/>
<circle cx="33.6875" cy="691.375" r="5" fill="#0F001A"/>
<circle cx="33.6875" cy="720.062" r="5" fill="#0F001A"/>
<circle cx="33.6875" cy="748.75" r="5" fill="#0F001A"/>
<circle cx="33.6875" cy="777.438" r="5" fill="#0F001A"/>
<circle cx="62.375" cy="634" r="5" fill="#0F001A"/>
<circle cx="62.375" cy="662.688" r="5" fill="#0F001A"/>
<circle cx="62.375" cy="691.375" r="5" fill="#0F001A"/>
<circle cx="62.375" cy="720.062" r="5" fill="#0F001A"/>
<circle cx="62.375" cy="748.75" r="5" fill="#0F001A"/>
<circle cx="62.375" cy="777.438" r="5" fill="#0F001A"/>
<circle cx="91.0625" cy="634" r="5" fill="#0F001A"/>
<circle cx="119.75" cy="634" r="5" fill="#0F001A"/>
<circle cx="148.438" cy="634" r="5" fill="#0F001A"/>
<circle cx="91.0625" cy="662.688" r="5" fill="#0F001A"/>
<circle cx="119.75" cy="662.688" r="5" fill="#0F001A"/>
<circle cx="148.438" cy="662.688" r="5" fill="#0F001A"/>
<circle cx="91.0625" cy="691.375" r="5" fill="#0F001A"/>
<circle cx="119.75" cy="691.375" r="5" fill="#0F001A"/>
<circle cx="148.438" cy="691.375" r="5" fill="#0F001A"/>
<circle cx="91.0625" cy="720.062" r="5" fill="#0F001A"/>
<circle cx="91.0625" cy="748.75" r="5" fill="#0F001A"/>
<circle cx="91.0625" cy="777.438" r="5" fill="#0F001A"/>
<circle cx="119.75" cy="720.062" r="5" fill="#0F001A"/>
<circle cx="119.75" cy="748.75" r="5" fill="#0F001A"/>
<circle cx="119.75" cy="777.438" r="5" fill="#0F001A"/>
<circle cx="148.438" cy="720.062" r="5" fill="#0F001A"/>
<circle cx="148.438" cy="748.75" r="5" fill="#0F001A"/>
<circle cx="148.438" cy="777.438" r="5" fill="#0F001A"/>
</g>
<g filter="url(#filter0_d_3_31967)">
<rect x="71" y="68" width="950" height="638" rx="10" fill="white"/>
</g>
<defs>
<filter id="filter0_d_3_31967" x="45" y="50" width="1006" height="694" filterUnits="userSpaceOnUse" color-interpolation-filters="sRGB">
<feFlood flood-opacity="0" result="BackgroundImageFix"/>
<feColorMatrix in="SourceAlpha" type="matrix" values="0 0 0 0 0 0 0 0 0 0 0 0 0 0 0 0 0 0 127 0" result="hardAlpha"/>
<feOffset dx="2" dy="10"/>
<feGaussianBlur stdDeviation="14"/>
<feColorMatrix type="matrix" values="0 0 0 0 0.294118 0 0 0 0 0 0 0 0 0 0.505882 0 0 0 0.12 0"/>
<feBlend mode="normal" in2="BackgroundImageFix" result="effect1_dropShadow_3_31967"/>
<feBlend mode="normal" in="SourceGraphic" in2="effect1_dropShadow_3_31967" result="shape"/>
</filter>
</defs>
</svg>
