<svg width="1920" height="551" viewBox="0 0 1920 551" fill="none" xmlns="http://www.w3.org/2000/svg">
<rect y="102" width="1920" height="449" fill="#004457"/>
<circle cx="1624.5" cy="224.5" r="8.5" fill="white" fill-opacity="0.12"/>
<circle cx="1624.5" cy="197.5" r="8.5" fill="white" fill-opacity="0.12"/>
<circle cx="1624.5" cy="170.5" r="8.5" fill="white" fill-opacity="0.12"/>
<circle cx="1624.5" cy="143.5" r="8.5" fill="white" fill-opacity="0.12"/>
<circle cx="1624.5" cy="116.5" r="8.5" fill="white" fill-opacity="0.12"/>
<circle cx="1624.5" cy="89.5" r="8.5" fill="white" fill-opacity="0.12"/>
<circle cx="1624.5" cy="62.5" r="8.5" fill="white" fill-opacity="0.12"/>
<circle cx="1624.5" cy="35.5" r="8.5" fill="white" fill-opacity="0.12"/>
<circle cx="1624.5" cy="8.5" r="8.5" fill="white" fill-opacity="0.12"/>
<circle cx="1651.5" cy="224.5" r="8.5" fill="white" fill-opacity="0.12"/>
<circle cx="1651.5" cy="197.5" r="8.5" fill="white" fill-opacity="0.12"/>
<circle cx="1651.5" cy="170.5" r="8.5" fill="white" fill-opacity="0.12"/>
<circle cx="1651.5" cy="143.5" r="8.5" fill="white" fill-opacity="0.12"/>
<circle cx="1651.5" cy="116.5" r="8.5" fill="white" fill-opacity="0.12"/>
<circle cx="1651.5" cy="89.5" r="8.5" fill="white" fill-opacity="0.12"/>
<circle cx="1651.5" cy="62.5" r="8.5" fill="white" fill-opacity="0.12"/>
<circle cx="1651.5" cy="35.5" r="8.5" fill="white" fill-opacity="0.12"/>
<circle cx="1651.5" cy="8.5" r="8.5" fill="white" fill-opacity="0.12"/>
<circle cx="1678.5" cy="224.5" r="8.5" fill="white" fill-opacity="0.12"/>
<circle cx="1678.5" cy="197.5" r="8.5" fill="white" fill-opacity="0.12"/>
<circle cx="1678.5" cy="170.5" r="8.5" fill="white" fill-opacity="0.12"/>
<circle cx="1678.5" cy="143.5" r="8.5" fill="white" fill-opacity="0.12"/>
<circle cx="1678.5" cy="116.5" r="8.5" fill="white" fill-opacity="0.12"/>
<circle cx="1678.5" cy="89.5" r="8.5" fill="white" fill-opacity="0.12"/>
<circle cx="1678.5" cy="62.5" r="8.5" fill="white" fill-opacity="0.12"/>
<circle cx="1678.5" cy="35.5" r="8.5" fill="white" fill-opacity="0.12"/>
<circle cx="1678.5" cy="8.5" r="8.5" fill="white" fill-opacity="0.12"/>
<path fill-rule="evenodd" clip-rule="evenodd" d="M271 121C271 218.202 192.202 297 95 297C60.0094 297 27.4036 286.789 0 269.184V380.215C29.6193 391.073 61.6175 397 95 397C247.431 397 371 273.431 371 121C371 114.614 370.783 108.278 370.356 102L269.986 102C270.656 108.241 271 114.581 271 121Z" fill="black" fill-opacity="0.1"/>
</svg>
