<svg width="248" height="248" viewBox="0 0 248 248" fill="none" xmlns="http://www.w3.org/2000/svg">
<rect width="247.426" height="247.426" fill="#C4C4C4"/>
<g clip-path="url(#clip0_78177_16569)">
<path d="M75.6836 162.728H172.713V85.6682H75.6836V162.728ZM81.748 91.7325H166.649V156.664H81.748V91.7325Z" fill="#343750"/>
<path d="M117.986 128.435L110.835 120.171L88.6855 145.769H109.617H132.986H159.711L131.348 112.994L117.986 128.435ZM109.617 139.705H101.951L110.832 129.438L119.72 139.705H109.617ZM127.738 139.705L121.995 133.068L131.348 122.261L146.445 139.705H127.738V139.705Z" fill="#343750"/>
<path d="M117.561 116.918C121.861 116.918 125.357 113.428 125.357 109.143C125.357 104.853 121.861 101.366 117.561 101.366C113.262 101.366 109.766 104.853 109.766 109.143C109.766 113.431 113.262 116.918 117.561 116.918ZM117.561 107.427C118.516 107.427 119.293 108.197 119.293 109.14C119.293 110.083 118.516 110.851 117.561 110.851C116.606 110.851 115.83 110.083 115.83 109.14C115.83 108.197 116.606 107.427 117.561 107.427Z" fill="#343750"/>
</g>
<defs>
<clipPath id="clip0_78177_16569">
<rect width="97.0297" height="97.0297" fill="white" transform="translate(75.6836 75.6832)"/>
</clipPath>
</defs>
</svg>
