<svg width="28" height="28" viewBox="0 0 28 28" fill="none" xmlns="http://www.w3.org/2000/svg">
<path d="M13.9999 27C17.4477 27 20.7544 25.6304 23.1923 23.1924C25.6303 20.7544 27 17.4478 27 14C27 12.2928 26.6637 10.6023 26.0104 9.02511C25.3571 7.44787 24.3995 6.01478 23.1923 4.80762C21.9852 3.60046 20.552 2.64287 18.9748 1.98956C17.3976 1.33625 15.7071 1 13.9999 1V1C12.2927 1 10.6023 1.33625 9.02502 1.98956C7.44779 2.64287 6.01483 3.60046 4.80766 4.80762C3.6005 6.01478 2.64291 7.44787 1.9896 9.02511C1.33629 10.6023 1 12.2928 1 14C1 17.4478 2.36969 20.7544 4.80766 23.1924C7.24564 25.6304 10.5521 27 13.9999 27V27Z" stroke="#5258A3" stroke-width="1.417" stroke-miterlimit="10"/>
<path d="M20.6604 18.2369H7.33984V9.76172H20.6604V18.2369ZM8.94605 16.635H19.064V11.3636H8.94605V16.635Z" fill="#5258A3"/>
<path d="M13.9993 14.9273L7.73438 11.2578L8.54308 9.87891L13.9993 13.077L19.4528 9.87891L20.2615 11.2578L13.9993 14.9273Z" fill="#5258A3"/>
</svg>
