<svg width="1920" height="90" viewBox="0 0 1920 90" fill="none" xmlns="http://www.w3.org/2000/svg">
<rect width="1920" height="90" fill="#004457"/>
<line y1="89.5" x2="1920" y2="89.5" stroke="white" stroke-opacity="0.5"/>
<path d="M463.521 23.305V28.226C462.9 29.1 462.172 29.7587 461.336 30.202C460.513 30.6453 459.658 30.905 458.771 30.981C457.884 31.0443 457.01 30.943 456.149 30.677C455.3 30.3983 454.534 29.974 453.85 29.404C453.179 28.834 452.634 28.1247 452.216 27.276C451.798 26.4273 451.589 25.471 451.589 24.407C451.589 23.343 451.798 22.3867 452.216 21.538C452.634 20.6893 453.179 19.98 453.85 19.41C454.534 18.84 455.3 18.4157 456.149 18.137C457.01 17.8583 457.884 17.757 458.771 17.833C459.658 17.8963 460.513 18.156 461.336 18.612C462.172 19.0553 462.9 19.7077 463.521 20.569L461.735 21.861C461.33 21.3037 460.861 20.8793 460.329 20.588C459.797 20.284 459.246 20.1003 458.676 20.037C458.106 19.9737 457.536 20.0243 456.966 20.189C456.409 20.341 455.902 20.5943 455.446 20.949C455.003 21.291 454.629 21.728 454.325 22.26C454.021 22.792 453.844 23.4 453.793 24.084C453.742 24.768 453.825 25.395 454.04 25.965C454.268 26.5223 454.578 27.01 454.971 27.428C455.376 27.8333 455.845 28.1563 456.377 28.397C456.909 28.6377 457.46 28.7707 458.03 28.796C458.613 28.8213 459.189 28.7263 459.759 28.511C460.342 28.2957 460.867 27.941 461.336 27.447V25.49H457.327V23.305H463.521ZM472.191 28.796V31H465.579V17.833H467.764V28.796H472.191ZM479.187 17.852C480.099 17.852 480.954 18.023 481.752 18.365C482.55 18.707 483.247 19.1757 483.842 19.771C484.438 20.3663 484.906 21.063 485.248 21.861C485.59 22.659 485.761 23.514 485.761 24.426C485.761 25.338 485.59 26.193 485.248 26.991C484.906 27.789 484.438 28.4857 483.842 29.081C483.247 29.6763 482.55 30.145 481.752 30.487C480.954 30.829 480.099 31 479.187 31C478.275 31 477.42 30.829 476.622 30.487C475.824 30.145 475.121 29.6763 474.513 29.081C473.918 28.4857 473.449 27.789 473.107 26.991C472.765 26.193 472.594 25.338 472.594 24.426C472.594 23.514 472.765 22.659 473.107 21.861C473.449 21.063 473.918 20.3663 474.513 19.771C475.121 19.1757 475.824 18.707 476.622 18.365C477.42 18.023 478.275 17.852 479.187 17.852ZM483.557 24.426C483.557 23.818 483.443 23.248 483.215 22.716C482.987 22.184 482.671 21.7217 482.265 21.329C481.873 20.9237 481.41 20.607 480.878 20.379C480.359 20.151 479.795 20.037 479.187 20.037C478.579 20.037 478.009 20.151 477.477 20.379C476.945 20.607 476.477 20.9237 476.071 21.329C475.679 21.7217 475.368 22.184 475.14 22.716C474.912 23.248 474.798 23.818 474.798 24.426C474.798 25.034 474.912 25.604 475.14 26.136C475.368 26.668 475.679 27.1367 476.071 27.542C476.477 27.9347 476.945 28.245 477.477 28.473C478.009 28.701 478.579 28.815 479.187 28.815C479.795 28.815 480.359 28.701 480.878 28.473C481.41 28.245 481.873 27.9347 482.265 27.542C482.671 27.1367 482.987 26.668 483.215 26.136C483.443 25.604 483.557 25.034 483.557 24.426ZM493.236 28.815C493.692 28.815 494.078 28.6567 494.395 28.34C494.711 28.0107 494.87 27.618 494.87 27.162C494.87 26.6933 494.787 26.3513 494.623 26.136C494.471 25.908 494.16 25.7433 493.692 25.642C494.502 25.3887 495.18 24.9263 495.725 24.255C496.244 24.6603 496.599 25.0847 496.789 25.528C496.979 25.9587 497.074 26.5033 497.074 27.162C497.074 27.694 496.972 28.1943 496.77 28.663C496.567 29.1317 496.288 29.537 495.934 29.879C495.592 30.221 495.186 30.4933 494.718 30.696C494.262 30.8987 493.768 31 493.236 31H487.27V23.324H492.419C492.875 23.324 493.261 23.1657 493.578 22.849C493.907 22.5323 494.072 22.146 494.072 21.69C494.072 21.234 493.907 20.8477 493.578 20.531C493.261 20.2017 492.875 20.037 492.419 20.037H489.455V22.982H487.27V17.852H492.419C492.951 17.852 493.451 17.9533 493.92 18.156C494.388 18.3587 494.794 18.631 495.136 18.973C495.478 19.315 495.75 19.7203 495.953 20.189C496.155 20.6577 496.257 21.158 496.257 21.69C496.257 22.4753 496.048 23.1847 495.63 23.818C495.212 24.4387 494.661 24.901 493.977 25.205C493.483 25.4203 492.963 25.528 492.419 25.528H489.455V28.815H493.236ZM503.678 17.833L510.081 31H507.649L506.737 29.157H500.6L499.707 31H497.275L503.678 17.833ZM505.673 26.953L503.678 22.849L501.683 26.953H505.673ZM517.428 28.796V31H510.816V17.833H513.001V28.796H517.428ZM458.999 45.44L462.21 50H459.531L454.876 43.407H457.821C458.125 43.407 458.41 43.35 458.676 43.236C458.942 43.122 459.17 42.97 459.36 42.78C459.563 42.5773 459.721 42.343 459.835 42.077C459.949 41.811 460.006 41.526 460.006 41.222C460.006 40.918 459.949 40.633 459.835 40.367C459.721 40.101 459.563 39.873 459.36 39.683C459.17 39.4803 458.942 39.322 458.676 39.208C458.41 39.094 458.125 39.037 457.821 39.037H454.534V43.407V45.611V50H452.349V36.833H457.821C458.429 36.833 458.999 36.947 459.531 37.175C460.063 37.403 460.525 37.7197 460.918 38.125C461.323 38.5177 461.64 38.98 461.868 39.512C462.096 40.044 462.21 40.614 462.21 41.222C462.21 41.716 462.128 42.191 461.963 42.647C461.811 43.103 461.596 43.5147 461.317 43.882C461.038 44.2493 460.696 44.5723 460.291 44.851C459.898 45.117 459.468 45.3133 458.999 45.44ZM472.516 47.815V50H463.909V42.324H466.113H471.414V44.528H466.113V47.815H472.516ZM472.516 36.852V39.037H466.113V42.001H463.909V36.852H472.516ZM484.86 39.607L483.074 40.88C482.656 40.2973 482.169 39.8603 481.611 39.569C481.067 39.265 480.497 39.094 479.901 39.056C479.319 39.0053 478.736 39.075 478.153 39.265C477.583 39.4423 477.07 39.721 476.614 40.101C476.171 40.481 475.81 40.956 475.531 41.526C475.253 42.0833 475.113 42.7167 475.113 43.426C475.113 44.1353 475.253 44.775 475.531 45.345C475.81 45.9023 476.171 46.3773 476.614 46.77C477.07 47.15 477.583 47.4287 478.153 47.606C478.736 47.7833 479.319 47.853 479.901 47.815C480.497 47.7643 481.067 47.5933 481.611 47.302C482.169 46.998 482.656 46.5547 483.074 45.972L484.86 47.245C484.24 48.119 483.511 48.7777 482.675 49.221C481.852 49.6643 480.997 49.924 480.11 50C479.224 50.0633 478.35 49.962 477.488 49.696C476.64 49.4173 475.873 48.993 475.189 48.423C474.518 47.853 473.973 47.1437 473.555 46.295C473.137 45.4463 472.928 44.49 472.928 43.426C472.928 42.362 473.137 41.4057 473.555 40.557C473.973 39.7083 474.518 38.999 475.189 38.429C475.873 37.859 476.64 37.441 477.488 37.175C478.35 36.8963 479.224 36.795 480.11 36.871C480.997 36.9343 481.852 37.194 482.675 37.65C483.511 38.0933 484.24 38.7457 484.86 39.607ZM495.96 36.833L491.571 43.426V46.713L484.997 36.833H487.638L490.488 41.108L493.319 36.833H495.96ZM491.571 47.302V50H490.488H489.386V43.996L491.571 47.302ZM507.404 39.607L505.618 40.88C505.2 40.2973 504.713 39.8603 504.155 39.569C503.611 39.265 503.041 39.094 502.445 39.056C501.863 39.0053 501.28 39.075 500.697 39.265C500.127 39.4423 499.614 39.721 499.158 40.101C498.715 40.481 498.354 40.956 498.075 41.526C497.797 42.0833 497.657 42.7167 497.657 43.426C497.657 44.1353 497.797 44.775 498.075 45.345C498.354 45.9023 498.715 46.3773 499.158 46.77C499.614 47.15 500.127 47.4287 500.697 47.606C501.28 47.7833 501.863 47.853 502.445 47.815C503.041 47.7643 503.611 47.5933 504.155 47.302C504.713 46.998 505.2 46.5547 505.618 45.972L507.404 47.245C506.784 48.119 506.055 48.7777 505.219 49.221C504.396 49.6643 503.541 49.924 502.654 50C501.768 50.0633 500.894 49.962 500.032 49.696C499.184 49.4173 498.417 48.993 497.733 48.423C497.062 47.853 496.517 47.1437 496.099 46.295C495.681 45.4463 495.472 44.49 495.472 43.426C495.472 42.362 495.681 41.4057 496.099 40.557C496.517 39.7083 497.062 38.999 497.733 38.429C498.417 37.859 499.184 37.441 500.032 37.175C500.894 36.8963 501.768 36.795 502.654 36.871C503.541 36.9343 504.396 37.194 505.219 37.65C506.055 38.0933 506.784 38.7457 507.404 39.607ZM515.387 47.796V50H508.775V36.833H510.96V47.796H515.387ZM519.087 36.852V50H516.902V36.852H519.087ZM531.638 36.852V50L521.188 39.892V36.852L529.434 44.832V39.037H528.104L526.66 36.852H531.638ZM523.392 42.476V50H521.188V40.348L523.392 42.476ZM545.052 42.305V47.226C544.431 48.1 543.703 48.7587 542.867 49.202C542.043 49.6453 541.188 49.905 540.302 49.981C539.415 50.0443 538.541 49.943 537.68 49.677C536.831 49.3983 536.065 48.974 535.381 48.404C534.709 47.834 534.165 47.1247 533.747 46.276C533.329 45.4273 533.12 44.471 533.12 43.407C533.12 42.343 533.329 41.3867 533.747 40.538C534.165 39.6893 534.709 38.98 535.381 38.41C536.065 37.84 536.831 37.4157 537.68 37.137C538.541 36.8583 539.415 36.757 540.302 36.833C541.188 36.8963 542.043 37.156 542.867 37.612C543.703 38.0553 544.431 38.7077 545.052 39.569L543.266 40.861C542.86 40.3037 542.392 39.8793 541.86 39.588C541.328 39.284 540.777 39.1003 540.207 39.037C539.637 38.9737 539.067 39.0243 538.497 39.189C537.939 39.341 537.433 39.5943 536.977 39.949C536.533 40.291 536.16 40.728 535.856 41.26C535.552 41.792 535.374 42.4 535.324 43.084C535.273 43.768 535.355 44.395 535.571 44.965C535.799 45.5223 536.109 46.01 536.502 46.428C536.907 46.8333 537.376 47.1563 537.908 47.397C538.44 47.6377 538.991 47.7707 539.561 47.796C540.143 47.8213 540.72 47.7263 541.29 47.511C541.872 47.2957 542.398 46.941 542.867 46.447V44.49H538.858V42.305H545.052ZM465.516 55.833V69H463.331V62.901L458.942 69.304L454.553 62.901V69H452.349V55.833L458.942 65.428L465.516 55.833ZM472.803 55.833L479.206 69H476.774L475.862 67.157H469.725L468.832 69H466.4L472.803 55.833ZM474.798 64.953L472.803 60.849L470.808 64.953H474.798ZM486.591 64.44L489.802 69H487.123L482.468 62.407H485.413C485.717 62.407 486.002 62.35 486.268 62.236C486.534 62.122 486.762 61.97 486.952 61.78C487.154 61.5773 487.313 61.343 487.427 61.077C487.541 60.811 487.598 60.526 487.598 60.222C487.598 59.918 487.541 59.633 487.427 59.367C487.313 59.101 487.154 58.873 486.952 58.683C486.762 58.4803 486.534 58.322 486.268 58.208C486.002 58.094 485.717 58.037 485.413 58.037H482.126V62.407V64.611V69H479.941V55.833H485.413C486.021 55.833 486.591 55.947 487.123 56.175C487.655 56.403 488.117 56.7197 488.51 57.125C488.915 57.5177 489.232 57.98 489.46 58.512C489.688 59.044 489.802 59.614 489.802 60.222C489.802 60.716 489.719 61.191 489.555 61.647C489.403 62.103 489.187 62.5147 488.909 62.882C488.63 63.2493 488.288 63.5723 487.883 63.851C487.49 64.117 487.059 64.3133 486.591 64.44ZM502.333 55.833L496.823 62.559L502.333 69H499.445L495.417 64.288L493.555 66.549V69H491.37V65.77L499.502 55.833H502.333ZM493.555 55.833V62.54L491.37 65.219V55.833H493.555ZM511.982 66.815V69H503.375V61.324H505.579H510.88V63.528H505.579V66.815H511.982ZM511.982 55.852V58.037H505.579V61.001H503.375V55.852H511.982ZM521.521 55.833V58.037H518.177V69H515.992V58.037H512.629V55.833H521.521Z" fill="white"/>
<g clip-path="url(#clip0_10_17947)">
<path d="M438.676 48.2993C436.442 62.8793 424.304 74.0707 408.543 73.7397C392.49 73.4024 380.145 60.6274 379.297 47.4295C379.698 48.9585 380.331 50.5345 381.063 52.014C382.377 54.6697 384.035 57.0566 385.324 58.3556C394.107 67.2115 403.7 68.8227 411.59 67.1652C415.53 66.3375 419.042 64.6954 421.816 62.7389C424.586 60.7848 426.635 58.5058 427.628 56.3932L427.795 56.0385L427.403 56.0368L413.232 55.9773C413.632 55.7577 414.149 55.4897 414.764 55.1819C415.898 54.6141 417.348 53.9186 418.98 53.1564C422.228 51.6389 426.188 49.8591 429.781 48.2993H438.676Z" fill="#52AE32" stroke="white" stroke-width="0.5"/>
<path d="M396.286 44.7296L396.826 55.9106L396.845 56.2976L396.484 56.1552C393.193 54.8541 390.517 52.0386 388.722 48.48C386.926 44.9199 386.001 40.5989 386.222 36.2541C386.64 28.0563 391.143 19.7602 401.574 16.3377C396.18 16.8606 391.215 19.7963 387.537 24.0889C383.398 28.9179 380.904 35.4466 381.265 42.1342L396.286 44.7296ZM396.286 44.7296C396.381 44.884 396.488 45.0591 396.604 45.2537C396.982 45.8886 397.455 46.7154 397.989 47.6726C399.057 49.5867 400.367 52.0177 401.653 54.4678C402.939 56.9181 404.201 59.3859 405.171 61.374C405.656 62.3682 406.068 63.2407 406.373 63.9304C406.583 64.4032 406.738 64.7804 406.833 65.0493C392.912 64.8693 381.978 55.3303 381.265 42.1343L396.286 44.7296Z" fill="#004457" stroke="white" stroke-width="0.5"/>
<path d="M432.019 31.7869C431.564 31.1737 431.191 30.6326 430.86 30.1387C430.734 29.9507 430.613 29.7686 430.495 29.5916C430.182 29.1187 429.891 28.6814 429.585 28.2609C428.733 27.0915 427.75 26.0404 425.718 24.5697L425.718 24.5696C419.726 20.2343 412.961 19.9424 407.369 21.7564C401.79 23.566 397.334 27.488 395.987 31.6379L395.872 31.9918L396.243 31.9644C396.647 31.9346 397.312 31.8485 398.107 31.7458C398.197 31.7341 398.288 31.7223 398.382 31.7103C399.301 31.5916 400.373 31.4565 401.43 31.3562C402.488 31.2558 403.524 31.1912 404.375 31.212C404.8 31.2224 405.172 31.2541 405.474 31.3113C405.52 31.3201 405.565 31.3293 405.607 31.3391C404.642 31.7778 403.415 32.5065 402.069 33.3709C400.625 34.2981 399.026 35.3929 397.441 36.4781C397.235 36.6197 397.028 36.7611 396.822 36.9019C395.036 38.1241 393.296 39.304 391.836 40.1935C391.106 40.6382 390.45 41.0076 389.897 41.2726C389.476 41.474 389.128 41.608 388.859 41.6734C386.746 21.3316 408.331 10.3535 423.554 20.5034L423.691 20.2969L423.554 20.5035C425.247 21.6323 427.281 23.4644 428.953 25.6356C430.409 27.5261 431.577 29.6557 432.019 31.7869Z" fill="#52AE32" stroke="white" stroke-width="0.5"/>
</g>
<g clip-path="url(#clip1_10_17947)">
<path d="M438.676 48.2993C436.442 62.8793 424.304 74.0707 408.543 73.7397C392.49 73.4024 380.145 60.6274 379.297 47.4295C379.698 48.9585 380.331 50.5345 381.063 52.014C382.377 54.6697 384.035 57.0566 385.324 58.3556C394.107 67.2115 403.7 68.8227 411.59 67.1652C415.53 66.3375 419.042 64.6954 421.816 62.7389C424.586 60.7848 426.635 58.5058 427.628 56.3932L427.795 56.0385L427.403 56.0368L413.232 55.9773C413.632 55.7577 414.149 55.4897 414.764 55.1819C415.898 54.6141 417.348 53.9186 418.98 53.1564C422.228 51.6389 426.188 49.8591 429.781 48.2993H438.676Z" fill="#52AE32" stroke="white" stroke-width="0.5"/>
<path d="M396.286 44.7296L396.826 55.9106L396.845 56.2976L396.484 56.1552C393.193 54.8541 390.517 52.0386 388.722 48.48C386.926 44.9199 386.001 40.5989 386.222 36.2541C386.64 28.0563 391.143 19.7602 401.574 16.3377C396.18 16.8606 391.215 19.7963 387.537 24.0889C383.398 28.9179 380.904 35.4466 381.265 42.1342L396.286 44.7296ZM396.286 44.7296C396.381 44.884 396.488 45.0591 396.604 45.2537C396.982 45.8886 397.455 46.7154 397.989 47.6726C399.057 49.5867 400.367 52.0177 401.653 54.4678C402.939 56.9181 404.201 59.3859 405.171 61.374C405.656 62.3682 406.068 63.2407 406.373 63.9304C406.583 64.4032 406.738 64.7804 406.833 65.0493C392.912 64.8693 381.978 55.3303 381.265 42.1343L396.286 44.7296Z" fill="#004457" stroke="white" stroke-width="0.5"/>
<path d="M432.019 31.7869C431.564 31.1737 431.191 30.6326 430.86 30.1387C430.734 29.9507 430.613 29.7686 430.495 29.5916C430.182 29.1187 429.891 28.6814 429.585 28.2609C428.733 27.0915 427.75 26.0404 425.718 24.5697L425.718 24.5696C419.726 20.2343 412.961 19.9424 407.369 21.7564C401.79 23.566 397.334 27.488 395.987 31.6379L395.872 31.9918L396.243 31.9644C396.647 31.9346 397.312 31.8485 398.107 31.7458C398.197 31.7341 398.288 31.7223 398.382 31.7103C399.301 31.5916 400.373 31.4565 401.43 31.3562C402.488 31.2558 403.524 31.1912 404.375 31.212C404.8 31.2224 405.172 31.2541 405.474 31.3113C405.52 31.3201 405.565 31.3293 405.607 31.3391C404.642 31.7778 403.415 32.5065 402.069 33.3709C400.625 34.2981 399.026 35.3929 397.441 36.4781C397.235 36.6197 397.028 36.7611 396.822 36.9019C395.036 38.1241 393.296 39.304 391.836 40.1935C391.106 40.6382 390.45 41.0076 389.897 41.2726C389.476 41.474 389.128 41.608 388.859 41.6734C386.746 21.3316 408.331 10.3535 423.554 20.5034L423.691 20.2969L423.554 20.5035C425.247 21.6323 427.281 23.4644 428.953 25.6356C430.409 27.5261 431.577 29.6557 432.019 31.7869Z" fill="#52AE32" stroke="white" stroke-width="0.5"/>
</g>
<line y1="89.5" x2="1920" y2="89.5" stroke="white" stroke-opacity="0.25"/>
<circle cx="1381.5" cy="45.5" r="21.5" fill="#52AE32"/>
<path d="M1380.18 51H1378.2L1373.13 42.9297V51H1371.16V39.625H1373.13L1378.22 47.7266V39.625H1380.18V51ZM1387.5 46.6172H1385.29V51H1383.32V39.625H1387.32C1388.63 39.625 1389.64 39.9193 1390.35 40.5078C1391.07 41.0964 1391.43 41.9479 1391.43 43.0625C1391.43 43.8229 1391.24 44.4609 1390.87 44.9766C1390.51 45.487 1390 45.8802 1389.34 46.1562L1391.89 50.8984V51H1389.78L1387.5 46.6172ZM1385.29 45.0312H1387.32C1387.99 45.0312 1388.51 44.8646 1388.89 44.5312C1389.26 44.1927 1389.45 43.7318 1389.45 43.1484C1389.45 42.5391 1389.27 42.0677 1388.93 41.7344C1388.58 41.401 1388.07 41.2292 1387.38 41.2188H1385.29V45.0312Z" fill="white"/>
<path d="M1421.91 43H1420.18L1415.74 35.9385V43H1414.01V33.0469H1415.74L1420.19 40.1357V33.0469H1421.91V43ZM1428.21 43C1428.14 42.8587 1428.07 42.6286 1428.02 42.3096C1427.49 42.861 1426.84 43.1367 1426.08 43.1367C1425.33 43.1367 1424.73 42.9248 1424.26 42.501C1423.79 42.0771 1423.55 41.5531 1423.55 40.9287C1423.55 40.1403 1423.85 39.5365 1424.43 39.1172C1425.02 38.6934 1425.86 38.4814 1426.95 38.4814H1427.96V37.9961C1427.96 37.6133 1427.86 37.3079 1427.64 37.0801C1427.43 36.8477 1427.1 36.7314 1426.67 36.7314C1426.29 36.7314 1425.98 36.8271 1425.74 37.0186C1425.49 37.2054 1425.37 37.4447 1425.37 37.7363H1423.71C1423.71 37.3307 1423.85 36.9525 1424.12 36.6016C1424.38 36.2461 1424.75 35.9681 1425.21 35.7676C1425.67 35.5671 1426.19 35.4668 1426.76 35.4668C1427.63 35.4668 1428.32 35.6855 1428.83 36.123C1429.35 36.556 1429.61 37.1667 1429.62 37.9551V41.291C1429.62 41.9564 1429.72 42.4873 1429.91 42.8838V43H1428.21ZM1426.38 41.8037C1426.71 41.8037 1427.02 41.724 1427.31 41.5645C1427.6 41.4049 1427.82 41.1908 1427.96 40.9219V39.5273H1427.07C1426.45 39.5273 1425.99 39.6344 1425.68 39.8486C1425.37 40.0628 1425.22 40.3659 1425.22 40.7578C1425.22 41.0768 1425.32 41.332 1425.53 41.5234C1425.74 41.7103 1426.03 41.8037 1426.38 41.8037ZM1437.86 39.377C1437.86 40.5254 1437.6 41.4391 1437.08 42.1182C1436.57 42.7972 1435.87 43.1367 1434.97 43.1367C1434.1 43.1367 1433.43 42.8245 1432.95 42.2002L1432.87 43H1431.36V32.5H1433.02V36.3145C1433.5 35.7493 1434.15 35.4668 1434.96 35.4668C1435.86 35.4668 1436.57 35.8018 1437.08 36.4717C1437.6 37.1416 1437.86 38.0781 1437.86 39.2812V39.377ZM1436.19 39.2334C1436.19 38.4313 1436.05 37.8298 1435.77 37.4287C1435.49 37.0277 1435.08 36.8271 1434.54 36.8271C1433.82 36.8271 1433.31 37.1416 1433.02 37.7705V40.8193C1433.32 41.4619 1433.83 41.7832 1434.55 41.7832C1435.07 41.7832 1435.47 41.5895 1435.76 41.2021C1436.04 40.8148 1436.19 40.2292 1436.19 39.4453V39.2334ZM1442.51 43.1367C1441.46 43.1367 1440.6 42.8063 1439.95 42.1455C1439.3 41.4801 1438.97 40.596 1438.97 39.4932V39.2881C1438.97 38.5498 1439.11 37.8913 1439.39 37.3125C1439.68 36.7292 1440.08 36.2757 1440.6 35.9521C1441.11 35.6286 1441.69 35.4668 1442.32 35.4668C1443.33 35.4668 1444.1 35.7881 1444.65 36.4307C1445.2 37.0732 1445.48 37.9824 1445.48 39.1582V39.8281H1440.64C1440.69 40.4388 1440.9 40.9219 1441.25 41.2773C1441.61 41.6328 1442.06 41.8105 1442.61 41.8105C1443.37 41.8105 1443.99 41.5029 1444.47 40.8877L1445.36 41.7422C1445.07 42.1842 1444.67 42.5283 1444.17 42.7744C1443.68 43.016 1443.13 43.1367 1442.51 43.1367ZM1442.31 36.7998C1441.86 36.7998 1441.49 36.9593 1441.21 37.2783C1440.93 37.5973 1440.75 38.0417 1440.67 38.6113H1443.84V38.4883C1443.8 37.9323 1443.65 37.513 1443.39 37.2305C1443.13 36.9434 1442.77 36.7998 1442.31 36.7998ZM1450.03 43.1367C1448.98 43.1367 1448.12 42.8063 1447.47 42.1455C1446.82 41.4801 1446.49 40.596 1446.49 39.4932V39.2881C1446.49 38.5498 1446.63 37.8913 1446.91 37.3125C1447.2 36.7292 1447.6 36.2757 1448.12 35.9521C1448.63 35.6286 1449.21 35.4668 1449.84 35.4668C1450.85 35.4668 1451.62 35.7881 1452.17 36.4307C1452.72 37.0732 1453 37.9824 1453 39.1582V39.8281H1448.16C1448.21 40.4388 1448.42 40.9219 1448.77 41.2773C1449.13 41.6328 1449.58 41.8105 1450.13 41.8105C1450.89 41.8105 1451.51 41.5029 1451.99 40.8877L1452.88 41.7422C1452.58 42.1842 1452.19 42.5283 1451.69 42.7744C1451.2 43.016 1450.65 43.1367 1450.03 43.1367ZM1449.83 36.7998C1449.38 36.7998 1449.01 36.9593 1448.72 37.2783C1448.45 37.5973 1448.27 38.0417 1448.19 38.6113H1451.36V38.4883C1451.32 37.9323 1451.17 37.513 1450.91 37.2305C1450.65 36.9434 1450.29 36.7998 1449.83 36.7998ZM1456.06 43H1454.4V32.5H1456.06V43ZM1465.18 39.165H1463.25V43H1461.52V33.0469H1465.02C1466.17 33.0469 1467.06 33.3044 1467.68 33.8193C1468.31 34.3343 1468.62 35.0794 1468.62 36.0547C1468.62 36.7201 1468.46 37.2783 1468.13 37.7295C1467.81 38.1761 1467.37 38.5202 1466.79 38.7617L1469.03 42.9111V43H1467.17L1465.18 39.165ZM1463.25 37.7773H1465.03C1465.61 37.7773 1466.07 37.6315 1466.4 37.3398C1466.72 37.0436 1466.89 36.6403 1466.89 36.1299C1466.89 35.5967 1466.74 35.1842 1466.43 34.8926C1466.13 34.6009 1465.68 34.4505 1465.08 34.4414H1463.25V37.7773ZM1474.52 43C1474.44 42.8587 1474.38 42.6286 1474.33 42.3096C1473.8 42.861 1473.15 43.1367 1472.38 43.1367C1471.64 43.1367 1471.03 42.9248 1470.57 42.501C1470.1 42.0771 1469.86 41.5531 1469.86 40.9287C1469.86 40.1403 1470.15 39.5365 1470.74 39.1172C1471.32 38.6934 1472.16 38.4814 1473.25 38.4814H1474.27V37.9961C1474.27 37.6133 1474.16 37.3079 1473.95 37.0801C1473.74 36.8477 1473.41 36.7314 1472.97 36.7314C1472.59 36.7314 1472.28 36.8271 1472.04 37.0186C1471.8 37.2054 1471.68 37.4447 1471.68 37.7363H1470.02C1470.02 37.3307 1470.15 36.9525 1470.42 36.6016C1470.69 36.2461 1471.06 35.9681 1471.52 35.7676C1471.98 35.5671 1472.5 35.4668 1473.07 35.4668C1473.93 35.4668 1474.62 35.6855 1475.14 36.123C1475.65 36.556 1475.92 37.1667 1475.93 37.9551V41.291C1475.93 41.9564 1476.03 42.4873 1476.21 42.8838V43H1474.52ZM1472.69 41.8037C1473.02 41.8037 1473.33 41.724 1473.61 41.5645C1473.91 41.4049 1474.12 41.1908 1474.27 40.9219V39.5273H1473.38C1472.76 39.5273 1472.3 39.6344 1471.99 39.8486C1471.68 40.0628 1471.52 40.3659 1471.52 40.7578C1471.52 41.0768 1471.63 41.332 1471.84 41.5234C1472.05 41.7103 1472.34 41.8037 1472.69 41.8037ZM1479.21 35.6035L1479.26 36.458C1479.81 35.7972 1480.53 35.4668 1481.41 35.4668C1482.95 35.4668 1483.74 36.3486 1483.77 38.1123V43H1482.1V38.208C1482.1 37.7386 1482 37.3923 1481.8 37.1689C1481.6 36.9411 1481.27 36.8271 1480.81 36.8271C1480.14 36.8271 1479.64 37.1302 1479.31 37.7363V43H1477.65V35.6035H1479.21ZM1489.88 43C1489.81 42.8587 1489.75 42.6286 1489.69 42.3096C1489.16 42.861 1488.52 43.1367 1487.75 43.1367C1487.01 43.1367 1486.4 42.9248 1485.93 42.501C1485.46 42.0771 1485.23 41.5531 1485.23 40.9287C1485.23 40.1403 1485.52 39.5365 1486.1 39.1172C1486.69 38.6934 1487.53 38.4814 1488.62 38.4814H1489.64V37.9961C1489.64 37.6133 1489.53 37.3079 1489.32 37.0801C1489.1 36.8477 1488.78 36.7314 1488.34 36.7314C1487.96 36.7314 1487.65 36.8271 1487.41 37.0186C1487.17 37.2054 1487.05 37.4447 1487.05 37.7363H1485.39C1485.39 37.3307 1485.52 36.9525 1485.79 36.6016C1486.06 36.2461 1486.42 35.9681 1486.88 35.7676C1487.35 35.5671 1487.86 35.4668 1488.43 35.4668C1489.3 35.4668 1489.99 35.6855 1490.51 36.123C1491.02 36.556 1491.29 37.1667 1491.3 37.9551V41.291C1491.3 41.9564 1491.39 42.4873 1491.58 42.8838V43H1489.88ZM1488.06 41.8037C1488.39 41.8037 1488.69 41.724 1488.98 41.5645C1489.27 41.4049 1489.49 41.1908 1489.64 40.9219V39.5273H1488.74C1488.13 39.5273 1487.66 39.6344 1487.35 39.8486C1487.04 40.0628 1486.89 40.3659 1486.89 40.7578C1486.89 41.0768 1486.99 41.332 1487.2 41.5234C1487.42 41.7103 1487.7 41.8037 1488.06 41.8037Z" fill="white"/>
<path d="M1420.38 55.2227C1420.29 56.1328 1419.96 56.8438 1419.37 57.3555C1418.78 57.8633 1418 58.1172 1417.03 58.1172C1416.35 58.1172 1415.75 57.957 1415.23 57.6367C1414.72 57.3125 1414.32 56.8535 1414.04 56.2598C1413.76 55.666 1413.61 54.9766 1413.6 54.1914V53.3945C1413.6 52.5898 1413.74 51.8809 1414.03 51.2676C1414.31 50.6543 1414.72 50.1816 1415.25 49.8496C1415.79 49.5176 1416.4 49.3516 1417.1 49.3516C1418.04 49.3516 1418.8 49.6074 1419.38 50.1191C1419.95 50.6309 1420.28 51.3535 1420.38 52.2871H1418.9C1418.83 51.6738 1418.65 51.2324 1418.36 50.9629C1418.08 50.6895 1417.66 50.5527 1417.1 50.5527C1416.46 50.5527 1415.96 50.7891 1415.61 51.2617C1415.27 51.7305 1415.09 52.4199 1415.09 53.3301V54.0859C1415.09 55.0078 1415.25 55.7109 1415.58 56.1953C1415.91 56.6797 1416.39 56.9219 1417.03 56.9219C1417.61 56.9219 1418.05 56.791 1418.34 56.5293C1418.64 56.2676 1418.82 55.832 1418.9 55.2227H1420.38ZM1421.71 58V49.4688H1424.23C1424.98 49.4688 1425.65 49.6367 1426.23 49.9727C1426.82 50.3086 1427.27 50.7852 1427.59 51.4023C1427.91 52.0195 1428.07 52.7266 1428.07 53.5234V53.9512C1428.07 54.7598 1427.91 55.4707 1427.58 56.084C1427.26 56.6973 1426.8 57.1699 1426.21 57.502C1425.61 57.834 1424.93 58 1424.16 58H1421.71ZM1423.19 50.6641V56.8164H1424.16C1424.93 56.8164 1425.53 56.5742 1425.94 56.0898C1426.36 55.6016 1426.57 54.9023 1426.58 53.9922V53.5176C1426.58 52.5918 1426.38 51.8848 1425.98 51.3965C1425.58 50.9082 1424.99 50.6641 1424.23 50.6641H1423.19ZM1436.36 53.957C1436.36 54.793 1436.21 55.5273 1435.92 56.1602C1435.63 56.7891 1435.22 57.2734 1434.68 57.6133C1434.14 57.9492 1433.53 58.1172 1432.83 58.1172C1432.14 58.1172 1431.52 57.9492 1430.98 57.6133C1430.44 57.2734 1430.02 56.791 1429.72 56.166C1429.43 55.541 1429.28 54.8203 1429.28 54.0039V53.5234C1429.28 52.6914 1429.42 51.957 1429.72 51.3203C1430.01 50.6836 1430.43 50.1973 1430.96 49.8613C1431.5 49.5215 1432.12 49.3516 1432.82 49.3516C1433.51 49.3516 1434.13 49.5195 1434.66 49.8555C1435.2 50.1875 1435.62 50.668 1435.91 51.2969C1436.2 51.9219 1436.35 52.6504 1436.36 53.4824V53.957ZM1434.87 53.5117C1434.87 52.5664 1434.69 51.8418 1434.33 51.3379C1433.98 50.834 1433.47 50.582 1432.82 50.582C1432.18 50.582 1431.67 50.834 1431.31 51.3379C1430.95 51.8379 1430.77 52.5469 1430.76 53.4648V53.957C1430.76 54.8945 1430.94 55.6191 1431.3 56.1309C1431.67 56.6426 1432.18 56.8984 1432.83 56.8984C1433.48 56.8984 1433.99 56.6484 1434.34 56.1484C1434.7 55.6484 1434.87 54.918 1434.87 53.957V53.5117ZM1440.64 52.5508L1442.43 49.4688H1444.14L1441.56 53.6992L1444.2 58H1442.47L1440.64 54.8711L1438.8 58H1437.08L1439.72 53.6992L1437.13 49.4688H1438.85L1440.64 52.5508ZM1449.76 55.8027C1449.76 55.4277 1449.62 55.1387 1449.36 54.9355C1449.1 54.7324 1448.62 54.5273 1447.93 54.3203C1447.25 54.1133 1446.7 53.8828 1446.29 53.6289C1445.52 53.1406 1445.13 52.5039 1445.13 51.7188C1445.13 51.0312 1445.41 50.4648 1445.96 50.0195C1446.53 49.5742 1447.26 49.3516 1448.15 49.3516C1448.74 49.3516 1449.27 49.4609 1449.74 49.6797C1450.2 49.8984 1450.57 50.2109 1450.83 50.6172C1451.1 51.0195 1451.23 51.4668 1451.23 51.959H1449.76C1449.76 51.5137 1449.62 51.166 1449.33 50.916C1449.06 50.6621 1448.66 50.5352 1448.14 50.5352C1447.65 50.5352 1447.28 50.6387 1447.01 50.8457C1446.74 51.0527 1446.61 51.3418 1446.61 51.7129C1446.61 52.0254 1446.75 52.2871 1447.04 52.498C1447.33 52.7051 1447.81 52.9082 1448.47 53.1074C1449.14 53.3027 1449.67 53.5273 1450.07 53.7812C1450.47 54.0312 1450.77 54.3203 1450.96 54.6484C1451.14 54.9727 1451.24 55.3535 1451.24 55.791C1451.24 56.502 1450.96 57.0684 1450.42 57.4902C1449.88 57.9082 1449.14 58.1172 1448.2 58.1172C1447.59 58.1172 1447.02 58.0039 1446.5 57.7773C1445.98 57.5469 1445.58 57.2305 1445.29 56.8281C1445.01 56.4258 1444.86 55.957 1444.86 55.4219H1446.35C1446.35 55.9062 1446.51 56.2812 1446.83 56.5469C1447.15 56.8125 1447.61 56.9453 1448.2 56.9453C1448.72 56.9453 1449.11 56.8418 1449.36 56.6348C1449.62 56.4238 1449.76 56.1465 1449.76 55.8027Z" fill="white"/>
<path d="M1509.85 48.8521C1509.91 48.7916 1509.96 48.7251 1510.01 48.6558L1514.66 44.0046C1515.11 43.5507 1515.11 42.8148 1514.66 42.3606C1514.21 41.9071 1513.47 41.9067 1513.02 42.3606L1509.01 46.3663L1504.98 42.3404C1504.53 41.8866 1503.79 41.8864 1503.34 42.3404C1503.11 42.5677 1503 42.8649 1503 43.1622C1503 43.4596 1503.11 43.7571 1503.34 43.9835L1508.01 48.6556C1508.06 48.7251 1508.11 48.7914 1508.17 48.8521C1508.4 49.0842 1508.71 49.1959 1509.01 49.1905C1509.31 49.1961 1509.62 49.0842 1509.85 48.8521Z" fill="#C4C4C4"/>
<line x1="618" y1="58" x2="660" y2="58" stroke="#52AE32" stroke-width="2" stroke-linecap="round"/>
<path d="M627.062 50H625.555V44.7422H619.82V50H618.32V38.625H619.82V43.5156H625.555V38.625H627.062V50ZM629.117 45.6953C629.117 44.8672 629.279 44.1224 629.602 43.4609C629.93 42.7995 630.383 42.2891 630.961 41.9297C631.544 41.5703 632.208 41.3906 632.953 41.3906C634.104 41.3906 635.034 41.7891 635.742 42.5859C636.456 43.3828 636.812 44.4427 636.812 45.7656V45.8672C636.812 46.6901 636.654 47.4297 636.336 48.0859C636.023 48.737 635.573 49.2448 634.984 49.6094C634.401 49.974 633.729 50.1562 632.969 50.1562C631.823 50.1562 630.893 49.7578 630.18 48.9609C629.471 48.1641 629.117 47.1094 629.117 45.7969V45.6953ZM630.57 45.8672C630.57 46.8047 630.786 47.5573 631.219 48.125C631.656 48.6927 632.24 48.9766 632.969 48.9766C633.703 48.9766 634.286 48.6901 634.719 48.1172C635.151 47.5391 635.367 46.7318 635.367 45.6953C635.367 44.7682 635.146 44.0182 634.703 43.4453C634.266 42.8672 633.682 42.5781 632.953 42.5781C632.24 42.5781 631.664 42.862 631.227 43.4297C630.789 43.9974 630.57 44.8099 630.57 45.8672ZM639.984 41.5469L640.023 42.4844C640.643 41.7552 641.479 41.3906 642.531 41.3906C643.714 41.3906 644.518 41.8438 644.945 42.75C645.227 42.3438 645.591 42.0156 646.039 41.7656C646.492 41.5156 647.026 41.3906 647.641 41.3906C649.495 41.3906 650.438 42.3724 650.469 44.3359V50H649.023V44.4219C649.023 43.8177 648.885 43.3672 648.609 43.0703C648.333 42.7682 647.87 42.6172 647.219 42.6172C646.682 42.6172 646.237 42.7786 645.883 43.1016C645.529 43.4193 645.323 43.849 645.266 44.3906V50H643.812V44.4609C643.812 43.2318 643.211 42.6172 642.008 42.6172C641.06 42.6172 640.411 43.0208 640.062 43.8281V50H638.617V41.5469H639.984ZM656.164 50.1562C655.018 50.1562 654.086 49.7812 653.367 49.0312C652.648 48.276 652.289 47.2682 652.289 46.0078V45.7422C652.289 44.9036 652.448 44.1562 652.766 43.5C653.089 42.8385 653.536 42.3229 654.109 41.9531C654.688 41.5781 655.312 41.3906 655.984 41.3906C657.083 41.3906 657.938 41.7526 658.547 42.4766C659.156 43.2005 659.461 44.237 659.461 45.5859V46.1875H653.734C653.755 47.0208 653.997 47.6953 654.461 48.2109C654.93 48.7214 655.523 48.9766 656.242 48.9766C656.753 48.9766 657.185 48.8724 657.539 48.6641C657.893 48.4557 658.203 48.1797 658.469 47.8359L659.352 48.5234C658.643 49.612 657.581 50.1562 656.164 50.1562ZM655.984 42.5781C655.401 42.5781 654.911 42.7917 654.516 43.2188C654.12 43.6406 653.875 44.2344 653.781 45H658.016V44.8906C657.974 44.1562 657.776 43.5885 657.422 43.1875C657.068 42.7812 656.589 42.5781 655.984 42.5781Z" fill="#52AE32"/>
<path d="M803.602 47.0312H798.836L797.766 50H796.219L800.562 38.625H801.875L806.227 50H804.688L803.602 47.0312ZM799.289 45.7969H803.156L801.219 40.4766L799.289 45.7969ZM808.242 50V42.6641H806.906V41.5469H808.242V40.6797C808.242 39.7734 808.484 39.0729 808.969 38.5781C809.453 38.0833 810.138 37.8359 811.023 37.8359C811.357 37.8359 811.688 37.8802 812.016 37.9688L811.938 39.1406C811.693 39.0938 811.432 39.0703 811.156 39.0703C810.688 39.0703 810.326 39.2083 810.07 39.4844C809.815 39.7552 809.688 40.1458 809.688 40.6562V41.5469H812.812V40.625C812.818 39.724 813.07 39.0339 813.57 38.5547C814.07 38.0755 814.781 37.8359 815.703 37.8359C816.229 37.8359 817.271 37.9948 818.828 38.3125V50H817.383V39.2266C816.737 39.1224 816.216 39.0703 815.82 39.0703C814.779 39.0703 814.258 39.6172 814.258 40.7109V41.5469H816.062V42.6641H814.258V50H812.812V42.6641H809.688V50H808.242ZM822.758 50H821.312V41.5469H822.758V50ZM821.195 39.3047C821.195 39.0703 821.266 38.8724 821.406 38.7109C821.552 38.5495 821.766 38.4688 822.047 38.4688C822.328 38.4688 822.542 38.5495 822.688 38.7109C822.833 38.8724 822.906 39.0703 822.906 39.3047C822.906 39.5391 822.833 39.7344 822.688 39.8906C822.542 40.0469 822.328 40.125 822.047 40.125C821.766 40.125 821.552 40.0469 821.406 39.8906C821.266 39.7344 821.195 39.5391 821.195 39.3047ZM830.297 50C830.214 49.8333 830.146 49.5365 830.094 49.1094C829.422 49.8073 828.62 50.1562 827.688 50.1562C826.854 50.1562 826.169 49.9219 825.633 49.4531C825.102 48.9792 824.836 48.3802 824.836 47.6562C824.836 46.776 825.169 46.0938 825.836 45.6094C826.508 45.1198 827.451 44.875 828.664 44.875H830.07V44.2109C830.07 43.7057 829.919 43.3047 829.617 43.0078C829.315 42.7057 828.87 42.5547 828.281 42.5547C827.766 42.5547 827.333 42.6849 826.984 42.9453C826.635 43.2057 826.461 43.5208 826.461 43.8906H825.008C825.008 43.4688 825.156 43.0625 825.453 42.6719C825.755 42.276 826.161 41.9635 826.672 41.7344C827.188 41.5052 827.753 41.3906 828.367 41.3906C829.341 41.3906 830.104 41.6354 830.656 42.125C831.208 42.6094 831.495 43.2786 831.516 44.1328V48.0234C831.516 48.7995 831.615 49.4167 831.812 49.875V50H830.297ZM827.898 48.8984C828.352 48.8984 828.781 48.7812 829.188 48.5469C829.594 48.3125 829.888 48.0078 830.07 47.6328V45.8984H828.938C827.167 45.8984 826.281 46.4167 826.281 47.4531C826.281 47.9062 826.432 48.2604 826.734 48.5156C827.036 48.7708 827.424 48.8984 827.898 48.8984ZM835.742 39.5V41.5469H837.32V42.6641H835.742V47.9062C835.742 48.2448 835.812 48.5 835.953 48.6719C836.094 48.8385 836.333 48.9219 836.672 48.9219C836.839 48.9219 837.068 48.8906 837.359 48.8281V50C836.979 50.1042 836.609 50.1562 836.25 50.1562C835.604 50.1562 835.117 49.9609 834.789 49.5703C834.461 49.1797 834.297 48.625 834.297 47.9062V42.6641H832.758V41.5469H834.297V39.5H835.742ZM840.586 50H839.141V41.5469H840.586V50ZM839.023 39.3047C839.023 39.0703 839.094 38.8724 839.234 38.7109C839.38 38.5495 839.594 38.4688 839.875 38.4688C840.156 38.4688 840.37 38.5495 840.516 38.7109C840.661 38.8724 840.734 39.0703 840.734 39.3047C840.734 39.5391 840.661 39.7344 840.516 39.8906C840.37 40.0469 840.156 40.125 839.875 40.125C839.594 40.125 839.38 40.0469 839.234 39.8906C839.094 39.7344 839.023 39.5391 839.023 39.3047ZM842.523 45.6953C842.523 44.8672 842.685 44.1224 843.008 43.4609C843.336 42.7995 843.789 42.2891 844.367 41.9297C844.951 41.5703 845.615 41.3906 846.359 41.3906C847.51 41.3906 848.44 41.7891 849.148 42.5859C849.862 43.3828 850.219 44.4427 850.219 45.7656V45.8672C850.219 46.6901 850.06 47.4297 849.742 48.0859C849.43 48.737 848.979 49.2448 848.391 49.6094C847.807 49.974 847.135 50.1562 846.375 50.1562C845.229 50.1562 844.299 49.7578 843.586 48.9609C842.878 48.1641 842.523 47.1094 842.523 45.7969V45.6953ZM843.977 45.8672C843.977 46.8047 844.193 47.5573 844.625 48.125C845.062 48.6927 845.646 48.9766 846.375 48.9766C847.109 48.9766 847.693 48.6901 848.125 48.1172C848.557 47.5391 848.773 46.7318 848.773 45.6953C848.773 44.7682 848.552 44.0182 848.109 43.4453C847.672 42.8672 847.089 42.5781 846.359 42.5781C845.646 42.5781 845.07 42.862 844.633 43.4297C844.195 43.9974 843.977 44.8099 843.977 45.8672ZM853.398 41.5469L853.445 42.6094C854.091 41.7969 854.935 41.3906 855.977 41.3906C857.763 41.3906 858.664 42.3984 858.68 44.4141V50H857.234V44.4062C857.229 43.7969 857.089 43.3464 856.812 43.0547C856.542 42.763 856.117 42.6172 855.539 42.6172C855.07 42.6172 854.659 42.7422 854.305 42.9922C853.951 43.2422 853.674 43.5703 853.477 43.9766V50H852.031V41.5469H853.398ZM865.781 47.7578C865.781 47.3672 865.633 47.0651 865.336 46.8516C865.044 46.6328 864.531 46.4453 863.797 46.2891C863.068 46.1328 862.487 45.9453 862.055 45.7266C861.628 45.5078 861.31 45.2474 861.102 44.9453C860.898 44.6432 860.797 44.2839 860.797 43.8672C860.797 43.1745 861.089 42.5885 861.672 42.1094C862.26 41.6302 863.01 41.3906 863.922 41.3906C864.88 41.3906 865.656 41.638 866.25 42.1328C866.849 42.6276 867.148 43.2604 867.148 44.0312H865.695C865.695 43.6354 865.526 43.2943 865.188 43.0078C864.854 42.7214 864.432 42.5781 863.922 42.5781C863.396 42.5781 862.984 42.6927 862.688 42.9219C862.391 43.151 862.242 43.4505 862.242 43.8203C862.242 44.1693 862.38 44.4323 862.656 44.6094C862.932 44.7865 863.43 44.9557 864.148 45.1172C864.872 45.2786 865.458 45.4714 865.906 45.6953C866.354 45.9193 866.685 46.1901 866.898 46.5078C867.117 46.8203 867.227 47.2031 867.227 47.6562C867.227 48.4115 866.924 49.0182 866.32 49.4766C865.716 49.9297 864.932 50.1562 863.969 50.1562C863.292 50.1562 862.693 50.0365 862.172 49.7969C861.651 49.5573 861.242 49.224 860.945 48.7969C860.654 48.3646 860.508 47.8984 860.508 47.3984H861.953C861.979 47.8828 862.172 48.2682 862.531 48.5547C862.896 48.8359 863.375 48.9766 863.969 48.9766C864.516 48.9766 864.953 48.8672 865.281 48.6484C865.615 48.4245 865.781 48.1276 865.781 47.7578ZM872.773 46.9453C872.773 46.3984 872.924 45.8958 873.227 45.4375C873.534 44.9792 874.117 44.4453 874.977 43.8359C874.471 43.2214 874.133 42.7266 873.961 42.3516C873.789 41.9766 873.703 41.6042 873.703 41.2344C873.703 40.3698 873.958 39.6927 874.469 39.2031C874.979 38.7135 875.672 38.4688 876.547 38.4688C877.328 38.4688 877.974 38.6979 878.484 39.1562C878.995 39.6094 879.25 40.1823 879.25 40.875C879.25 41.3333 879.133 41.7578 878.898 42.1484C878.669 42.5339 878.266 42.9401 877.688 43.3672L876.852 43.9844L879.383 47.0078C879.737 46.3307 879.914 45.5781 879.914 44.75H881.219C881.219 46.0781 880.898 47.1797 880.258 48.0547L881.883 50H880.148L879.391 49.1016C879.005 49.4453 878.552 49.7083 878.031 49.8906C877.516 50.0677 876.99 50.1562 876.453 50.1562C875.344 50.1562 874.453 49.862 873.781 49.2734C873.109 48.6849 872.773 47.9089 872.773 46.9453ZM876.453 48.9766C877.219 48.9766 877.919 48.6849 878.555 48.1016L875.781 44.7812L875.523 44.9688C874.654 45.6094 874.219 46.2682 874.219 46.9453C874.219 47.5599 874.417 48.0521 874.812 48.4219C875.214 48.7917 875.76 48.9766 876.453 48.9766ZM875.148 41.1875C875.148 41.6875 875.456 42.3125 876.07 43.0625L876.992 42.4141C877.346 42.1641 877.589 41.9271 877.719 41.7031C877.849 41.474 877.914 41.1979 877.914 40.875C877.914 40.526 877.784 40.237 877.523 40.0078C877.263 39.7734 876.935 39.6562 876.539 39.6562C876.112 39.6562 875.773 39.8021 875.523 40.0938C875.273 40.3802 875.148 40.7448 875.148 41.1875ZM889.164 38.625L892.883 47.9062L896.602 38.625H898.547V50H897.047V45.5703L897.188 40.7891L893.453 50H892.305L888.578 40.8125L888.727 45.5703V50H887.227V38.625H889.164ZM904.477 50.1562C903.331 50.1562 902.398 49.7812 901.68 49.0312C900.961 48.276 900.602 47.2682 900.602 46.0078V45.7422C900.602 44.9036 900.76 44.1562 901.078 43.5C901.401 42.8385 901.849 42.3229 902.422 41.9531C903 41.5781 903.625 41.3906 904.297 41.3906C905.396 41.3906 906.25 41.7526 906.859 42.4766C907.469 43.2005 907.773 44.237 907.773 45.5859V46.1875H902.047C902.068 47.0208 902.31 47.6953 902.773 48.2109C903.242 48.7214 903.836 48.9766 904.555 48.9766C905.065 48.9766 905.497 48.8724 905.852 48.6641C906.206 48.4557 906.516 48.1797 906.781 47.8359L907.664 48.5234C906.956 49.612 905.893 50.1562 904.477 50.1562ZM904.297 42.5781C903.714 42.5781 903.224 42.7917 902.828 43.2188C902.432 43.6406 902.188 44.2344 902.094 45H906.328V44.8906C906.286 44.1562 906.089 43.5885 905.734 43.1875C905.38 42.7812 904.901 42.5781 904.297 42.5781ZM910.812 41.5469L910.852 42.4844C911.471 41.7552 912.307 41.3906 913.359 41.3906C914.542 41.3906 915.346 41.8438 915.773 42.75C916.055 42.3438 916.419 42.0156 916.867 41.7656C917.32 41.5156 917.854 41.3906 918.469 41.3906C920.323 41.3906 921.266 42.3724 921.297 44.3359V50H919.852V44.4219C919.852 43.8177 919.714 43.3672 919.438 43.0703C919.161 42.7682 918.698 42.6172 918.047 42.6172C917.51 42.6172 917.065 42.7786 916.711 43.1016C916.357 43.4193 916.151 43.849 916.094 44.3906V50H914.641V44.4609C914.641 43.2318 914.039 42.6172 912.836 42.6172C911.888 42.6172 911.24 43.0208 910.891 43.8281V50H909.445V41.5469H910.812ZM930.641 45.8672C930.641 47.1589 930.344 48.1979 929.75 48.9844C929.156 49.7656 928.359 50.1562 927.359 50.1562C926.292 50.1562 925.466 49.7786 924.883 49.0234L924.812 50H923.484V38H924.93V42.4766C925.513 41.7526 926.318 41.3906 927.344 41.3906C928.37 41.3906 929.174 41.7786 929.758 42.5547C930.346 43.3307 930.641 44.3932 930.641 45.7422V45.8672ZM929.195 45.7031C929.195 44.7188 929.005 43.9583 928.625 43.4219C928.245 42.8854 927.698 42.6172 926.984 42.6172C926.031 42.6172 925.346 43.0599 924.93 43.9453V47.6016C925.372 48.487 926.062 48.9297 927 48.9297C927.693 48.9297 928.232 48.6615 928.617 48.125C929.003 47.5885 929.195 46.7812 929.195 45.7031ZM935.977 50.1562C934.831 50.1562 933.898 49.7812 933.18 49.0312C932.461 48.276 932.102 47.2682 932.102 46.0078V45.7422C932.102 44.9036 932.26 44.1562 932.578 43.5C932.901 42.8385 933.349 42.3229 933.922 41.9531C934.5 41.5781 935.125 41.3906 935.797 41.3906C936.896 41.3906 937.75 41.7526 938.359 42.4766C938.969 43.2005 939.273 44.237 939.273 45.5859V46.1875H933.547C933.568 47.0208 933.81 47.6953 934.273 48.2109C934.742 48.7214 935.336 48.9766 936.055 48.9766C936.565 48.9766 936.997 48.8724 937.352 48.6641C937.706 48.4557 938.016 48.1797 938.281 47.8359L939.164 48.5234C938.456 49.612 937.393 50.1562 935.977 50.1562ZM935.797 42.5781C935.214 42.5781 934.724 42.7917 934.328 43.2188C933.932 43.6406 933.688 44.2344 933.594 45H937.828V44.8906C937.786 44.1562 937.589 43.5885 937.234 43.1875C936.88 42.7812 936.401 42.5781 935.797 42.5781ZM945.039 42.8438C944.82 42.8073 944.583 42.7891 944.328 42.7891C943.38 42.7891 942.737 43.1927 942.398 44V50H940.953V41.5469H942.359L942.383 42.5234C942.857 41.7682 943.529 41.3906 944.398 41.3906C944.68 41.3906 944.893 41.4271 945.039 41.5V42.8438ZM951.297 47.7578C951.297 47.3672 951.148 47.0651 950.852 46.8516C950.56 46.6328 950.047 46.4453 949.312 46.2891C948.583 46.1328 948.003 45.9453 947.57 45.7266C947.143 45.5078 946.826 45.2474 946.617 44.9453C946.414 44.6432 946.312 44.2839 946.312 43.8672C946.312 43.1745 946.604 42.5885 947.188 42.1094C947.776 41.6302 948.526 41.3906 949.438 41.3906C950.396 41.3906 951.172 41.638 951.766 42.1328C952.365 42.6276 952.664 43.2604 952.664 44.0312H951.211C951.211 43.6354 951.042 43.2943 950.703 43.0078C950.37 42.7214 949.948 42.5781 949.438 42.5781C948.911 42.5781 948.5 42.6927 948.203 42.9219C947.906 43.151 947.758 43.4505 947.758 43.8203C947.758 44.1693 947.896 44.4323 948.172 44.6094C948.448 44.7865 948.945 44.9557 949.664 45.1172C950.388 45.2786 950.974 45.4714 951.422 45.6953C951.87 45.9193 952.201 46.1901 952.414 46.5078C952.633 46.8203 952.742 47.2031 952.742 47.6562C952.742 48.4115 952.44 49.0182 951.836 49.4766C951.232 49.9297 950.448 50.1562 949.484 50.1562C948.807 50.1562 948.208 50.0365 947.688 49.7969C947.167 49.5573 946.758 49.224 946.461 48.7969C946.169 48.3646 946.023 47.8984 946.023 47.3984H947.469C947.495 47.8828 947.688 48.2682 948.047 48.5547C948.411 48.8359 948.891 48.9766 949.484 48.9766C950.031 48.9766 950.469 48.8672 950.797 48.6484C951.13 48.4245 951.297 48.1276 951.297 47.7578ZM956.07 42.5703C956.711 41.7839 957.544 41.3906 958.57 41.3906C960.357 41.3906 961.258 42.3984 961.273 44.4141V50H959.828V44.4062C959.823 43.7969 959.682 43.3464 959.406 43.0547C959.135 42.763 958.711 42.6172 958.133 42.6172C957.664 42.6172 957.253 42.7422 956.898 42.9922C956.544 43.2422 956.268 43.5703 956.07 43.9766V50H954.625V38H956.07V42.5703ZM965.008 50H963.562V41.5469H965.008V50ZM963.445 39.3047C963.445 39.0703 963.516 38.8724 963.656 38.7109C963.802 38.5495 964.016 38.4688 964.297 38.4688C964.578 38.4688 964.792 38.5495 964.938 38.7109C965.083 38.8724 965.156 39.0703 965.156 39.3047C965.156 39.5391 965.083 39.7344 964.938 39.8906C964.792 40.0469 964.578 40.125 964.297 40.125C964.016 40.125 963.802 40.0469 963.656 39.8906C963.516 39.7344 963.445 39.5391 963.445 39.3047ZM974.469 45.8672C974.469 47.1536 974.174 48.1901 973.586 48.9766C972.997 49.763 972.201 50.1562 971.195 50.1562C970.169 50.1562 969.362 49.8307 968.773 49.1797V53.25H967.328V41.5469H968.648L968.719 42.4844C969.307 41.7552 970.125 41.3906 971.172 41.3906C972.188 41.3906 972.99 41.7734 973.578 42.5391C974.172 43.3047 974.469 44.3698 974.469 45.7344V45.8672ZM973.023 45.7031C973.023 44.75 972.82 43.9974 972.414 43.4453C972.008 42.8932 971.451 42.6172 970.742 42.6172C969.867 42.6172 969.211 43.0052 968.773 43.7812V47.8203C969.206 48.5911 969.867 48.9766 970.758 48.9766C971.451 48.9766 972 48.7031 972.406 48.1562C972.818 47.6042 973.023 46.7865 973.023 45.7031ZM981.234 47.7578C981.234 47.3672 981.086 47.0651 980.789 46.8516C980.497 46.6328 979.984 46.4453 979.25 46.2891C978.521 46.1328 977.94 45.9453 977.508 45.7266C977.081 45.5078 976.763 45.2474 976.555 44.9453C976.352 44.6432 976.25 44.2839 976.25 43.8672C976.25 43.1745 976.542 42.5885 977.125 42.1094C977.714 41.6302 978.464 41.3906 979.375 41.3906C980.333 41.3906 981.109 41.638 981.703 42.1328C982.302 42.6276 982.602 43.2604 982.602 44.0312H981.148C981.148 43.6354 980.979 43.2943 980.641 43.0078C980.307 42.7214 979.885 42.5781 979.375 42.5781C978.849 42.5781 978.438 42.6927 978.141 42.9219C977.844 43.151 977.695 43.4505 977.695 43.8203C977.695 44.1693 977.833 44.4323 978.109 44.6094C978.385 44.7865 978.883 44.9557 979.602 45.1172C980.326 45.2786 980.911 45.4714 981.359 45.6953C981.807 45.9193 982.138 46.1901 982.352 46.5078C982.57 46.8203 982.68 47.2031 982.68 47.6562C982.68 48.4115 982.378 49.0182 981.773 49.4766C981.169 49.9297 980.385 50.1562 979.422 50.1562C978.745 50.1562 978.146 50.0365 977.625 49.7969C977.104 49.5573 976.695 49.224 976.398 48.7969C976.107 48.3646 975.961 47.8984 975.961 47.3984H977.406C977.432 47.8828 977.625 48.2682 977.984 48.5547C978.349 48.8359 978.828 48.9766 979.422 48.9766C979.969 48.9766 980.406 48.8672 980.734 48.6484C981.068 48.4245 981.234 48.1276 981.234 47.7578Z" fill="white"/>
<path d="M1019.06 50H1017.55L1011.83 41.2344V50H1010.32V38.625H1011.83L1017.57 47.4297V38.625H1019.06V50ZM1025.01 50.1562C1023.86 50.1562 1022.93 49.7812 1022.21 49.0312C1021.49 48.276 1021.13 47.2682 1021.13 46.0078V45.7422C1021.13 44.9036 1021.29 44.1562 1021.61 43.5C1021.93 42.8385 1022.38 42.3229 1022.95 41.9531C1023.53 41.5781 1024.16 41.3906 1024.83 41.3906C1025.93 41.3906 1026.78 41.7526 1027.39 42.4766C1028 43.2005 1028.3 44.237 1028.3 45.5859V46.1875H1022.58C1022.6 47.0208 1022.84 47.6953 1023.3 48.2109C1023.77 48.7214 1024.37 48.9766 1025.09 48.9766C1025.6 48.9766 1026.03 48.8724 1026.38 48.6641C1026.74 48.4557 1027.05 48.1797 1027.31 47.8359L1028.2 48.5234C1027.49 49.612 1026.42 50.1562 1025.01 50.1562ZM1024.83 42.5781C1024.24 42.5781 1023.76 42.7917 1023.36 43.2188C1022.96 43.6406 1022.72 44.2344 1022.62 45H1026.86V44.8906C1026.82 44.1562 1026.62 43.5885 1026.27 43.1875C1025.91 42.7812 1025.43 42.5781 1024.83 42.5781ZM1037.47 48.0078L1039.09 41.5469H1040.54L1038.08 50H1036.91L1034.85 43.5938L1032.85 50H1031.68L1029.23 41.5469H1030.66L1032.33 47.875L1034.3 41.5469H1035.46L1037.47 48.0078ZM1046.94 47.7578C1046.94 47.3672 1046.79 47.0651 1046.49 46.8516C1046.2 46.6328 1045.69 46.4453 1044.95 46.2891C1044.22 46.1328 1043.64 45.9453 1043.21 45.7266C1042.78 45.5078 1042.47 45.2474 1042.26 44.9453C1042.05 44.6432 1041.95 44.2839 1041.95 43.8672C1041.95 43.1745 1042.24 42.5885 1042.83 42.1094C1043.42 41.6302 1044.17 41.3906 1045.08 41.3906C1046.04 41.3906 1046.81 41.638 1047.41 42.1328C1048.01 42.6276 1048.3 43.2604 1048.3 44.0312H1046.85C1046.85 43.6354 1046.68 43.2943 1046.34 43.0078C1046.01 42.7214 1045.59 42.5781 1045.08 42.5781C1044.55 42.5781 1044.14 42.6927 1043.84 42.9219C1043.55 43.151 1043.4 43.4505 1043.4 43.8203C1043.4 44.1693 1043.54 44.4323 1043.81 44.6094C1044.09 44.7865 1044.59 44.9557 1045.3 45.1172C1046.03 45.2786 1046.61 45.4714 1047.06 45.6953C1047.51 45.9193 1047.84 46.1901 1048.05 46.5078C1048.27 46.8203 1048.38 47.2031 1048.38 47.6562C1048.38 48.4115 1048.08 49.0182 1047.48 49.4766C1046.87 49.9297 1046.09 50.1562 1045.12 50.1562C1044.45 50.1562 1043.85 50.0365 1043.33 49.7969C1042.81 49.5573 1042.4 49.224 1042.1 48.7969C1041.81 48.3646 1041.66 47.8984 1041.66 47.3984H1043.11C1043.14 47.8828 1043.33 48.2682 1043.69 48.5547C1044.05 48.8359 1044.53 48.9766 1045.12 48.9766C1045.67 48.9766 1046.11 48.8672 1046.44 48.6484C1046.77 48.4245 1046.94 48.1276 1046.94 47.7578Z" fill="white"/>
<path d="M1256.69 46.3906C1256.55 47.5938 1256.1 48.5234 1255.35 49.1797C1254.61 49.8307 1253.61 50.1562 1252.38 50.1562C1251.03 50.1562 1249.95 49.6745 1249.14 48.7109C1248.33 47.7474 1247.93 46.4583 1247.93 44.8438V43.75C1247.93 42.6927 1248.12 41.763 1248.49 40.9609C1248.87 40.1589 1249.41 39.5443 1250.1 39.1172C1250.79 38.6849 1251.6 38.4688 1252.51 38.4688C1253.72 38.4688 1254.68 38.8073 1255.41 39.4844C1256.14 40.1562 1256.57 41.0885 1256.69 42.2812H1255.18C1255.05 41.375 1254.77 40.7188 1254.33 40.3125C1253.9 39.9062 1253.29 39.7031 1252.51 39.7031C1251.55 39.7031 1250.8 40.0573 1250.25 40.7656C1249.71 41.474 1249.44 42.4818 1249.44 43.7891V44.8906C1249.44 46.125 1249.7 47.1068 1250.21 47.8359C1250.73 48.5651 1251.45 48.9297 1252.38 48.9297C1253.21 48.9297 1253.85 48.7422 1254.29 48.3672C1254.74 47.987 1255.03 47.3281 1255.18 46.3906H1256.69ZM1258.13 45.6953C1258.13 44.8672 1258.29 44.1224 1258.62 43.4609C1258.95 42.7995 1259.4 42.2891 1259.98 41.9297C1260.56 41.5703 1261.22 41.3906 1261.97 41.3906C1263.12 41.3906 1264.05 41.7891 1264.76 42.5859C1265.47 43.3828 1265.83 44.4427 1265.83 45.7656V45.8672C1265.83 46.6901 1265.67 47.4297 1265.35 48.0859C1265.04 48.737 1264.59 49.2448 1264 49.6094C1263.42 49.974 1262.74 50.1562 1261.98 50.1562C1260.84 50.1562 1259.91 49.7578 1259.2 48.9609C1258.49 48.1641 1258.13 47.1094 1258.13 45.7969V45.6953ZM1259.59 45.8672C1259.59 46.8047 1259.8 47.5573 1260.23 48.125C1260.67 48.6927 1261.26 48.9766 1261.98 48.9766C1262.72 48.9766 1263.3 48.6901 1263.73 48.1172C1264.17 47.5391 1264.38 46.7318 1264.38 45.6953C1264.38 44.7682 1264.16 44.0182 1263.72 43.4453C1263.28 42.8672 1262.7 42.5781 1261.97 42.5781C1261.26 42.5781 1260.68 42.862 1260.24 43.4297C1259.8 43.9974 1259.59 44.8099 1259.59 45.8672ZM1269.01 41.5469L1269.05 42.6094C1269.7 41.7969 1270.54 41.3906 1271.59 41.3906C1273.37 41.3906 1274.27 42.3984 1274.29 44.4141V50H1272.84V44.4062C1272.84 43.7969 1272.7 43.3464 1272.42 43.0547C1272.15 42.763 1271.73 42.6172 1271.15 42.6172C1270.68 42.6172 1270.27 42.7422 1269.91 42.9922C1269.56 43.2422 1269.28 43.5703 1269.09 43.9766V50H1267.64V41.5469H1269.01ZM1278.43 39.5V41.5469H1280.01V42.6641H1278.43V47.9062C1278.43 48.2448 1278.5 48.5 1278.64 48.6719C1278.78 48.8385 1279.02 48.9219 1279.36 48.9219C1279.53 48.9219 1279.76 48.8906 1280.05 48.8281V50C1279.67 50.1042 1279.3 50.1562 1278.94 50.1562C1278.29 50.1562 1277.8 49.9609 1277.48 49.5703C1277.15 49.1797 1276.98 48.625 1276.98 47.9062V42.6641H1275.45V41.5469H1276.98V39.5H1278.43ZM1286.92 50C1286.84 49.8333 1286.77 49.5365 1286.72 49.1094C1286.05 49.8073 1285.24 50.1562 1284.31 50.1562C1283.48 50.1562 1282.79 49.9219 1282.26 49.4531C1281.73 48.9792 1281.46 48.3802 1281.46 47.6562C1281.46 46.776 1281.79 46.0938 1282.46 45.6094C1283.13 45.1198 1284.08 44.875 1285.29 44.875H1286.7V44.2109C1286.7 43.7057 1286.54 43.3047 1286.24 43.0078C1285.94 42.7057 1285.49 42.5547 1284.91 42.5547C1284.39 42.5547 1283.96 42.6849 1283.61 42.9453C1283.26 43.2057 1283.09 43.5208 1283.09 43.8906H1281.63C1281.63 43.4688 1281.78 43.0625 1282.08 42.6719C1282.38 42.276 1282.79 41.9635 1283.3 41.7344C1283.81 41.5052 1284.38 41.3906 1284.99 41.3906C1285.97 41.3906 1286.73 41.6354 1287.28 42.125C1287.83 42.6094 1288.12 43.2786 1288.14 44.1328V48.0234C1288.14 48.7995 1288.24 49.4167 1288.44 49.875V50H1286.92ZM1284.52 48.8984C1284.98 48.8984 1285.41 48.7812 1285.81 48.5469C1286.22 48.3125 1286.51 48.0078 1286.7 47.6328V45.8984H1285.56C1283.79 45.8984 1282.91 46.4167 1282.91 47.4531C1282.91 47.9062 1283.06 48.2604 1283.36 48.5156C1283.66 48.7708 1284.05 48.8984 1284.52 48.8984ZM1293.8 48.9766C1294.31 48.9766 1294.76 48.8203 1295.15 48.5078C1295.53 48.1953 1295.75 47.8047 1295.79 47.3359H1297.16C1297.13 47.8203 1296.96 48.2812 1296.66 48.7188C1296.35 49.1562 1295.94 49.5052 1295.42 49.7656C1294.91 50.026 1294.37 50.1562 1293.8 50.1562C1292.65 50.1562 1291.73 49.7734 1291.05 49.0078C1290.37 48.237 1290.03 47.1849 1290.03 45.8516V45.6094C1290.03 44.7865 1290.18 44.0547 1290.48 43.4141C1290.79 42.7734 1291.22 42.276 1291.78 41.9219C1292.35 41.5677 1293.02 41.3906 1293.79 41.3906C1294.74 41.3906 1295.52 41.6745 1296.15 42.2422C1296.78 42.8099 1297.11 43.5469 1297.16 44.4531H1295.79C1295.75 43.9062 1295.54 43.4583 1295.16 43.1094C1294.79 42.7552 1294.34 42.5781 1293.79 42.5781C1293.05 42.5781 1292.48 42.8438 1292.08 43.375C1291.68 43.901 1291.48 44.6641 1291.48 45.6641V45.9375C1291.48 46.9115 1291.68 47.6615 1292.08 48.1875C1292.48 48.7135 1293.05 48.9766 1293.8 48.9766ZM1300.74 39.5V41.5469H1302.32V42.6641H1300.74V47.9062C1300.74 48.2448 1300.81 48.5 1300.95 48.6719C1301.09 48.8385 1301.33 48.9219 1301.67 48.9219C1301.84 48.9219 1302.07 48.8906 1302.36 48.8281V50C1301.98 50.1042 1301.61 50.1562 1301.25 50.1562C1300.6 50.1562 1300.12 49.9609 1299.79 49.5703C1299.46 49.1797 1299.3 48.625 1299.3 47.9062V42.6641H1297.76V41.5469H1299.3V39.5H1300.74Z" fill="white"/>
<path d="M695.688 46.3906C695.547 47.5938 695.102 48.5234 694.352 49.1797C693.607 49.8307 692.615 50.1562 691.375 50.1562C690.031 50.1562 688.953 49.6745 688.141 48.7109C687.333 47.7474 686.93 46.4583 686.93 44.8438V43.75C686.93 42.6927 687.117 41.763 687.492 40.9609C687.872 40.1589 688.409 39.5443 689.102 39.1172C689.794 38.6849 690.596 38.4688 691.508 38.4688C692.716 38.4688 693.685 38.8073 694.414 39.4844C695.143 40.1562 695.568 41.0885 695.688 42.2812H694.18C694.049 41.375 693.766 40.7188 693.328 40.3125C692.896 39.9062 692.289 39.7031 691.508 39.7031C690.549 39.7031 689.797 40.0573 689.25 40.7656C688.708 41.474 688.438 42.4818 688.438 43.7891V44.8906C688.438 46.125 688.695 47.1068 689.211 47.8359C689.727 48.5651 690.448 48.9297 691.375 48.9297C692.208 48.9297 692.846 48.7422 693.289 48.3672C693.737 47.987 694.034 47.3281 694.18 46.3906H695.688ZM697.133 45.6953C697.133 44.8672 697.294 44.1224 697.617 43.4609C697.945 42.7995 698.398 42.2891 698.977 41.9297C699.56 41.5703 700.224 41.3906 700.969 41.3906C702.12 41.3906 703.049 41.7891 703.758 42.5859C704.471 43.3828 704.828 44.4427 704.828 45.7656V45.8672C704.828 46.6901 704.669 47.4297 704.352 48.0859C704.039 48.737 703.589 49.2448 703 49.6094C702.417 49.974 701.745 50.1562 700.984 50.1562C699.839 50.1562 698.909 49.7578 698.195 48.9609C697.487 48.1641 697.133 47.1094 697.133 45.7969V45.6953ZM698.586 45.8672C698.586 46.8047 698.802 47.5573 699.234 48.125C699.672 48.6927 700.255 48.9766 700.984 48.9766C701.719 48.9766 702.302 48.6901 702.734 48.1172C703.167 47.5391 703.383 46.7318 703.383 45.6953C703.383 44.7682 703.161 44.0182 702.719 43.4453C702.281 42.8672 701.698 42.5781 700.969 42.5781C700.255 42.5781 699.68 42.862 699.242 43.4297C698.805 43.9974 698.586 44.8099 698.586 45.8672ZM708 41.5469L708.039 42.4844C708.659 41.7552 709.495 41.3906 710.547 41.3906C711.729 41.3906 712.534 41.8438 712.961 42.75C713.242 42.3438 713.607 42.0156 714.055 41.7656C714.508 41.5156 715.042 41.3906 715.656 41.3906C717.51 41.3906 718.453 42.3724 718.484 44.3359V50H717.039V44.4219C717.039 43.8177 716.901 43.3672 716.625 43.0703C716.349 42.7682 715.885 42.6172 715.234 42.6172C714.698 42.6172 714.253 42.7786 713.898 43.1016C713.544 43.4193 713.339 43.849 713.281 44.3906V50H711.828V44.4609C711.828 43.2318 711.227 42.6172 710.023 42.6172C709.076 42.6172 708.427 43.0208 708.078 43.8281V50H706.633V41.5469H708ZM727.812 45.8672C727.812 47.1536 727.518 48.1901 726.93 48.9766C726.341 49.763 725.544 50.1562 724.539 50.1562C723.513 50.1562 722.706 49.8307 722.117 49.1797V53.25H720.672V41.5469H721.992L722.062 42.4844C722.651 41.7552 723.469 41.3906 724.516 41.3906C725.531 41.3906 726.333 41.7734 726.922 42.5391C727.516 43.3047 727.812 44.3698 727.812 45.7344V45.8672ZM726.367 45.7031C726.367 44.75 726.164 43.9974 725.758 43.4453C725.352 42.8932 724.794 42.6172 724.086 42.6172C723.211 42.6172 722.555 43.0052 722.117 43.7812V47.8203C722.549 48.5911 723.211 48.9766 724.102 48.9766C724.794 48.9766 725.344 48.7031 725.75 48.1562C726.161 47.6042 726.367 46.7865 726.367 45.7031ZM734.875 50C734.792 49.8333 734.724 49.5365 734.672 49.1094C734 49.8073 733.198 50.1562 732.266 50.1562C731.432 50.1562 730.747 49.9219 730.211 49.4531C729.68 48.9792 729.414 48.3802 729.414 47.6562C729.414 46.776 729.747 46.0938 730.414 45.6094C731.086 45.1198 732.029 44.875 733.242 44.875H734.648V44.2109C734.648 43.7057 734.497 43.3047 734.195 43.0078C733.893 42.7057 733.448 42.5547 732.859 42.5547C732.344 42.5547 731.911 42.6849 731.562 42.9453C731.214 43.2057 731.039 43.5208 731.039 43.8906H729.586C729.586 43.4688 729.734 43.0625 730.031 42.6719C730.333 42.276 730.74 41.9635 731.25 41.7344C731.766 41.5052 732.331 41.3906 732.945 41.3906C733.919 41.3906 734.682 41.6354 735.234 42.125C735.786 42.6094 736.073 43.2786 736.094 44.1328V48.0234C736.094 48.7995 736.193 49.4167 736.391 49.875V50H734.875ZM732.477 48.8984C732.93 48.8984 733.359 48.7812 733.766 48.5469C734.172 48.3125 734.466 48.0078 734.648 47.6328V45.8984H733.516C731.745 45.8984 730.859 46.4167 730.859 47.4531C730.859 47.9062 731.01 48.2604 731.312 48.5156C731.615 48.7708 732.003 48.8984 732.477 48.8984ZM739.727 41.5469L739.773 42.6094C740.419 41.7969 741.263 41.3906 742.305 41.3906C744.091 41.3906 744.992 42.3984 745.008 44.4141V50H743.562V44.4062C743.557 43.7969 743.417 43.3464 743.141 43.0547C742.87 42.763 742.445 42.6172 741.867 42.6172C741.398 42.6172 740.987 42.7422 740.633 42.9922C740.279 43.2422 740.003 43.5703 739.805 43.9766V50H738.359V41.5469H739.727ZM749.953 47.8828L751.922 41.5469H753.469L750.07 51.3047C749.544 52.7109 748.708 53.4141 747.562 53.4141L747.289 53.3906L746.75 53.2891V52.1172L747.141 52.1484C747.63 52.1484 748.01 52.0495 748.281 51.8516C748.557 51.6536 748.784 51.2917 748.961 50.7656L749.281 49.9062L746.266 41.5469H747.844L749.953 47.8828Z" fill="white"/>
<path d="M765.852 48.8521C765.913 48.7916 765.964 48.7251 766.009 48.6558L770.66 44.0046C771.113 43.5507 771.114 42.8148 770.66 42.3606C770.206 41.9071 769.47 41.9067 769.016 42.3606L765.01 46.3663L760.984 42.3404C760.53 41.8866 759.794 41.8864 759.34 42.3404C759.113 42.5677 759 42.8649 759 43.1622C759 43.4596 759.113 43.7571 759.341 43.9835L764.012 48.6556C764.056 48.7251 764.108 48.7914 764.169 48.8521C764.401 49.0842 764.706 49.1959 765.01 49.1905C765.314 49.1961 765.62 49.0842 765.852 48.8521Z" fill="white"/>
<path d="M1079.21 44.7109L1077.82 46.1562V50H1076.32V38.625H1077.82V44.25L1082.88 38.625H1084.69L1080.21 43.6484L1085.04 50H1083.24L1079.21 44.7109ZM1087.3 41.5469L1087.35 42.6094C1088 41.7969 1088.84 41.3906 1089.88 41.3906C1091.67 41.3906 1092.57 42.3984 1092.59 44.4141V50H1091.14V44.4062C1091.14 43.7969 1090.99 43.3464 1090.72 43.0547C1090.45 42.763 1090.02 42.6172 1089.45 42.6172C1088.98 42.6172 1088.57 42.7422 1088.21 42.9922C1087.86 43.2422 1087.58 43.5703 1087.38 43.9766V50H1085.94V41.5469H1087.3ZM1094.38 45.6953C1094.38 44.8672 1094.54 44.1224 1094.87 43.4609C1095.2 42.7995 1095.65 42.2891 1096.23 41.9297C1096.81 41.5703 1097.47 41.3906 1098.22 41.3906C1099.37 41.3906 1100.3 41.7891 1101.01 42.5859C1101.72 43.3828 1102.08 44.4427 1102.08 45.7656V45.8672C1102.08 46.6901 1101.92 47.4297 1101.6 48.0859C1101.29 48.737 1100.84 49.2448 1100.25 49.6094C1099.67 49.974 1098.99 50.1562 1098.23 50.1562C1097.09 50.1562 1096.16 49.7578 1095.45 48.9609C1094.74 48.1641 1094.38 47.1094 1094.38 45.7969V45.6953ZM1095.84 45.8672C1095.84 46.8047 1096.05 47.5573 1096.48 48.125C1096.92 48.6927 1097.51 48.9766 1098.23 48.9766C1098.97 48.9766 1099.55 48.6901 1099.98 48.1172C1100.42 47.5391 1100.63 46.7318 1100.63 45.6953C1100.63 44.7682 1100.41 44.0182 1099.97 43.4453C1099.53 42.8672 1098.95 42.5781 1098.22 42.5781C1097.51 42.5781 1096.93 42.862 1096.49 43.4297C1096.05 43.9974 1095.84 44.8099 1095.84 45.8672ZM1111.38 48.0078L1113 41.5469H1114.45L1111.98 50H1110.81L1108.76 43.5938L1106.76 50H1105.59L1103.13 41.5469H1104.57L1106.23 47.875L1108.2 41.5469H1109.37L1111.38 48.0078ZM1117.49 50H1116.05V38H1117.49V50ZM1123.32 50.1562C1122.17 50.1562 1121.24 49.7812 1120.52 49.0312C1119.8 48.276 1119.45 47.2682 1119.45 46.0078V45.7422C1119.45 44.9036 1119.6 44.1562 1119.92 43.5C1120.24 42.8385 1120.69 42.3229 1121.27 41.9531C1121.84 41.5781 1122.47 41.3906 1123.14 41.3906C1124.24 41.3906 1125.09 41.7526 1125.7 42.4766C1126.31 43.2005 1126.62 44.237 1126.62 45.5859V46.1875H1120.89C1120.91 47.0208 1121.15 47.6953 1121.62 48.2109C1122.09 48.7214 1122.68 48.9766 1123.4 48.9766C1123.91 48.9766 1124.34 48.8724 1124.7 48.6641C1125.05 48.4557 1125.36 48.1797 1125.62 47.8359L1126.51 48.5234C1125.8 49.612 1124.74 50.1562 1123.32 50.1562ZM1123.14 42.5781C1122.56 42.5781 1122.07 42.7917 1121.67 43.2188C1121.28 43.6406 1121.03 44.2344 1120.94 45H1125.17V44.8906C1125.13 44.1562 1124.93 43.5885 1124.58 43.1875C1124.22 42.7812 1123.74 42.5781 1123.14 42.5781ZM1127.95 45.7031C1127.95 44.4062 1128.25 43.3646 1128.87 42.5781C1129.48 41.7865 1130.29 41.3906 1131.28 41.3906C1132.27 41.3906 1133.05 41.7292 1133.63 42.4062V38H1135.08V50H1133.75L1133.68 49.0938C1133.1 49.8021 1132.3 50.1562 1131.27 50.1562C1130.29 50.1562 1129.49 49.7552 1128.87 48.9531C1128.25 48.151 1127.95 47.1042 1127.95 45.8125V45.7031ZM1129.39 45.8672C1129.39 46.8255 1129.59 47.5755 1129.98 48.1172C1130.38 48.6589 1130.93 48.9297 1131.62 48.9297C1132.54 48.9297 1133.21 48.5182 1133.63 47.6953V43.8125C1133.2 43.0156 1132.54 42.6172 1131.64 42.6172C1130.93 42.6172 1130.38 42.8906 1129.98 43.4375C1129.59 43.9844 1129.39 44.7943 1129.39 45.8672ZM1136.98 45.7031C1136.98 44.3854 1137.29 43.3385 1137.9 42.5625C1138.51 41.7812 1139.32 41.3906 1140.32 41.3906C1141.35 41.3906 1142.16 41.7552 1142.73 42.4844L1142.8 41.5469H1144.12V49.7969C1144.12 50.8906 1143.8 51.7526 1143.15 52.3828C1142.5 53.013 1141.63 53.3281 1140.54 53.3281C1139.93 53.3281 1139.33 53.1979 1138.75 52.9375C1138.17 52.6771 1137.72 52.3203 1137.41 51.8672L1138.16 51C1138.78 51.7656 1139.54 52.1484 1140.44 52.1484C1141.14 52.1484 1141.69 51.9505 1142.08 51.5547C1142.47 51.1589 1142.67 50.6016 1142.67 49.8828V49.1562C1142.09 49.8229 1141.3 50.1562 1140.3 50.1562C1139.32 50.1562 1138.51 49.7578 1137.9 48.9609C1137.29 48.1641 1136.98 47.0781 1136.98 45.7031ZM1138.44 45.8672C1138.44 46.8203 1138.63 47.5703 1139.02 48.1172C1139.41 48.6589 1139.96 48.9297 1140.66 48.9297C1141.58 48.9297 1142.24 48.5156 1142.67 47.6875V43.8281C1142.23 43.0208 1141.57 42.6172 1140.68 42.6172C1139.98 42.6172 1139.43 42.8906 1139.03 43.4375C1138.64 43.9844 1138.44 44.7943 1138.44 45.8672ZM1149.82 50.1562C1148.67 50.1562 1147.74 49.7812 1147.02 49.0312C1146.3 48.276 1145.95 47.2682 1145.95 46.0078V45.7422C1145.95 44.9036 1146.1 44.1562 1146.42 43.5C1146.74 42.8385 1147.19 42.3229 1147.77 41.9531C1148.34 41.5781 1148.97 41.3906 1149.64 41.3906C1150.74 41.3906 1151.59 41.7526 1152.2 42.4766C1152.81 43.2005 1153.12 44.237 1153.12 45.5859V46.1875H1147.39C1147.41 47.0208 1147.65 47.6953 1148.12 48.2109C1148.59 48.7214 1149.18 48.9766 1149.9 48.9766C1150.41 48.9766 1150.84 48.8724 1151.2 48.6641C1151.55 48.4557 1151.86 48.1797 1152.12 47.8359L1153.01 48.5234C1152.3 49.612 1151.24 50.1562 1149.82 50.1562ZM1149.64 42.5781C1149.06 42.5781 1148.57 42.7917 1148.17 43.2188C1147.78 43.6406 1147.53 44.2344 1147.44 45H1151.67V44.8906C1151.63 44.1562 1151.43 43.5885 1151.08 43.1875C1150.72 42.7812 1150.24 42.5781 1149.64 42.5781ZM1167.36 46.3906C1167.22 47.5938 1166.77 48.5234 1166.02 49.1797C1165.28 49.8307 1164.29 50.1562 1163.05 50.1562C1161.7 50.1562 1160.62 49.6745 1159.81 48.7109C1159.01 47.7474 1158.6 46.4583 1158.6 44.8438V43.75C1158.6 42.6927 1158.79 41.763 1159.16 40.9609C1159.54 40.1589 1160.08 39.5443 1160.77 39.1172C1161.47 38.6849 1162.27 38.4688 1163.18 38.4688C1164.39 38.4688 1165.36 38.8073 1166.09 39.4844C1166.82 40.1562 1167.24 41.0885 1167.36 42.2812H1165.85C1165.72 41.375 1165.44 40.7188 1165 40.3125C1164.57 39.9062 1163.96 39.7031 1163.18 39.7031C1162.22 39.7031 1161.47 40.0573 1160.92 40.7656C1160.38 41.474 1160.11 42.4818 1160.11 43.7891V44.8906C1160.11 46.125 1160.37 47.1068 1160.88 47.8359C1161.4 48.5651 1162.12 48.9297 1163.05 48.9297C1163.88 48.9297 1164.52 48.7422 1164.96 48.3672C1165.41 47.987 1165.71 47.3281 1165.85 46.3906H1167.36ZM1172.7 50.1562C1171.55 50.1562 1170.62 49.7812 1169.9 49.0312C1169.18 48.276 1168.82 47.2682 1168.82 46.0078V45.7422C1168.82 44.9036 1168.98 44.1562 1169.3 43.5C1169.62 42.8385 1170.07 42.3229 1170.64 41.9531C1171.22 41.5781 1171.84 41.3906 1172.52 41.3906C1173.61 41.3906 1174.47 41.7526 1175.08 42.4766C1175.69 43.2005 1175.99 44.237 1175.99 45.5859V46.1875H1170.27C1170.29 47.0208 1170.53 47.6953 1170.99 48.2109C1171.46 48.7214 1172.05 48.9766 1172.77 48.9766C1173.28 48.9766 1173.72 48.8724 1174.07 48.6641C1174.42 48.4557 1174.73 48.1797 1175 47.8359L1175.88 48.5234C1175.17 49.612 1174.11 50.1562 1172.7 50.1562ZM1172.52 42.5781C1171.93 42.5781 1171.44 42.7917 1171.05 43.2188C1170.65 43.6406 1170.41 44.2344 1170.31 45H1174.55V44.8906C1174.51 44.1562 1174.31 43.5885 1173.95 43.1875C1173.6 42.7812 1173.12 42.5781 1172.52 42.5781ZM1179.04 41.5469L1179.09 42.6094C1179.73 41.7969 1180.58 41.3906 1181.62 41.3906C1183.4 41.3906 1184.3 42.3984 1184.32 44.4141V50H1182.88V44.4062C1182.87 43.7969 1182.73 43.3464 1182.45 43.0547C1182.18 42.763 1181.76 42.6172 1181.18 42.6172C1180.71 42.6172 1180.3 42.7422 1179.95 42.9922C1179.59 43.2422 1179.32 43.5703 1179.12 43.9766V50H1177.67V41.5469H1179.04ZM1188.46 39.5V41.5469H1190.04V42.6641H1188.46V47.9062C1188.46 48.2448 1188.53 48.5 1188.67 48.6719C1188.81 48.8385 1189.05 48.9219 1189.39 48.9219C1189.56 48.9219 1189.79 48.8906 1190.08 48.8281V50C1189.7 50.1042 1189.33 50.1562 1188.97 50.1562C1188.32 50.1562 1187.84 49.9609 1187.51 49.5703C1187.18 49.1797 1187.02 48.625 1187.02 47.9062V42.6641H1185.48V41.5469H1187.02V39.5H1188.46ZM1195.24 50.1562C1194.1 50.1562 1193.16 49.7812 1192.45 49.0312C1191.73 48.276 1191.37 47.2682 1191.37 46.0078V45.7422C1191.37 44.9036 1191.53 44.1562 1191.84 43.5C1192.17 42.8385 1192.61 42.3229 1193.19 41.9531C1193.77 41.5781 1194.39 41.3906 1195.06 41.3906C1196.16 41.3906 1197.02 41.7526 1197.62 42.4766C1198.23 43.2005 1198.54 44.237 1198.54 45.5859V46.1875H1192.81C1192.83 47.0208 1193.08 47.6953 1193.54 48.2109C1194.01 48.7214 1194.6 48.9766 1195.32 48.9766C1195.83 48.9766 1196.26 48.8724 1196.62 48.6641C1196.97 48.4557 1197.28 48.1797 1197.55 47.8359L1198.43 48.5234C1197.72 49.612 1196.66 50.1562 1195.24 50.1562ZM1195.06 42.5781C1194.48 42.5781 1193.99 42.7917 1193.59 43.2188C1193.2 43.6406 1192.95 44.2344 1192.86 45H1197.09V44.8906C1197.05 44.1562 1196.85 43.5885 1196.5 43.1875C1196.15 42.7812 1195.67 42.5781 1195.06 42.5781ZM1204.3 42.8438C1204.09 42.8073 1203.85 42.7891 1203.59 42.7891C1202.65 42.7891 1202 43.1927 1201.66 44V50H1200.22V41.5469H1201.62L1201.65 42.5234C1202.12 41.7682 1202.79 41.3906 1203.66 41.3906C1203.95 41.3906 1204.16 41.4271 1204.3 41.5V42.8438Z" fill="white"/>
<path d="M1216.85 48.8521C1216.91 48.7916 1216.96 48.7251 1217.01 48.6558L1221.66 44.0046C1222.11 43.5507 1222.11 42.8148 1221.66 42.3606C1221.21 41.9071 1220.47 41.9067 1220.02 42.3606L1216.01 46.3663L1211.98 42.3404C1211.53 41.8866 1210.79 41.8864 1210.34 42.3404C1210.11 42.5677 1210 42.8649 1210 43.1622C1210 43.4596 1210.11 43.7571 1210.34 43.9835L1215.01 48.6556C1215.06 48.7251 1215.11 48.7914 1215.17 48.8521C1215.4 49.0842 1215.71 49.1959 1216.01 49.1905C1216.31 49.1961 1216.62 49.0842 1216.85 48.8521Z" fill="white"/>
<defs>
<clipPath id="clip0_10_17947">
<rect width="59.9661" height="58" fill="white" transform="translate(379 16)"/>
</clipPath>
<clipPath id="clip1_10_17947">
<rect width="59.9661" height="58" fill="white" transform="translate(379 16)"/>
</clipPath>
</defs>
</svg>
