<svg width="25" height="10" viewBox="0 0 25 10" fill="none" xmlns="http://www.w3.org/2000/svg">
<path d="M7.69922 9H5.94141L2.51953 3.38672V9H0.761719V0.46875H2.51953L5.94727 6.09375V0.46875H7.69922V9ZM12.041 9.11719C11.1113 9.11719 10.3535 8.83203 9.76758 8.26172C9.18555 7.69141 8.89453 6.93164 8.89453 5.98242V5.81836C8.89453 5.18164 9.01758 4.61328 9.26367 4.11328C9.50977 3.60938 9.85742 3.22266 10.3066 2.95312C10.7598 2.67969 11.2754 2.54297 11.8535 2.54297C12.7207 2.54297 13.4023 2.81641 13.8984 3.36328C14.3984 3.91016 14.6484 4.68555 14.6484 5.68945V6.38086H10.6113C10.666 6.79492 10.8301 7.12695 11.1035 7.37695C11.3809 7.62695 11.7305 7.75195 12.1523 7.75195C12.8047 7.75195 13.3145 7.51562 13.6816 7.04297L14.5137 7.97461C14.2598 8.33398 13.916 8.61523 13.4824 8.81836C13.0488 9.01758 12.5684 9.11719 12.041 9.11719ZM11.8477 3.91406C11.5117 3.91406 11.2383 4.02734 11.0273 4.25391C10.8203 4.48047 10.6875 4.80469 10.6289 5.22656H12.9844V5.0918C12.9766 4.7168 12.875 4.42773 12.6797 4.22461C12.4844 4.01758 12.207 3.91406 11.8477 3.91406ZM18.0293 4.55273L19.0957 2.66016H20.9062L19.1016 5.76562L20.9824 9H19.166L18.0352 7.00781L16.9102 9H15.0879L16.9688 5.76562L15.1699 2.66016H16.9863L18.0293 4.55273ZM23.748 1.10156V2.66016H24.832V3.90234H23.748V7.06641C23.748 7.30078 23.793 7.46875 23.8828 7.57031C23.9727 7.67188 24.1445 7.72266 24.3984 7.72266C24.5859 7.72266 24.752 7.70898 24.8965 7.68164V8.96484C24.5645 9.06641 24.2227 9.11719 23.8711 9.11719C22.6836 9.11719 22.0781 8.51758 22.0547 7.31836V3.90234H21.1289V2.66016H22.0547V1.10156H23.748Z" fill="#0876FF"/>
</svg>
