<svg width="52" height="64" viewBox="0 0 52 64" fill="none" xmlns="http://www.w3.org/2000/svg">
<path d="M40.403 0H0.933594V64H51.0684V10.6653L40.403 0Z" fill="#E8E8E8"/>
<path d="M42.5539 31.6498C41.7849 30.2792 39.1277 29.8486 37.9087 29.6548C36.9478 29.502 35.9668 29.4564 34.995 29.4572C34.2319 29.4521 33.48 29.4897 32.7378 29.5319C32.4642 29.5503 32.1934 29.5739 31.9228 29.5974C31.6454 29.3103 31.3773 29.0137 31.1179 28.7104C29.4672 26.7563 28.1343 24.5403 27.0483 22.2375C27.3366 21.1248 27.5674 19.9636 27.7067 18.7577C27.961 16.5566 28.0484 14.0483 27.2237 11.9498C26.9389 11.2256 26.1797 10.3438 25.3036 10.7829C24.2965 11.2878 24.0132 12.7184 23.9311 13.7325C23.8651 14.5521 23.9113 15.3739 24.0489 16.1798C24.1891 16.9913 24.4147 17.7618 24.6604 18.5312C24.8897 19.2366 25.1424 19.9366 25.4178 20.63C25.243 21.1759 25.0575 21.7123 24.8627 22.235C24.4084 23.4261 23.9172 24.5578 23.4448 25.6464C23.1957 26.1862 22.9519 26.7145 22.7133 27.231C21.9585 28.8892 21.139 30.5169 20.2193 32.0903C18.074 32.8471 16.1489 33.7244 14.5501 34.7554C13.6924 35.3095 12.9348 35.9113 12.3039 36.5714C11.7082 37.1945 11.1028 38.0032 11.0498 38.8984C11.02 39.4038 11.2201 39.8941 11.6341 40.1939C12.2034 40.6192 12.9578 40.5909 13.6183 40.4525C15.782 39.9986 17.4435 38.1387 18.8584 36.5711C19.833 35.4914 20.9423 34.1204 22.1027 32.4623C22.1052 32.4585 22.1077 32.4547 22.1105 32.4509C24.1006 31.8339 26.2666 31.3129 28.5654 30.93C29.6156 30.7558 30.6936 30.6133 31.7932 30.5133C32.5664 31.2375 33.4019 31.897 34.3134 32.4477C35.0233 32.8845 35.7783 33.2532 36.5687 33.5283C37.3678 33.7894 38.1719 34.0026 39.0021 34.1375C39.4213 34.1974 39.8501 34.2247 40.2881 34.2082C41.2656 34.1713 42.6687 33.7964 42.7608 32.6103C42.7891 32.2472 42.7108 31.9289 42.5539 31.6498ZM19.1506 33.8261C18.6927 34.5354 18.2511 35.1733 17.8351 35.7346C16.8161 37.121 15.6524 38.7678 13.9675 39.3835C13.6474 39.5005 13.2261 39.6212 12.782 39.595C12.3864 39.5718 11.9963 39.3972 12.0142 38.948C12.0231 38.7129 12.1382 38.4129 12.3146 38.1182C12.5078 37.7951 12.7469 37.4987 13.0059 37.2262C13.5609 36.6431 14.2626 36.078 15.0698 35.5548C16.3078 34.7516 17.7859 34.0286 19.4334 33.3835C19.3386 33.5334 19.2441 33.6824 19.1506 33.8261ZM24.8969 16.0397C24.7698 15.2979 24.7506 14.5458 24.8287 13.8226C24.8675 13.461 24.9412 13.1081 25.0478 12.7773C25.1381 12.4965 25.3332 11.8113 25.6443 11.7233C26.1573 11.5781 26.315 12.6793 26.373 12.9909C26.7036 14.7632 26.4123 16.7342 26.0156 18.4727C25.9525 18.7492 25.8822 19.0213 25.8102 19.2924C25.6874 18.9544 25.5702 18.6154 25.4624 18.2747C25.2302 17.5306 25.0178 16.7779 24.8969 16.0397ZM28.4185 30.0307C26.4912 30.3431 24.6579 30.7525 22.9346 31.2356C23.1421 31.1776 24.0903 29.3806 24.3018 29.0076C25.2984 27.2524 26.1136 25.4102 26.6994 23.4777C27.7337 25.5233 28.989 27.4803 30.5313 29.2223C30.6733 29.3804 30.8177 29.5366 30.9646 29.6909C30.1004 29.784 29.25 29.8973 28.4185 30.0307ZM41.452 32.4992C41.3815 32.8802 40.5678 33.0981 40.188 33.158C39.0659 33.3345 37.8787 33.1933 36.8047 32.8325C36.0677 32.5851 35.357 32.2482 34.6817 31.8429C34.0105 31.4374 33.3825 30.9604 32.7954 30.4343C33.5193 30.3909 34.2519 30.3624 34.9882 30.3763C35.7245 30.3837 36.4665 30.4208 37.1994 30.5165C38.5738 30.6697 40.1139 31.1415 41.1958 32.0333C41.4087 32.2092 41.4767 32.3645 41.452 32.4992Z" fill="#FB3449"/>
<path d="M42.0535 5.33277H0.933594V0H40.403L42.0535 5.33277Z" fill="#FB3449"/>
<path d="M20.7757 50.9048C20.7757 52.0365 20.4422 52.9104 19.7747 53.5268C19.1073 54.1434 18.1595 54.4516 16.9309 54.4516H16.1619V57.8115H13.4258V47.6836H16.9311C18.2103 47.6836 19.171 47.9631 19.8129 48.5218C20.4549 49.0806 20.7757 49.8749 20.7757 50.9048ZM16.1621 52.221H16.6609C17.0719 52.221 17.3987 52.1057 17.6412 51.8746C17.8838 51.6436 18.005 51.3249 18.005 50.9185C18.005 50.235 17.6263 49.8933 16.8689 49.8933H16.1621V52.221Z" fill="#A4A9AD"/>
<path d="M30.9877 52.5327C30.9877 54.2229 30.5222 55.5254 29.5918 56.4398C28.6613 57.3542 27.3529 57.8115 25.6674 57.8115H22.3906V47.6836H25.896C27.5216 47.6836 28.7765 48.0992 29.661 48.9305C30.5452 49.7618 30.9877 50.9627 30.9877 52.5327ZM28.1475 52.6298C28.1475 51.7015 27.9638 51.0135 27.5967 50.5654C27.2297 50.1174 26.672 49.8935 25.9236 49.8935H25.1272V55.567H25.7368C26.5683 55.567 27.1777 55.3257 27.5657 54.8429C27.9535 54.3606 28.1475 53.6228 28.1475 52.6298Z" fill="#A4A9AD"/>
<path d="M35.4975 57.8115H32.8027V47.6836H38.7882V49.8795H35.4975V51.8123H38.5317V54.0083H35.4975V57.8115Z" fill="#A4A9AD"/>
<path d="M40.4023 10.6653H51.0677L40.4023 0V10.6653Z" fill="#D1D3D3"/>
</svg>
