<svg width="176" height="69" viewBox="0 0 176 69" fill="none" xmlns="http://www.w3.org/2000/svg">
<path d="M97.155 15.2466C96.6664 15.8836 95.9892 16.366 95.1233 16.6938C94.2574 17.0216 93.274 17.1855 92.1731 17.1855C91.0413 17.1855 90.0393 16.9289 89.1672 16.4155C88.2952 15.9022 87.621 15.1693 87.1448 14.2168C86.6747 13.2581 86.4304 12.1418 86.4119 10.8677V9.81006C86.4119 7.76904 86.9005 6.17643 87.8777 5.03223C88.8549 3.88184 90.2187 3.30664 91.969 3.30664C93.4719 3.30664 94.6656 3.67773 95.55 4.41992C96.4345 5.16211 96.9664 6.2321 97.1458 7.62988H94.845C94.5852 6.00326 93.642 5.18994 92.0154 5.18994C90.9639 5.18994 90.163 5.57031 89.6125 6.33105C89.0683 7.08561 88.7869 8.1958 88.7683 9.66162V10.7007C88.7683 12.1603 89.0745 13.2952 89.6868 14.1055C90.3053 14.9095 91.1619 15.3115 92.2566 15.3115C93.4565 15.3115 94.31 15.0394 94.8171 14.4951V11.8511H92.0339V10.0698H97.155V15.2466ZM101.914 17H99.6599V2.75H101.914V17ZM103.955 11.8882C103.955 10.9048 104.15 10.0203 104.54 9.23486C104.929 8.4432 105.477 7.83708 106.182 7.4165C106.887 6.98975 107.697 6.77637 108.613 6.77637C109.967 6.77637 111.065 7.2124 111.906 8.08447C112.753 8.95654 113.211 10.1131 113.279 11.5542L113.288 12.083C113.288 13.0726 113.097 13.957 112.713 14.7363C112.336 15.5156 111.792 16.1187 111.08 16.5454C110.375 16.9722 109.559 17.1855 108.631 17.1855C107.215 17.1855 106.08 16.7155 105.226 15.7754C104.379 14.8291 103.955 13.5705 103.955 11.9995V11.8882ZM106.21 12.083C106.21 13.1159 106.423 13.9261 106.85 14.5137C107.277 15.0951 107.87 15.3857 108.631 15.3857C109.392 15.3857 109.983 15.0889 110.403 14.4951C110.83 13.9014 111.043 13.0324 111.043 11.8882C111.043 10.8739 110.824 10.0698 110.385 9.47607C109.952 8.88232 109.361 8.58545 108.613 8.58545C107.877 8.58545 107.292 8.87923 106.859 9.4668C106.426 10.0482 106.21 10.9202 106.21 12.083ZM124.004 12.083C124.004 13.6416 123.654 14.8817 122.955 15.8032C122.263 16.7248 121.307 17.1855 120.089 17.1855C118.913 17.1855 117.998 16.7619 117.343 15.9146L117.231 17H115.19V2.75H117.445V7.92676C118.094 7.15983 118.969 6.77637 120.07 6.77637C121.295 6.77637 122.256 7.23096 122.955 8.14014C123.654 9.04932 124.004 10.3203 124.004 11.9531V12.083ZM121.749 11.8882C121.749 10.7996 121.558 9.98324 121.174 9.43896C120.791 8.89469 120.234 8.62256 119.504 8.62256C118.527 8.62256 117.84 9.04932 117.445 9.90283V14.0405C117.847 14.9126 118.539 15.3486 119.523 15.3486C120.228 15.3486 120.772 15.0858 121.156 14.5601C121.539 14.0343 121.737 13.2396 121.749 12.1758V11.8882ZM131.899 17C131.8 16.8083 131.713 16.4959 131.639 16.063C130.921 16.8114 130.043 17.1855 129.004 17.1855C127.996 17.1855 127.173 16.8979 126.536 16.3228C125.899 15.7476 125.581 15.0363 125.581 14.189C125.581 13.119 125.977 12.2995 126.768 11.7305C127.566 11.1553 128.704 10.8677 130.182 10.8677H131.565V10.209C131.565 9.68945 131.419 9.27507 131.129 8.96582C130.838 8.65039 130.396 8.49268 129.802 8.49268C129.289 8.49268 128.868 8.62256 128.54 8.88232C128.212 9.1359 128.049 9.46061 128.049 9.85645H125.794C125.794 9.30599 125.977 8.79264 126.342 8.31641C126.706 7.83398 127.201 7.45671 127.826 7.18457C128.457 6.91243 129.159 6.77637 129.932 6.77637C131.107 6.77637 132.044 7.07324 132.743 7.66699C133.442 8.25456 133.801 9.08333 133.819 10.1533V14.6807C133.819 15.5837 133.946 16.3042 134.199 16.8423V17H131.899ZM129.422 15.3765C129.867 15.3765 130.284 15.2682 130.674 15.0518C131.07 14.8353 131.367 14.5446 131.565 14.1797V12.2871H130.349C129.514 12.2871 128.887 12.4325 128.466 12.7231C128.045 13.0138 127.835 13.4251 127.835 13.957C127.835 14.39 127.977 14.7363 128.262 14.9961C128.553 15.2497 128.939 15.3765 129.422 15.3765ZM138.578 17H136.324V2.75H138.578V17ZM91.7649 33.7954H89.1487V39H86.8015V25.4922H91.5515C93.1101 25.4922 94.3131 25.8416 95.1604 26.5405C96.0077 27.2394 96.4314 28.2507 96.4314 29.5742C96.4314 30.4772 96.2118 31.2349 95.7727 31.8472C95.3398 32.4533 94.7336 32.9202 93.9543 33.248L96.988 38.8794V39H94.4739L91.7649 33.7954ZM89.1487 31.9121H91.5608C92.3525 31.9121 92.9709 31.7142 93.4163 31.3184C93.8616 30.9163 94.0842 30.369 94.0842 29.6763C94.0842 28.9526 93.877 28.3929 93.4626 27.9971C93.0544 27.6012 92.4421 27.3971 91.6257 27.3848H89.1487V31.9121ZM102.861 39.1855C101.432 39.1855 100.272 38.7371 99.3816 37.8403C98.4972 36.9373 98.0549 35.7375 98.0549 34.2407V33.9624C98.0549 32.9604 98.2467 32.0667 98.6301 31.2812C99.0198 30.4896 99.564 29.8742 100.263 29.4351C100.962 28.9959 101.741 28.7764 102.601 28.7764C103.968 28.7764 105.022 29.2124 105.764 30.0845C106.513 30.9565 106.887 32.1904 106.887 33.7861V34.6953H100.328C100.396 35.5241 100.671 36.1797 101.154 36.6621C101.642 37.1445 102.254 37.3857 102.99 37.3857C104.023 37.3857 104.865 36.9683 105.514 36.1333L106.729 37.293C106.327 37.8929 105.789 38.3599 105.115 38.6938C104.447 39.0216 103.696 39.1855 102.861 39.1855ZM102.592 30.5854C101.973 30.5854 101.472 30.8019 101.089 31.2349C100.711 31.6678 100.47 32.2708 100.365 33.0439H104.66V32.877C104.611 32.1224 104.41 31.5534 104.057 31.1699C103.705 30.7803 103.216 30.5854 102.592 30.5854ZM112.769 37.3857C113.332 37.3857 113.799 37.2218 114.17 36.894C114.541 36.5662 114.739 36.1611 114.763 35.6787H116.888C116.863 36.3034 116.668 36.8879 116.303 37.4321C115.939 37.9702 115.444 38.397 114.819 38.7124C114.194 39.0278 113.52 39.1855 112.797 39.1855C111.393 39.1855 110.279 38.731 109.457 37.8218C108.634 36.9126 108.223 35.6571 108.223 34.0552V33.8232C108.223 32.2956 108.631 31.0741 109.448 30.1587C110.264 29.2371 111.377 28.7764 112.787 28.7764C113.981 28.7764 114.952 29.1258 115.7 29.8247C116.455 30.5174 116.851 31.4297 116.888 32.5615H114.763C114.739 31.9863 114.541 31.5132 114.17 31.1421C113.805 30.771 113.338 30.5854 112.769 30.5854C112.039 30.5854 111.476 30.8514 111.08 31.3833C110.684 31.909 110.483 32.71 110.477 33.7861V34.1479C110.477 35.2365 110.672 36.0498 111.062 36.5879C111.458 37.1198 112.027 37.3857 112.769 37.3857ZM122.102 35.7715L124.143 28.9619H126.546L122.556 40.5215C121.944 42.21 120.905 43.0542 119.439 43.0542C119.111 43.0542 118.75 42.9985 118.354 42.8872V41.1431L118.781 41.1709C119.35 41.1709 119.776 41.0658 120.061 40.8555C120.351 40.6514 120.58 40.305 120.747 39.8164L121.072 38.9536L117.547 28.9619H119.977L122.102 35.7715ZM131.843 37.3857C132.406 37.3857 132.873 37.2218 133.244 36.894C133.615 36.5662 133.813 36.1611 133.838 35.6787H135.962C135.937 36.3034 135.743 36.8879 135.378 37.4321C135.013 37.9702 134.518 38.397 133.893 38.7124C133.269 39.0278 132.594 39.1855 131.871 39.1855C130.467 39.1855 129.354 38.731 128.531 37.8218C127.708 36.9126 127.297 35.6571 127.297 34.0552V33.8232C127.297 32.2956 127.705 31.0741 128.522 30.1587C129.338 29.2371 130.451 28.7764 131.862 28.7764C133.055 28.7764 134.026 29.1258 134.775 29.8247C135.529 30.5174 135.925 31.4297 135.962 32.5615H133.838C133.813 31.9863 133.615 31.5132 133.244 31.1421C132.879 30.771 132.412 30.5854 131.843 30.5854C131.113 30.5854 130.55 30.8514 130.155 31.3833C129.759 31.909 129.558 32.71 129.552 33.7861V34.1479C129.552 35.2365 129.746 36.0498 130.136 36.5879C130.532 37.1198 131.101 37.3857 131.843 37.3857ZM140.063 39H137.808V24.75H140.063V39ZM144.924 39H142.67V28.9619H144.924V39ZM142.531 26.355C142.531 26.0086 142.639 25.721 142.855 25.4922C143.078 25.2633 143.393 25.1489 143.802 25.1489C144.21 25.1489 144.525 25.2633 144.748 25.4922C144.97 25.721 145.082 26.0086 145.082 26.355C145.082 26.6951 144.97 26.9797 144.748 27.2085C144.525 27.4312 144.21 27.5425 143.802 27.5425C143.393 27.5425 143.078 27.4312 142.855 27.2085C142.639 26.9797 142.531 26.6951 142.531 26.355ZM149.479 28.9619L149.544 30.1216C150.286 29.2248 151.26 28.7764 152.467 28.7764C154.557 28.7764 155.621 29.9731 155.658 32.3667V39H153.404V32.4966C153.404 31.8595 153.264 31.3895 152.986 31.0864C152.714 30.7772 152.266 30.6226 151.641 30.6226C150.732 30.6226 150.054 31.0339 149.609 31.8564V39H147.355V28.9619H149.479ZM157.569 33.9067C157.569 32.3481 157.934 31.105 158.664 30.1772C159.4 29.2433 160.374 28.7764 161.586 28.7764C162.73 28.7764 163.63 29.1753 164.286 29.9731L164.388 28.9619H166.42V38.6938C166.42 40.0112 166.008 41.0503 165.186 41.811C164.369 42.5718 163.265 42.9521 161.874 42.9521C161.138 42.9521 160.417 42.7975 159.712 42.4883C159.013 42.1852 158.481 41.7863 158.116 41.2915L159.183 39.937C159.876 40.7596 160.73 41.1709 161.744 41.1709C162.492 41.1709 163.083 40.9668 163.516 40.5586C163.949 40.1566 164.165 39.5628 164.165 38.7773V38.1001C163.516 38.8237 162.65 39.1855 161.568 39.1855C160.392 39.1855 159.431 38.7186 158.682 37.7847C157.94 36.8507 157.569 35.5581 157.569 33.9067ZM159.814 34.1016C159.814 35.1097 160.018 35.9045 160.427 36.4858C160.841 37.061 161.413 37.3486 162.143 37.3486C163.052 37.3486 163.726 36.959 164.165 36.1797V31.7637C163.739 31.0029 163.071 30.6226 162.161 30.6226C161.419 30.6226 160.841 30.9163 160.427 31.5039C160.018 32.0915 159.814 32.9574 159.814 34.1016ZM89.8445 47.4922L93.741 57.8457L97.6282 47.4922H100.662V61H98.324V56.5469L98.5559 50.5908L94.5667 61H92.8875L88.9075 50.6001L89.1394 56.5469V61H86.8015V47.4922H89.8445ZM109.225 61C109.126 60.8083 109.039 60.4959 108.965 60.063C108.248 60.8114 107.369 61.1855 106.33 61.1855C105.322 61.1855 104.5 60.8979 103.863 60.3228C103.226 59.7476 102.907 59.0363 102.907 58.189C102.907 57.119 103.303 56.2995 104.094 55.7305C104.892 55.1553 106.03 54.8677 107.509 54.8677H108.891V54.209C108.891 53.6895 108.746 53.2751 108.455 52.9658C108.164 52.6504 107.722 52.4927 107.128 52.4927C106.615 52.4927 106.194 52.6226 105.866 52.8823C105.539 53.1359 105.375 53.4606 105.375 53.8564H103.12C103.12 53.306 103.303 52.7926 103.668 52.3164C104.033 51.834 104.527 51.4567 105.152 51.1846C105.783 50.9124 106.485 50.7764 107.258 50.7764C108.433 50.7764 109.37 51.0732 110.069 51.667C110.768 52.2546 111.127 53.0833 111.145 54.1533V58.6807C111.145 59.5837 111.272 60.3042 111.526 60.8423V61H109.225ZM106.748 59.3765C107.193 59.3765 107.611 59.2682 108 59.0518C108.396 58.8353 108.693 58.5446 108.891 58.1797V56.2871H107.676C106.841 56.2871 106.213 56.4325 105.792 56.7231C105.372 57.0138 105.161 57.4251 105.161 57.957C105.161 58.39 105.304 58.7363 105.588 58.9961C105.879 59.2497 106.265 59.3765 106.748 59.3765ZM118.762 53.0215C118.465 52.972 118.159 52.9473 117.844 52.9473C116.811 52.9473 116.115 53.3431 115.756 54.1348V61H113.502V50.9619H115.654L115.71 52.0845C116.254 51.2124 117.009 50.7764 117.973 50.7764C118.295 50.7764 118.561 50.8197 118.771 50.9062L118.762 53.0215ZM123.447 56.6953L122.445 57.7251V61H120.191V46.75H122.445V54.9697L123.15 54.0884L125.924 50.9619H128.633L124.904 55.146L129.032 61H126.425L123.447 56.6953ZM134.348 61.1855C132.919 61.1855 131.76 60.7371 130.869 59.8403C129.984 58.9373 129.542 57.7375 129.542 56.2407V55.9624C129.542 54.9604 129.734 54.0667 130.117 53.2812C130.507 52.4896 131.051 51.8742 131.75 51.4351C132.449 50.9959 133.228 50.7764 134.088 50.7764C135.455 50.7764 136.51 51.2124 137.252 52.0845C138 52.9565 138.374 54.1904 138.374 55.7861V56.6953H131.815C131.883 57.5241 132.158 58.1797 132.641 58.6621C133.129 59.1445 133.742 59.3857 134.478 59.3857C135.511 59.3857 136.352 58.9683 137.001 58.1333L138.217 59.293C137.815 59.8929 137.276 60.3599 136.602 60.6938C135.934 61.0216 135.183 61.1855 134.348 61.1855ZM134.079 52.5854C133.46 52.5854 132.959 52.8019 132.576 53.2349C132.199 53.6678 131.957 54.2708 131.852 55.0439H136.148V54.877C136.098 54.1224 135.897 53.5534 135.545 53.1699C135.192 52.7803 134.704 52.5854 134.079 52.5854ZM142.957 48.522V50.9619H144.729V52.6318H142.957V58.2354C142.957 58.6188 143.031 58.8971 143.18 59.0703C143.335 59.2373 143.607 59.3208 143.996 59.3208C144.256 59.3208 144.519 59.2899 144.785 59.228V60.9722C144.272 61.1144 143.777 61.1855 143.301 61.1855C141.569 61.1855 140.703 60.23 140.703 58.3188V52.6318H139.052V50.9619H140.703V48.522H142.957Z" fill="#343750"/>
<path d="M26.0381 1.4187L14.3745 21.6188L26.8235 28.8076L33.1228 17.898L42.6364 1.4187H26.0381Z" fill="#8CC153"/>
<path d="M42.6407 1.4187H26.0413L38.1849 22.4547L33.2375 25.3122L41.7057 27.06L50.1749 28.8098L52.8954 20.6017L55.6161 12.3916L50.6339 15.2679L42.6407 1.4187Z" fill="#A0D468"/>
<path d="M8.30065 61.7905H31.6267V47.417H19.0292H0.00195312L8.30065 61.7905Z" fill="#8CC153"/>
<path d="M0 47.4127L8.29964 61.7904L20.4444 40.7545L25.3927 43.6097L22.6733 35.4008L19.9537 27.1925L11.4846 28.9425L3.01536 30.6923L7.99539 33.5666L0 47.4127Z" fill="#A0D468"/>
<path opacity="0.1" d="M22.3468 47.417L8.29956 61.3401V61.7905L16.5972 47.417H22.3468Z" fill="black"/>
<path d="M68.9999 47.4548L57.3384 27.2537L44.8894 34.4425L51.1854 45.3532L60.6991 61.8283L68.9999 47.4548Z" fill="#8CC153"/>
<path d="M60.6993 61.8325L68.9979 47.459H44.7085V41.7442L38.96 48.2044L33.2092 54.6649L38.96 61.1251L44.7085 67.5812V61.8325H60.6993Z" fill="#A0D468"/>
<path opacity="0.1" d="M49.5264 42.4771L68.6083 47.6824L68.9978 47.455H52.4027L49.5264 42.4771Z" fill="black"/>
<path opacity="0.1" d="M31.4636 20.7721L26.4287 1.64388L26.0403 1.42077L34.3378 15.7922L31.4636 20.7721Z" fill="black"/>
</svg>
