<svg width="1920" height="949" viewBox="0 0 1920 949" fill="none" xmlns="http://www.w3.org/2000/svg">
<rect y="99" width="1920" height="794" fill="#004457"/>
<circle cx="406" cy="264" r="31" fill="#003A4A"/>
<circle cx="248.5" cy="224.5" r="8.5" fill="white" fill-opacity="0.12"/>
<circle cx="248.5" cy="197.5" r="8.5" fill="white" fill-opacity="0.12"/>
<circle cx="248.5" cy="170.5" r="8.5" fill="white" fill-opacity="0.12"/>
<circle cx="248.5" cy="143.5" r="8.5" fill="white" fill-opacity="0.12"/>
<circle cx="248.5" cy="116.5" r="8.5" fill="white" fill-opacity="0.12"/>
<circle cx="248.5" cy="89.5" r="8.5" fill="white" fill-opacity="0.12"/>
<circle cx="248.5" cy="62.5" r="8.5" fill="white" fill-opacity="0.12"/>
<circle cx="248.5" cy="35.5" r="8.5" fill="white" fill-opacity="0.12"/>
<circle cx="248.5" cy="8.5" r="8.5" fill="white" fill-opacity="0.12"/>
<circle cx="275.5" cy="224.5" r="8.5" fill="white" fill-opacity="0.12"/>
<circle cx="275.5" cy="197.5" r="8.5" fill="white" fill-opacity="0.12"/>
<circle cx="275.5" cy="170.5" r="8.5" fill="white" fill-opacity="0.12"/>
<circle cx="275.5" cy="143.5" r="8.5" fill="white" fill-opacity="0.12"/>
<circle cx="275.5" cy="116.5" r="8.5" fill="white" fill-opacity="0.12"/>
<circle cx="275.5" cy="89.5" r="8.5" fill="white" fill-opacity="0.12"/>
<circle cx="275.5" cy="62.5" r="8.5" fill="white" fill-opacity="0.12"/>
<circle cx="275.5" cy="35.5" r="8.5" fill="white" fill-opacity="0.12"/>
<circle cx="275.5" cy="8.5" r="8.5" fill="white" fill-opacity="0.12"/>
<circle cx="302.5" cy="224.5" r="8.5" fill="white" fill-opacity="0.12"/>
<circle cx="302.5" cy="197.5" r="8.5" fill="white" fill-opacity="0.12"/>
<circle cx="302.5" cy="170.5" r="8.5" fill="white" fill-opacity="0.12"/>
<circle cx="302.5" cy="143.5" r="8.5" fill="white" fill-opacity="0.12"/>
<circle cx="302.5" cy="116.5" r="8.5" fill="white" fill-opacity="0.12"/>
<circle cx="302.5" cy="89.5" r="8.5" fill="white" fill-opacity="0.12"/>
<circle cx="302.5" cy="62.5" r="8.5" fill="white" fill-opacity="0.12"/>
<circle cx="302.5" cy="35.5" r="8.5" fill="white" fill-opacity="0.12"/>
<circle cx="302.5" cy="8.5" r="8.5" fill="white" fill-opacity="0.12"/>
<circle cx="1624.5" cy="940.5" r="8.5" fill="white" fill-opacity="0.12"/>
<circle cx="1624.5" cy="913.5" r="8.5" fill="white" fill-opacity="0.12"/>
<circle cx="1624.5" cy="886.5" r="8.5" fill="white" fill-opacity="0.12"/>
<circle cx="1624.5" cy="859.5" r="8.5" fill="white" fill-opacity="0.12"/>
<circle cx="1624.5" cy="832.5" r="8.5" fill="white" fill-opacity="0.12"/>
<circle cx="1624.5" cy="805.5" r="8.5" fill="white" fill-opacity="0.12"/>
<circle cx="1624.5" cy="778.5" r="8.5" fill="white" fill-opacity="0.12"/>
<circle cx="1624.5" cy="751.5" r="8.5" fill="white" fill-opacity="0.12"/>
<circle cx="1624.5" cy="724.5" r="8.5" fill="white" fill-opacity="0.12"/>
<circle cx="1651.5" cy="940.5" r="8.5" fill="white" fill-opacity="0.12"/>
<circle cx="1651.5" cy="913.5" r="8.5" fill="white" fill-opacity="0.12"/>
<circle cx="1651.5" cy="886.5" r="8.5" fill="white" fill-opacity="0.12"/>
<circle cx="1651.5" cy="859.5" r="8.5" fill="white" fill-opacity="0.12"/>
<circle cx="1651.5" cy="832.5" r="8.5" fill="white" fill-opacity="0.12"/>
<circle cx="1651.5" cy="805.5" r="8.5" fill="white" fill-opacity="0.12"/>
<circle cx="1651.5" cy="778.5" r="8.5" fill="white" fill-opacity="0.12"/>
<circle cx="1651.5" cy="751.5" r="8.5" fill="white" fill-opacity="0.12"/>
<circle cx="1651.5" cy="724.5" r="8.5" fill="white" fill-opacity="0.12"/>
<circle cx="1678.5" cy="940.5" r="8.5" fill="white" fill-opacity="0.12"/>
<circle cx="1678.5" cy="913.5" r="8.5" fill="white" fill-opacity="0.12"/>
<circle cx="1678.5" cy="886.5" r="8.5" fill="white" fill-opacity="0.12"/>
<circle cx="1678.5" cy="859.5" r="8.5" fill="white" fill-opacity="0.12"/>
<circle cx="1678.5" cy="832.5" r="8.5" fill="white" fill-opacity="0.12"/>
<circle cx="1678.5" cy="805.5" r="8.5" fill="white" fill-opacity="0.12"/>
<circle cx="1678.5" cy="778.5" r="8.5" fill="white" fill-opacity="0.12"/>
<circle cx="1678.5" cy="751.5" r="8.5" fill="white" fill-opacity="0.12"/>
<circle cx="1678.5" cy="724.5" r="8.5" fill="white" fill-opacity="0.12"/>
</svg>
