<svg width="182" height="52" viewBox="0 0 182 52" fill="none" xmlns="http://www.w3.org/2000/svg">
<path d="M5.158 12.154C4.654 12.154 4.20133 12.112 3.8 12.028C3.39867 11.944 2.95067 11.832 2.456 11.692C2.12933 11.5987 1.91 11.5473 1.798 11.538L1.924 8.948H3.058L3.366 10.754C3.48733 10.8847 3.702 11.0013 4.01 11.104C4.32733 11.2067 4.68667 11.258 5.088 11.258C5.71333 11.258 6.18 11.1227 6.488 10.852C6.80533 10.572 6.964 10.1847 6.964 9.69C6.964 9.36333 6.87067 9.08333 6.684 8.85C6.49733 8.60733 6.24067 8.39267 5.914 8.206C5.58733 8.01 5.13933 7.786 4.57 7.534C3.79533 7.17933 3.15133 6.75933 2.638 6.274C2.134 5.77933 1.882 5.112 1.882 4.272C1.882 3.74933 2.01733 3.278 2.288 2.858C2.55867 2.42867 2.96 2.09267 3.492 1.85C4.03333 1.598 4.69133 1.472 5.466 1.472C5.92333 1.472 6.32467 1.50467 6.67 1.57C7.02467 1.63533 7.40733 1.724 7.818 1.836C8.06067 1.90133 8.24267 1.94333 8.364 1.962L8.28 4.412H7.16L6.866 2.69C6.782 2.606 6.614 2.52667 6.362 2.452C6.11 2.368 5.83 2.326 5.522 2.326C4.962 2.326 4.53733 2.45667 4.248 2.718C3.968 2.97 3.828 3.31067 3.828 3.74C3.828 4.08533 3.93067 4.384 4.136 4.636C4.35067 4.888 4.60733 5.10267 4.906 5.28C5.20467 5.448 5.676 5.69067 6.32 6.008C6.84267 6.26 7.29067 6.50733 7.664 6.75C8.03733 6.99267 8.35933 7.31 8.63 7.702C8.90067 8.08467 9.036 8.53733 9.036 9.06C9.036 9.57333 8.90533 10.0633 8.644 10.53C8.392 10.9967 7.972 11.384 7.384 11.692C6.80533 12 6.06333 12.154 5.158 12.154ZM12.4175 12.126C11.8295 12.126 11.3955 11.9907 11.1155 11.72C10.8355 11.4493 10.6955 11.02 10.6955 10.432V5.294H9.78555V4.566C9.86021 4.538 9.99555 4.49133 10.1915 4.426C10.3875 4.35133 10.5369 4.29067 10.6395 4.244C10.7982 4.12267 10.9335 3.91267 11.0455 3.614C11.1295 3.418 11.2835 2.93267 11.5075 2.158H12.6275L12.6835 4.216H14.8255V5.294H12.6975V9.228C12.6975 9.75067 12.7115 10.1193 12.7395 10.334C12.7675 10.5487 12.8282 10.6887 12.9215 10.754C13.0149 10.81 13.1782 10.838 13.4115 10.838C13.6449 10.838 13.8875 10.8147 14.1395 10.768C14.3915 10.712 14.6015 10.6467 14.7695 10.572L15.0355 11.356C14.7742 11.552 14.3915 11.7293 13.8875 11.888C13.3835 12.0467 12.8935 12.126 12.4175 12.126ZM15.7804 8.122C15.7804 7.24467 15.9531 6.498 16.2984 5.882C16.6531 5.266 17.1244 4.804 17.7124 4.496C18.3004 4.17867 18.9397 4.02 19.6304 4.02C20.8064 4.02 21.7117 4.384 22.3464 5.112C22.9904 5.83067 23.3124 6.81067 23.3124 8.052C23.3124 8.93867 23.1351 9.69467 22.7804 10.32C22.4351 10.936 21.9684 11.398 21.3804 11.706C20.8017 12.0047 20.1624 12.154 19.4624 12.154C18.2957 12.154 17.3904 11.7947 16.7464 11.076C16.1024 10.348 15.7804 9.36333 15.7804 8.122ZM19.5744 11.244C20.6291 11.244 21.1564 10.2267 21.1564 8.192C21.1564 7.128 21.0304 6.32067 20.7784 5.77C20.5264 5.21 20.1157 4.93 19.5464 4.93C18.4637 4.93 17.9224 5.94733 17.9224 7.982C17.9224 9.046 18.0531 9.858 18.3144 10.418C18.5851 10.9687 19.0051 11.244 19.5744 11.244ZM24.4031 8.15C24.4031 7.34733 24.5617 6.63333 24.8791 6.008C25.2057 5.38267 25.6677 4.89733 26.2651 4.552C26.8717 4.19733 27.5764 4.02 28.3791 4.02C28.7524 4.02 29.0744 4.048 29.3451 4.104C29.6157 4.16 29.9191 4.23467 30.2551 4.328L30.6611 4.44L30.5771 6.834H29.3591L29.0091 5.294C28.9531 5.05133 28.6777 4.93 28.1831 4.93C27.6604 4.93 27.2497 5.15867 26.9511 5.616C26.6617 6.07333 26.5124 6.78733 26.5031 7.758C26.5031 8.78467 26.6804 9.57333 27.0351 10.124C27.3897 10.6653 27.8611 10.936 28.4491 10.936C29.1584 10.936 29.8117 10.7447 30.4091 10.362L30.7311 11.09C30.4884 11.3513 30.1151 11.594 29.6111 11.818C29.1164 12.042 28.5797 12.154 28.0011 12.154C26.8064 12.154 25.9057 11.7853 25.2991 11.048C24.7017 10.3107 24.4031 9.34467 24.4031 8.15ZM32.4888 1.766L31.4808 1.584V0.827999L34.0568 0.519999H34.0848L34.4628 0.785999V7.436L34.4208 8.178L37.2768 5.182L36.2408 5.028V4.23H39.8948V5.028L38.7608 5.21L37.0388 6.862L39.4888 11.048L40.2588 11.16V12H36.5628V11.16L37.2768 11.034L35.6808 8.08L34.4208 9.354L34.4488 10.068V11.034L35.3308 11.16V12H31.6768V11.16L32.4888 11.034V1.766ZM42.2035 10.852C42.2782 10.964 42.4462 11.0713 42.7075 11.174C42.9782 11.2673 43.2489 11.314 43.5195 11.314C43.9582 11.314 44.2849 11.2253 44.4995 11.048C44.7235 10.8613 44.8355 10.6187 44.8355 10.32C44.8355 10.012 44.7002 9.76467 44.4295 9.578C44.1589 9.382 43.7015 9.144 43.0575 8.864L42.6655 8.696C42.0215 8.42533 41.5409 8.09867 41.2235 7.716C40.9062 7.33333 40.7475 6.83867 40.7475 6.232C40.7475 5.812 40.8735 5.43867 41.1255 5.112C41.3775 4.776 41.7322 4.51467 42.1895 4.328C42.6469 4.14133 43.1742 4.048 43.7715 4.048C44.2102 4.048 44.5835 4.076 44.8915 4.132C45.2089 4.188 45.5402 4.26267 45.8855 4.356C46.0722 4.42133 46.2122 4.45867 46.3055 4.468V6.302H45.1995L44.8775 5.238C44.8215 5.14467 44.6955 5.06067 44.4995 4.986C44.3035 4.91133 44.0795 4.874 43.8275 4.874C43.4449 4.874 43.1369 4.958 42.9035 5.126C42.6795 5.28467 42.5675 5.50867 42.5675 5.798C42.5675 6.05933 42.6469 6.27867 42.8055 6.456C42.9642 6.624 43.1369 6.75467 43.3235 6.848C43.5102 6.94133 43.8555 7.09533 44.3595 7.31C44.8635 7.52467 45.2789 7.73 45.6055 7.926C45.9415 8.122 46.2169 8.37867 46.4315 8.696C46.6555 9.004 46.7675 9.382 46.7675 9.83C46.7675 10.5207 46.4969 11.0807 45.9555 11.51C45.4142 11.9393 44.6349 12.154 43.6175 12.154C43.1415 12.154 42.7122 12.112 42.3295 12.028C41.9562 11.944 41.5222 11.832 41.0275 11.692L40.7195 11.594V9.746H41.8815L42.2035 10.852ZM54.7596 12.154C54.2556 12.154 53.8029 12.112 53.4016 12.028C53.0002 11.944 52.5522 11.832 52.0576 11.692C51.7309 11.5987 51.5116 11.5473 51.3996 11.538L51.5256 8.948H52.6596L52.9676 10.754C53.0889 10.8847 53.3036 11.0013 53.6116 11.104C53.9289 11.2067 54.2882 11.258 54.6896 11.258C55.3149 11.258 55.7816 11.1227 56.0896 10.852C56.4069 10.572 56.5656 10.1847 56.5656 9.69C56.5656 9.36333 56.4722 9.08333 56.2856 8.85C56.0989 8.60733 55.8422 8.39267 55.5156 8.206C55.1889 8.01 54.7409 7.786 54.1716 7.534C53.3969 7.17933 52.7529 6.75933 52.2396 6.274C51.7356 5.77933 51.4836 5.112 51.4836 4.272C51.4836 3.74933 51.6189 3.278 51.8896 2.858C52.1602 2.42867 52.5616 2.09267 53.0936 1.85C53.6349 1.598 54.2929 1.472 55.0676 1.472C55.5249 1.472 55.9262 1.50467 56.2716 1.57C56.6262 1.63533 57.0089 1.724 57.4196 1.836C57.6622 1.90133 57.8442 1.94333 57.9656 1.962L57.8816 4.412H56.7616L56.4676 2.69C56.3836 2.606 56.2156 2.52667 55.9636 2.452C55.7116 2.368 55.4316 2.326 55.1236 2.326C54.5636 2.326 54.1389 2.45667 53.8496 2.718C53.5696 2.97 53.4296 3.31067 53.4296 3.74C53.4296 4.08533 53.5322 4.384 53.7376 4.636C53.9522 4.888 54.2089 5.10267 54.5076 5.28C54.8062 5.448 55.2776 5.69067 55.9216 6.008C56.4442 6.26 56.8922 6.50733 57.2656 6.75C57.6389 6.99267 57.9609 7.31 58.2316 7.702C58.5022 8.08467 58.6376 8.53733 58.6376 9.06C58.6376 9.57333 58.5069 10.0633 58.2456 10.53C57.9936 10.9967 57.5736 11.384 56.9856 11.692C56.4069 12 55.6649 12.154 54.7596 12.154ZM63.1951 12.154C61.9631 12.154 61.0438 11.7947 60.4371 11.076C59.8398 10.348 59.5411 9.35867 59.5411 8.108C59.5411 7.268 59.6951 6.54 60.0031 5.924C60.3204 5.308 60.7638 4.83667 61.3331 4.51C61.9024 4.18333 62.5604 4.02 63.3071 4.02C64.2404 4.02 64.9591 4.26733 65.4631 4.762C65.9671 5.24733 66.2284 5.94267 66.2471 6.848C66.2471 7.464 66.2098 7.92133 66.1351 8.22H61.5851C61.6224 9.06933 61.8231 9.732 62.1871 10.208C62.5511 10.6747 63.0691 10.908 63.7411 10.908C64.1051 10.908 64.4784 10.8473 64.8611 10.726C65.2531 10.6047 65.5611 10.46 65.7851 10.292L66.1351 11.062C65.8831 11.3327 65.4724 11.5847 64.9031 11.818C64.3431 12.042 63.7738 12.154 63.1951 12.154ZM64.2871 7.38C64.3058 7.11867 64.3151 6.918 64.3151 6.778C64.3151 5.53667 63.8998 4.916 63.0691 4.916C62.6118 4.916 62.2571 5.098 62.0051 5.462C61.7531 5.826 61.6131 6.46533 61.5851 7.38H64.2871ZM68.1764 1.766L67.1404 1.584V0.827999L69.7304 0.519999H69.7584L70.1364 0.785999V11.048L71.1584 11.16V12H67.1964V11.16L68.1764 11.034V1.766ZM72.9342 1.766L71.8982 1.584V0.827999L74.4882 0.519999H74.5162L74.8942 0.785999V11.048L75.9162 11.16V12H71.9542V11.16L72.9342 11.034V1.766ZM84.5423 12.154C83.0209 12.154 81.8823 11.678 81.1263 10.726C80.3703 9.774 79.9923 8.47667 79.9923 6.834C79.9923 5.76067 80.1883 4.818 80.5803 4.006C80.9816 3.194 81.5416 2.56867 82.2603 2.13C82.9789 1.69133 83.8049 1.472 84.7383 1.472C86.2783 1.472 87.4309 1.92933 88.1963 2.844C88.9709 3.74933 89.3583 5.01867 89.3583 6.652C89.3583 7.73467 89.1529 8.696 88.7423 9.536C88.3409 10.3667 87.7763 11.0107 87.0483 11.468C86.3203 11.9253 85.4849 12.154 84.5423 12.154ZM84.6823 2.326C83.9169 2.326 83.3196 2.704 82.8903 3.46C82.4609 4.216 82.2463 5.336 82.2463 6.82C82.2463 8.28533 82.4516 9.40067 82.8623 10.166C83.2823 10.922 83.8796 11.3 84.6543 11.3C85.4103 11.3 86.0029 10.9033 86.4323 10.11C86.8616 9.30733 87.0763 8.15467 87.0763 6.652C87.0763 5.196 86.8709 4.11333 86.4603 3.404C86.0496 2.68533 85.4569 2.326 84.6823 2.326ZM91.3538 5.308H90.1778V4.524L91.3538 4.244V3.628C91.3538 3.02133 91.5125 2.466 91.8298 1.962C92.1565 1.458 92.5905 1.06133 93.1318 0.771999C93.6731 0.473333 94.2471 0.323999 94.8538 0.323999C95.1711 0.323999 95.4698 0.370666 95.7498 0.463999V2.256C95.6565 2.16267 95.4698 2.06933 95.1898 1.976C94.9191 1.88267 94.6345 1.836 94.3358 1.836C93.9718 1.836 93.7105 1.92933 93.5518 2.116C93.4025 2.29333 93.3278 2.60133 93.3278 3.04V4.23H95.1058V5.308H93.3278V11.048L94.7978 11.16V12H90.2478V11.16L91.3538 11.034V5.308ZM97.0658 5.308H95.8898V4.524L97.0658 4.244V3.628C97.0658 3.02133 97.2245 2.466 97.5418 1.962C97.8685 1.458 98.3025 1.06133 98.8438 0.771999C99.3851 0.473333 99.9591 0.323999 100.566 0.323999C100.883 0.323999 101.182 0.370666 101.462 0.463999V2.256C101.368 2.16267 101.182 2.06933 100.902 1.976C100.631 1.88267 100.346 1.836 100.048 1.836C99.6838 1.836 99.4225 1.92933 99.2638 2.116C99.1145 2.29333 99.0398 2.60133 99.0398 3.04V4.23H100.818V5.308H99.0398V11.048L100.51 11.16V12H95.9598V11.16L97.0658 11.034V5.308ZM103.596 9.648C103.941 9.648 104.235 9.82533 104.478 10.18C104.73 10.5253 104.856 10.964 104.856 11.496C104.856 12.056 104.758 12.6067 104.562 13.148C104.375 13.6893 104.137 14.156 103.848 14.548C103.568 14.9493 103.297 15.22 103.035 15.36H103.022L102.42 14.954V14.744C102.634 14.5667 102.83 14.226 103.008 13.722C103.185 13.218 103.274 12.7467 103.274 12.308C103.274 12.168 103.246 12.0513 103.19 11.958C103.134 11.8647 103.045 11.7573 102.924 11.636C102.774 11.4773 102.662 11.3327 102.588 11.202C102.513 11.062 102.476 10.8707 102.476 10.628C102.476 10.3293 102.574 10.0913 102.77 9.914C102.966 9.73667 103.213 9.648 103.512 9.648H103.596ZM114.59 12.154C113.563 12.154 112.676 11.93 111.93 11.482C111.192 11.0247 110.632 10.3993 110.25 9.606C109.867 8.81267 109.676 7.91667 109.676 6.918C109.676 5.77 109.895 4.78533 110.334 3.964C110.782 3.14267 111.412 2.522 112.224 2.102C113.036 1.682 113.983 1.472 115.066 1.472C116.083 1.472 117.226 1.61667 118.496 1.906L118.342 4.51H116.928L116.55 2.718C116.456 2.62467 116.279 2.54067 116.018 2.466C115.756 2.382 115.416 2.34 114.996 2.34C114.081 2.34 113.362 2.71333 112.84 3.46C112.317 4.19733 112.056 5.266 112.056 6.666C112.056 8.038 112.28 9.14867 112.728 9.998C113.176 10.838 113.857 11.258 114.772 11.258C115.145 11.258 115.495 11.2113 115.822 11.118C116.148 11.0247 116.396 10.9033 116.564 10.754V7.744L115.08 7.604V6.666H119.336V7.604L118.594 7.73V11.44C118.398 11.4493 118.043 11.5287 117.53 11.678C116.932 11.8367 116.419 11.9533 115.99 12.028C115.57 12.112 115.103 12.154 114.59 12.154ZM120.234 8.122C120.234 7.24467 120.406 6.498 120.752 5.882C121.106 5.266 121.578 4.804 122.166 4.496C122.754 4.17867 123.393 4.02 124.084 4.02C125.26 4.02 126.165 4.384 126.8 5.112C127.444 5.83067 127.766 6.81067 127.766 8.052C127.766 8.93867 127.588 9.69467 127.234 10.32C126.888 10.936 126.422 11.398 125.834 11.706C125.255 12.0047 124.616 12.154 123.916 12.154C122.749 12.154 121.844 11.7947 121.2 11.076C120.556 10.348 120.234 9.36333 120.234 8.122ZM124.028 11.244C125.082 11.244 125.61 10.2267 125.61 8.192C125.61 7.128 125.484 6.32067 125.232 5.77C124.98 5.21 124.569 4.93 124 4.93C122.917 4.93 122.376 5.94733 122.376 7.982C122.376 9.046 122.506 9.858 122.768 10.418C123.038 10.9687 123.458 11.244 124.028 11.244ZM129.85 1.766L128.814 1.584V0.827999L131.404 0.519999H131.432L131.81 0.785999V11.048L132.832 11.16V12H128.87V11.16L129.85 11.034V1.766ZM136.722 12.154C136.143 12.154 135.625 12.0187 135.168 11.748C134.711 11.468 134.347 11.0387 134.076 10.46C133.805 9.88133 133.67 9.158 133.67 8.29C133.67 7.506 133.829 6.792 134.146 6.148C134.473 5.49467 134.949 4.97667 135.574 4.594C136.199 4.21133 136.951 4.02 137.828 4.02C138.183 4.02 138.519 4.05733 138.836 4.132V1.766L137.464 1.57V0.8L140.348 0.519999H140.39L140.782 0.814V11.146H141.538V11.944C140.866 12.084 140.311 12.154 139.872 12.154C139.573 12.154 139.359 12.1027 139.228 12C139.107 11.9067 139.046 11.7153 139.046 11.426V11.034C138.803 11.3607 138.472 11.6313 138.052 11.846C137.632 12.0513 137.189 12.154 136.722 12.154ZM137.45 10.992C137.758 10.992 138.029 10.9313 138.262 10.81C138.505 10.6793 138.696 10.5253 138.836 10.348V5.252C138.771 5.15867 138.631 5.07933 138.416 5.014C138.211 4.94867 137.987 4.916 137.744 4.916C137.147 4.916 136.666 5.17733 136.302 5.7C135.947 6.21333 135.77 7.03933 135.77 8.178C135.77 9.13 135.924 9.83933 136.232 10.306C136.54 10.7633 136.946 10.992 137.45 10.992ZM145.798 11.16L146.904 11.02V2.648L145.854 2.452V1.598H147.884C148.061 1.598 148.257 1.59333 148.472 1.584C148.687 1.57467 148.85 1.56533 148.962 1.556C149.447 1.51867 149.849 1.5 150.166 1.5C151.127 1.5 151.897 1.598 152.476 1.794C153.055 1.99 153.475 2.28867 153.736 2.69C153.997 3.09133 154.128 3.61867 154.128 4.272C154.128 4.916 153.955 5.51333 153.61 6.064C153.265 6.61467 152.765 6.99267 152.112 7.198C152.485 7.35667 152.817 7.646 153.106 8.066C153.395 8.486 153.703 9.032 154.03 9.704C154.263 10.1613 154.441 10.4927 154.562 10.698C154.693 10.894 154.819 11.006 154.94 11.034L155.402 11.174V12H153.022C152.873 12 152.714 11.8507 152.546 11.552C152.387 11.244 152.177 10.7633 151.916 10.11C151.608 9.34467 151.342 8.74733 151.118 8.318C150.894 7.88867 150.656 7.62267 150.404 7.52H148.962V11.02L150.25 11.16V12H145.798V11.16ZM150.25 6.666C150.782 6.666 151.197 6.47467 151.496 6.092C151.795 5.70933 151.944 5.13533 151.944 4.37C151.944 3.68867 151.795 3.18467 151.496 2.858C151.207 2.53133 150.703 2.368 149.984 2.368C149.723 2.368 149.499 2.382 149.312 2.41C149.135 2.42867 149.018 2.438 148.962 2.438V6.638C149.074 6.65667 149.345 6.666 149.774 6.666H150.25ZM157.638 2.942C157.302 2.942 157.036 2.844 156.84 2.648C156.644 2.452 156.546 2.2 156.546 1.892C156.546 1.53733 156.658 1.24333 156.882 1.01C157.106 0.776666 157.404 0.659999 157.778 0.659999C158.151 0.659999 158.436 0.762666 158.632 0.967999C158.828 1.164 158.926 1.41133 158.926 1.71C158.926 2.08333 158.814 2.382 158.59 2.606C158.366 2.83 158.053 2.942 157.652 2.942H157.638ZM156.896 5.546L155.902 5.28V4.342L158.464 4.034H158.492L158.884 4.314V11.048L159.822 11.16V12H155.916V11.16L156.896 11.034V5.546ZM162.379 10.852C162.454 10.964 162.622 11.0713 162.883 11.174C163.154 11.2673 163.425 11.314 163.695 11.314C164.134 11.314 164.461 11.2253 164.675 11.048C164.899 10.8613 165.011 10.6187 165.011 10.32C165.011 10.012 164.876 9.76467 164.605 9.578C164.335 9.382 163.877 9.144 163.233 8.864L162.841 8.696C162.197 8.42533 161.717 8.09867 161.399 7.716C161.082 7.33333 160.923 6.83867 160.923 6.232C160.923 5.812 161.049 5.43867 161.301 5.112C161.553 4.776 161.908 4.51467 162.365 4.328C162.823 4.14133 163.35 4.048 163.947 4.048C164.386 4.048 164.759 4.076 165.067 4.132C165.385 4.188 165.716 4.26267 166.061 4.356C166.248 4.42133 166.388 4.45867 166.481 4.468V6.302H165.375L165.053 5.238C164.997 5.14467 164.871 5.06067 164.675 4.986C164.479 4.91133 164.255 4.874 164.003 4.874C163.621 4.874 163.313 4.958 163.079 5.126C162.855 5.28467 162.743 5.50867 162.743 5.798C162.743 6.05933 162.823 6.27867 162.981 6.456C163.14 6.624 163.313 6.75467 163.499 6.848C163.686 6.94133 164.031 7.09533 164.535 7.31C165.039 7.52467 165.455 7.73 165.781 7.926C166.117 8.122 166.393 8.37867 166.607 8.696C166.831 9.004 166.943 9.382 166.943 9.83C166.943 10.5207 166.673 11.0807 166.131 11.51C165.59 11.9393 164.811 12.154 163.793 12.154C163.317 12.154 162.888 12.112 162.505 12.028C162.132 11.944 161.698 11.832 161.203 11.692L160.895 11.594V9.746H162.057L162.379 10.852ZM171.613 12.154C170.381 12.154 169.462 11.7947 168.855 11.076C168.258 10.348 167.959 9.35867 167.959 8.108C167.959 7.268 168.113 6.54 168.421 5.924C168.738 5.308 169.182 4.83667 169.751 4.51C170.32 4.18333 170.978 4.02 171.725 4.02C172.658 4.02 173.377 4.26733 173.881 4.762C174.385 5.24733 174.646 5.94267 174.665 6.848C174.665 7.464 174.628 7.92133 174.553 8.22H170.003C170.04 9.06933 170.241 9.732 170.605 10.208C170.969 10.6747 171.487 10.908 172.159 10.908C172.523 10.908 172.896 10.8473 173.279 10.726C173.671 10.6047 173.979 10.46 174.203 10.292L174.553 11.062C174.301 11.3327 173.89 11.5847 173.321 11.818C172.761 12.042 172.192 12.154 171.613 12.154ZM172.705 7.38C172.724 7.11867 172.733 6.918 172.733 6.778C172.733 5.53667 172.318 4.916 171.487 4.916C171.03 4.916 170.675 5.098 170.423 5.462C170.171 5.826 170.031 6.46533 170.003 7.38H172.705ZM177.336 10.852C177.411 10.964 177.579 11.0713 177.84 11.174C178.111 11.2673 178.382 11.314 178.652 11.314C179.091 11.314 179.418 11.2253 179.632 11.048C179.856 10.8613 179.968 10.6187 179.968 10.32C179.968 10.012 179.833 9.76467 179.562 9.578C179.292 9.382 178.834 9.144 178.19 8.864L177.798 8.696C177.154 8.42533 176.674 8.09867 176.356 7.716C176.039 7.33333 175.88 6.83867 175.88 6.232C175.88 5.812 176.006 5.43867 176.258 5.112C176.51 4.776 176.865 4.51467 177.322 4.328C177.78 4.14133 178.307 4.048 178.904 4.048C179.343 4.048 179.716 4.076 180.024 4.132C180.342 4.188 180.673 4.26267 181.018 4.356C181.205 4.42133 181.345 4.45867 181.438 4.468V6.302H180.332L180.01 5.238C179.954 5.14467 179.828 5.06067 179.632 4.986C179.436 4.91133 179.212 4.874 178.96 4.874C178.578 4.874 178.27 4.958 178.036 5.126C177.812 5.28467 177.7 5.50867 177.7 5.798C177.7 6.05933 177.78 6.27867 177.938 6.456C178.097 6.624 178.27 6.75467 178.456 6.848C178.643 6.94133 178.988 7.09533 179.492 7.31C179.996 7.52467 180.412 7.73 180.738 7.926C181.074 8.122 181.35 8.37867 181.564 8.696C181.788 9.004 181.9 9.382 181.9 9.83C181.9 10.5207 181.63 11.0807 181.088 11.51C180.547 11.9393 179.768 12.154 178.75 12.154C178.274 12.154 177.845 12.112 177.462 12.028C177.089 11.944 176.655 11.832 176.16 11.692L175.852 11.594V9.746H177.014L177.336 10.852ZM4.822 19.542H6.964L10.198 29.02L11.01 29.16V30H6.88V29.16L7.93 29.02L7.384 27.2H3.758L3.212 29.034L4.346 29.16V30H0.776L0.762 29.16L1.602 29.02L4.822 19.542ZM5.788 21.908L5.536 20.816L5.27 21.922L4.024 26.22H7.104L5.788 21.908ZM12.1181 19.766L11.0541 19.584V18.828L13.6581 18.52H13.7001L14.0641 18.786L14.0781 21.908L13.9801 23.126C14.2694 22.8647 14.6614 22.622 15.1561 22.398C15.6601 22.174 16.1874 22.062 16.7381 22.062C17.3261 22.062 17.7834 22.174 18.1101 22.398C18.4367 22.6127 18.6654 22.944 18.7961 23.392C18.9267 23.84 18.9921 24.4373 18.9921 25.184V29.034L19.8881 29.16V30H16.2061V29.16L17.0181 29.034V25.184C17.0181 24.6987 16.9854 24.3207 16.9201 24.05C16.8547 23.7793 16.7334 23.5787 16.5561 23.448C16.3881 23.3173 16.1361 23.252 15.8001 23.252C15.5107 23.252 15.2121 23.322 14.9041 23.462C14.6054 23.5927 14.3394 23.7513 14.1061 23.938V29.034L14.9601 29.16V30H11.3341V29.16L12.1181 29.048V19.766ZM24.367 30.154C23.135 30.154 22.2157 29.7947 21.609 29.076C21.0117 28.348 20.713 27.3587 20.713 26.108C20.713 25.268 20.867 24.54 21.175 23.924C21.4923 23.308 21.9357 22.8367 22.505 22.51C23.0743 22.1833 23.7323 22.02 24.479 22.02C25.4123 22.02 26.131 22.2673 26.635 22.762C27.139 23.2473 27.4003 23.9427 27.419 24.848C27.419 25.464 27.3817 25.9213 27.307 26.22H22.757C22.7943 27.0693 22.995 27.732 23.359 28.208C23.723 28.6747 24.241 28.908 24.913 28.908C25.277 28.908 25.6503 28.8473 26.033 28.726C26.425 28.6047 26.733 28.46 26.957 28.292L27.307 29.062C27.055 29.3327 26.6443 29.5847 26.075 29.818C25.515 30.042 24.9457 30.154 24.367 30.154ZM25.459 25.38C25.4777 25.1187 25.487 24.918 25.487 24.778C25.487 23.5367 25.0717 22.916 24.241 22.916C23.7837 22.916 23.429 23.098 23.177 23.462C22.925 23.826 22.785 24.4653 22.757 25.38H25.459ZM28.3823 27.816C28.3823 26.9667 28.8069 26.3273 29.6562 25.898C30.5149 25.4687 31.6209 25.2493 32.9743 25.24V24.918C32.9743 24.5353 32.9323 24.2367 32.8483 24.022C32.7736 23.8073 32.6289 23.6487 32.4143 23.546C32.2089 23.434 31.9056 23.378 31.5042 23.378C31.0469 23.378 30.6363 23.4387 30.2723 23.56C29.9083 23.672 29.5303 23.8213 29.1383 24.008L28.7043 23.112C28.8443 22.9907 29.0776 22.846 29.4043 22.678C29.7403 22.51 30.1369 22.3653 30.5943 22.244C31.0516 22.1133 31.5229 22.048 32.0083 22.048C32.7269 22.048 33.2869 22.1413 33.6883 22.328C34.0989 22.5147 34.3929 22.8133 34.5703 23.224C34.7476 23.6347 34.8363 24.1853 34.8363 24.876V29.16H35.5923V29.944C35.4056 29.9907 35.1396 30.0373 34.7943 30.084C34.4489 30.1307 34.1456 30.154 33.8843 30.154C33.5669 30.154 33.3523 30.1073 33.2403 30.014C33.1376 29.9207 33.0863 29.7293 33.0863 29.44V29.062C32.8343 29.342 32.5076 29.594 32.1063 29.818C31.7049 30.042 31.2523 30.154 30.7483 30.154C30.3189 30.154 29.9223 30.0653 29.5583 29.888C29.2036 29.7013 28.9189 29.4353 28.7043 29.09C28.4896 28.7353 28.3823 28.3107 28.3823 27.816ZM31.6443 28.992C31.8403 28.992 32.0643 28.936 32.3163 28.824C32.5683 28.7027 32.7876 28.558 32.9743 28.39V26.094C32.1343 26.094 31.5043 26.2387 31.0843 26.528C30.6736 26.808 30.4683 27.172 30.4683 27.62C30.4683 28.068 30.5709 28.4087 30.7763 28.642C30.9909 28.8753 31.2803 28.992 31.6443 28.992ZM39.3919 30.154C38.8133 30.154 38.2953 30.0187 37.8379 29.748C37.3806 29.468 37.0166 29.0387 36.7459 28.46C36.4753 27.8813 36.3399 27.158 36.3399 26.29C36.3399 25.506 36.4986 24.792 36.8159 24.148C37.1426 23.4947 37.6186 22.9767 38.2439 22.594C38.8693 22.2113 39.6206 22.02 40.4979 22.02C40.8526 22.02 41.1886 22.0573 41.5059 22.132V19.766L40.1339 19.57V18.8L43.0179 18.52H43.0599L43.4519 18.814V29.146H44.2079V29.944C43.5359 30.084 42.9806 30.154 42.5419 30.154C42.2433 30.154 42.0286 30.1027 41.8979 30C41.7766 29.9067 41.7159 29.7153 41.7159 29.426V29.034C41.4733 29.3607 41.1419 29.6313 40.7219 29.846C40.3019 30.0513 39.8586 30.154 39.3919 30.154ZM40.1199 28.992C40.4279 28.992 40.6986 28.9313 40.9319 28.81C41.1746 28.6793 41.3659 28.5253 41.5059 28.348V23.252C41.4406 23.1587 41.3006 23.0793 41.0859 23.014C40.8806 22.9487 40.6566 22.916 40.4139 22.916C39.8166 22.916 39.3359 23.1773 38.9719 23.7C38.6173 24.2133 38.4399 25.0393 38.4399 26.178C38.4399 27.13 38.5939 27.8393 38.9019 28.306C39.2099 28.7633 39.6159 28.992 40.1199 28.992ZM48.5519 26.122C48.5519 25.2447 48.7245 24.498 49.0699 23.882C49.4245 23.266 49.8959 22.804 50.4839 22.496C51.0719 22.1787 51.7112 22.02 52.4019 22.02C53.5779 22.02 54.4832 22.384 55.1179 23.112C55.7619 23.8307 56.0839 24.8107 56.0839 26.052C56.0839 26.9387 55.9065 27.6947 55.5519 28.32C55.2065 28.936 54.7399 29.398 54.1519 29.706C53.5732 30.0047 52.9339 30.154 52.2339 30.154C51.0672 30.154 50.1619 29.7947 49.5179 29.076C48.8739 28.348 48.5519 27.3633 48.5519 26.122ZM52.3459 29.244C53.4005 29.244 53.9279 28.2267 53.9279 26.192C53.9279 25.128 53.8019 24.3207 53.5499 23.77C53.2979 23.21 52.8872 22.93 52.3179 22.93C51.2352 22.93 50.6939 23.9473 50.6939 25.982C50.6939 27.046 50.8245 27.858 51.0859 28.418C51.3565 28.9687 51.7765 29.244 52.3459 29.244ZM58.3226 23.308H57.1466V22.524L58.3226 22.244V21.628C58.3226 21.0213 58.4812 20.466 58.7986 19.962C59.1252 19.458 59.5592 19.0613 60.1006 18.772C60.6419 18.4733 61.2159 18.324 61.8226 18.324C62.1399 18.324 62.4386 18.3707 62.7186 18.464V20.256C62.6252 20.1627 62.4386 20.0693 62.1586 19.976C61.8879 19.8827 61.6032 19.836 61.3046 19.836C60.9406 19.836 60.6792 19.9293 60.5206 20.116C60.3712 20.2933 60.2966 20.6013 60.2966 21.04V22.23H62.0746V23.308H60.2966V29.048L61.7666 29.16V30H57.2166V29.16L58.3226 29.034V23.308ZM69.7117 20.522L67.7097 20.592L67.1637 23.644H65.9877L66.2257 19.598H75.2557L75.4237 23.644H74.3177L73.7717 20.592L71.7977 20.522V29.02L73.7577 29.16V30H67.9197V29.16L69.7117 29.02V20.522ZM76.3605 29.174L77.2845 29.062V23.546L76.3885 23.294V22.328L78.5585 22.034H78.6005L78.9505 22.314V22.622L78.9085 23.756H78.9505C79.0158 23.5693 79.1698 23.3407 79.4125 23.07C79.6551 22.79 79.9585 22.5473 80.3225 22.342C80.6958 22.1273 81.0971 22.02 81.5265 22.02C81.7318 22.02 81.9091 22.048 82.0585 22.104V24.204C81.7785 24.008 81.4378 23.91 81.0365 23.91C80.3551 23.91 79.7625 24.092 79.2585 24.456V29.048L80.8825 29.174V30H76.3605V29.174ZM89.2643 30.14C88.9563 30.14 88.7323 30.0747 88.5923 29.944C88.4523 29.8133 88.3823 29.6173 88.3823 29.356V28.978C88.1303 29.286 87.7756 29.5613 87.3183 29.804C86.861 30.0373 86.4036 30.154 85.9463 30.154C85.0503 30.154 84.411 29.9253 84.0283 29.468C83.6456 29.0013 83.4543 28.236 83.4543 27.172V23.224L82.7543 23.028V22.23L85.1343 22.048H85.1483L85.4283 22.244V27.172C85.4283 27.8533 85.5123 28.3293 85.6803 28.6C85.8483 28.8707 86.161 29.006 86.6183 29.006C87.169 29.006 87.6823 28.7913 88.1583 28.362V23.224L87.2203 23.014V22.23L89.7543 22.048H89.7823L90.1183 22.244V29.132H90.9023L90.8883 29.93C90.851 29.9393 90.6783 29.9767 90.3703 30.042C90.0623 30.1073 89.6936 30.14 89.2643 30.14ZM91.8917 29.16L92.6757 29.034V23.546L91.7797 23.294V22.328L94.1037 22.034L94.2717 22.146L94.4817 22.608V23.196C94.7897 22.8973 95.2284 22.636 95.7977 22.412C96.3764 22.1787 96.8757 22.062 97.2957 22.062C97.7997 22.062 98.2057 22.146 98.5137 22.314C98.8311 22.482 99.0691 22.7433 99.2277 23.098C99.5357 22.818 99.9417 22.5753 100.446 22.37C100.95 22.1647 101.444 22.062 101.93 22.062C102.76 22.062 103.348 22.3047 103.694 22.79C104.039 23.2753 104.212 24.0687 104.212 25.17V29.034L105.122 29.16V30H101.496V29.16L102.224 29.034V25.226C102.224 24.498 102.135 23.9893 101.958 23.7C101.79 23.4013 101.463 23.252 100.978 23.252C100.716 23.252 100.446 23.3127 100.166 23.434C99.8951 23.546 99.6524 23.686 99.4377 23.854C99.5031 24.2087 99.5357 24.652 99.5357 25.184V29.034L100.404 29.16V30H96.7497V29.16L97.5197 29.034V25.184C97.5197 24.6987 97.4871 24.3207 97.4217 24.05C97.3657 23.77 97.2537 23.5693 97.0857 23.448C96.9177 23.3173 96.6751 23.252 96.3577 23.252C96.0591 23.252 95.7604 23.322 95.4617 23.462C95.1724 23.5927 94.9111 23.7513 94.6777 23.938V29.034L95.5037 29.16V30H91.8917V29.16ZM113.811 25.856C113.811 26.64 113.648 27.3587 113.321 28.012C113.004 28.6653 112.533 29.188 111.907 29.58C111.291 29.9627 110.554 30.154 109.695 30.154C109.509 30.154 109.313 30.1353 109.107 30.098C108.911 30.07 108.753 30.0327 108.631 29.986L108.673 31.148V32.422L109.975 32.59V33.388H105.817V32.59L106.727 32.422V23.546L105.817 23.294V22.328L108.127 22.034H108.155L108.505 22.314V23.098C108.739 22.8087 109.056 22.5567 109.457 22.342C109.859 22.1273 110.297 22.02 110.773 22.02C111.66 22.02 112.388 22.3373 112.957 22.972C113.527 23.5973 113.811 24.5587 113.811 25.856ZM110.045 23.182C109.765 23.182 109.499 23.2427 109.247 23.364C108.995 23.4853 108.804 23.6207 108.673 23.77V28.964C108.739 29.0573 108.869 29.1367 109.065 29.202C109.271 29.2673 109.495 29.3 109.737 29.3C110.344 29.3 110.825 29.0387 111.179 28.516C111.543 27.984 111.725 27.1533 111.725 26.024C111.725 25.072 111.571 24.3627 111.263 23.896C110.955 23.42 110.549 23.182 110.045 23.182ZM121.806 30.154C121.302 30.154 120.85 30.112 120.448 30.028C120.047 29.944 119.599 29.832 119.104 29.692C118.778 29.5987 118.558 29.5473 118.446 29.538L118.572 26.948H119.706L120.014 28.754C120.136 28.8847 120.35 29.0013 120.658 29.104C120.976 29.2067 121.335 29.258 121.736 29.258C122.362 29.258 122.828 29.1227 123.136 28.852C123.454 28.572 123.612 28.1847 123.612 27.69C123.612 27.3633 123.519 27.0833 123.332 26.85C123.146 26.6073 122.889 26.3927 122.562 26.206C122.236 26.01 121.788 25.786 121.218 25.534C120.444 25.1793 119.8 24.7593 119.286 24.274C118.782 23.7793 118.53 23.112 118.53 22.272C118.53 21.7493 118.666 21.278 118.936 20.858C119.207 20.4287 119.608 20.0927 120.14 19.85C120.682 19.598 121.34 19.472 122.114 19.472C122.572 19.472 122.973 19.5047 123.318 19.57C123.673 19.6353 124.056 19.724 124.466 19.836C124.709 19.9013 124.891 19.9433 125.012 19.962L124.928 22.412H123.808L123.514 20.69C123.43 20.606 123.262 20.5267 123.01 20.452C122.758 20.368 122.478 20.326 122.17 20.326C121.61 20.326 121.186 20.4567 120.896 20.718C120.616 20.97 120.476 21.3107 120.476 21.74C120.476 22.0853 120.579 22.384 120.784 22.636C120.999 22.888 121.256 23.1027 121.554 23.28C121.853 23.448 122.324 23.6907 122.968 24.008C123.491 24.26 123.939 24.5073 124.312 24.75C124.686 24.9927 125.008 25.31 125.278 25.702C125.549 26.0847 125.684 26.5373 125.684 27.06C125.684 27.5733 125.554 28.0633 125.292 28.53C125.04 28.9967 124.62 29.384 124.032 29.692C123.454 30 122.712 30.154 121.806 30.154ZM134.456 25.856C134.456 26.64 134.293 27.3587 133.966 28.012C133.649 28.6653 133.177 29.188 132.552 29.58C131.936 29.9627 131.199 30.154 130.34 30.154C130.153 30.154 129.957 30.1353 129.752 30.098C129.556 30.07 129.397 30.0327 129.276 29.986L129.318 31.148V32.422L130.62 32.59V33.388H126.462V32.59L127.372 32.422V23.546L126.462 23.294V22.328L128.772 22.034H128.8L129.15 22.314V23.098C129.383 22.8087 129.701 22.5567 130.102 22.342C130.503 22.1273 130.942 22.02 131.418 22.02C132.305 22.02 133.033 22.3373 133.602 22.972C134.171 23.5973 134.456 24.5587 134.456 25.856ZM130.69 23.182C130.41 23.182 130.144 23.2427 129.892 23.364C129.64 23.4853 129.449 23.6207 129.318 23.77V28.964C129.383 29.0573 129.514 29.1367 129.71 29.202C129.915 29.2673 130.139 29.3 130.382 29.3C130.989 29.3 131.469 29.0387 131.824 28.516C132.188 27.984 132.37 27.1533 132.37 26.024C132.37 25.072 132.216 24.3627 131.908 23.896C131.6 23.42 131.194 23.182 130.69 23.182ZM139.129 30.154C137.897 30.154 136.977 29.7947 136.371 29.076C135.773 28.348 135.475 27.3587 135.475 26.108C135.475 25.268 135.629 24.54 135.937 23.924C136.254 23.308 136.697 22.8367 137.267 22.51C137.836 22.1833 138.494 22.02 139.241 22.02C140.174 22.02 140.893 22.2673 141.397 22.762C141.901 23.2473 142.162 23.9427 142.181 24.848C142.181 25.464 142.143 25.9213 142.069 26.22H137.519C137.556 27.0693 137.757 27.732 138.121 28.208C138.485 28.6747 139.003 28.908 139.675 28.908C140.039 28.908 140.412 28.8473 140.795 28.726C141.187 28.6047 141.495 28.46 141.719 28.292L142.069 29.062C141.817 29.3327 141.406 29.5847 140.837 29.818C140.277 30.042 139.707 30.154 139.129 30.154ZM140.221 25.38C140.239 25.1187 140.249 24.918 140.249 24.778C140.249 23.5367 139.833 22.916 139.003 22.916C138.545 22.916 138.191 23.098 137.939 23.462C137.687 23.826 137.547 24.4653 137.519 25.38H140.221ZM146.826 30.154C145.594 30.154 144.675 29.7947 144.068 29.076C143.471 28.348 143.172 27.3587 143.172 26.108C143.172 25.268 143.326 24.54 143.634 23.924C143.951 23.308 144.395 22.8367 144.964 22.51C145.533 22.1833 146.191 22.02 146.938 22.02C147.871 22.02 148.59 22.2673 149.094 22.762C149.598 23.2473 149.859 23.9427 149.878 24.848C149.878 25.464 149.841 25.9213 149.766 26.22H145.216C145.253 27.0693 145.454 27.732 145.818 28.208C146.182 28.6747 146.7 28.908 147.372 28.908C147.736 28.908 148.109 28.8473 148.492 28.726C148.884 28.6047 149.192 28.46 149.416 28.292L149.766 29.062C149.514 29.3327 149.103 29.5847 148.534 29.818C147.974 30.042 147.405 30.154 146.826 30.154ZM147.918 25.38C147.937 25.1187 147.946 24.918 147.946 24.778C147.946 23.5367 147.531 22.916 146.7 22.916C146.243 22.916 145.888 23.098 145.636 23.462C145.384 23.826 145.244 24.4653 145.216 25.38H147.918ZM150.813 26.15C150.813 25.3473 150.972 24.6333 151.289 24.008C151.616 23.3827 152.078 22.8973 152.675 22.552C153.282 22.1973 153.987 22.02 154.789 22.02C155.163 22.02 155.485 22.048 155.755 22.104C156.026 22.16 156.329 22.2347 156.665 22.328L157.071 22.44L156.987 24.834H155.769L155.419 23.294C155.363 23.0513 155.088 22.93 154.593 22.93C154.071 22.93 153.66 23.1587 153.361 23.616C153.072 24.0733 152.923 24.7873 152.913 25.758C152.913 26.7847 153.091 27.5733 153.445 28.124C153.8 28.6653 154.271 28.936 154.859 28.936C155.569 28.936 156.222 28.7447 156.819 28.362L157.141 29.09C156.899 29.3513 156.525 29.594 156.021 29.818C155.527 30.042 154.99 30.154 154.411 30.154C153.217 30.154 152.316 29.7853 151.709 29.048C151.112 28.3107 150.813 27.3447 150.813 26.15ZM158.913 19.766L157.849 19.584V18.828L160.453 18.52H160.495L160.859 18.786L160.873 21.908L160.775 23.126C161.064 22.8647 161.456 22.622 161.951 22.398C162.455 22.174 162.982 22.062 163.533 22.062C164.121 22.062 164.578 22.174 164.905 22.398C165.232 22.6127 165.46 22.944 165.591 23.392C165.722 23.84 165.787 24.4373 165.787 25.184V29.034L166.683 29.16V30H163.001V29.16L163.813 29.034V25.184C163.813 24.6987 163.78 24.3207 163.715 24.05C163.65 23.7793 163.528 23.5787 163.351 23.448C163.183 23.3173 162.931 23.252 162.595 23.252C162.306 23.252 162.007 23.322 161.699 23.462C161.4 23.5927 161.134 23.7513 160.901 23.938V29.034L161.755 29.16V30H158.129V29.16L158.913 29.048V19.766ZM169.272 24.414C168.983 24.414 168.731 24.316 168.516 24.12C168.301 23.9147 168.194 23.658 168.194 23.35C168.194 23.0047 168.315 22.7247 168.558 22.51C168.81 22.286 169.113 22.174 169.468 22.174C169.804 22.174 170.07 22.2813 170.266 22.496C170.471 22.7013 170.574 22.9487 170.574 23.238C170.574 23.602 170.453 23.8913 170.21 24.106C169.967 24.3113 169.655 24.414 169.272 24.414ZM169.272 30.126C168.983 30.126 168.731 30.028 168.516 29.832C168.301 29.6267 168.194 29.37 168.194 29.062C168.194 28.7167 168.315 28.4367 168.558 28.222C168.81 27.998 169.113 27.886 169.468 27.886C169.804 27.886 170.07 27.9933 170.266 28.208C170.471 28.4133 170.574 28.6607 170.574 28.95C170.574 29.314 170.453 29.6033 170.21 29.818C169.967 30.0233 169.655 30.126 169.272 30.126ZM3.24 38.648L1.728 38.466V37.598H6.096L7.762 43.618L8.154 45.256L8.49 43.618L10.142 37.598H14.468V38.466L12.942 38.648L14.062 47.006L15.196 47.16V48H10.73V47.16L11.962 47.02L11.346 40.888L11.08 38.326L10.562 40.482L8.532 47.566H7.048L4.976 40.846L4.262 38.326L4.052 40.888L3.52 47.02L4.934 47.16V48H1.042V47.16L2.218 47.02L3.24 38.648ZM15.7084 45.816C15.7084 44.9667 16.1331 44.3273 16.9824 43.898C17.8411 43.4687 18.9471 43.2493 20.3004 43.24V42.918C20.3004 42.5353 20.2584 42.2367 20.1744 42.022C20.0998 41.8073 19.9551 41.6487 19.7404 41.546C19.5351 41.434 19.2318 41.378 18.8304 41.378C18.3731 41.378 17.9624 41.4387 17.5984 41.56C17.2344 41.672 16.8564 41.8213 16.4644 42.008L16.0304 41.112C16.1704 40.9907 16.4038 40.846 16.7304 40.678C17.0664 40.51 17.4631 40.3653 17.9204 40.244C18.3778 40.1133 18.8491 40.048 19.3344 40.048C20.0531 40.048 20.6131 40.1413 21.0144 40.328C21.4251 40.5147 21.7191 40.8133 21.8964 41.224C22.0738 41.6347 22.1624 42.1853 22.1624 42.876V47.16H22.9184V47.944C22.7318 47.9907 22.4658 48.0373 22.1204 48.084C21.7751 48.1307 21.4718 48.154 21.2104 48.154C20.8931 48.154 20.6784 48.1073 20.5664 48.014C20.4638 47.9207 20.4124 47.7293 20.4124 47.44V47.062C20.1604 47.342 19.8338 47.594 19.4324 47.818C19.0311 48.042 18.5784 48.154 18.0744 48.154C17.6451 48.154 17.2484 48.0653 16.8844 47.888C16.5298 47.7013 16.2451 47.4353 16.0304 47.09C15.8158 46.7353 15.7084 46.3107 15.7084 45.816ZM18.9704 46.992C19.1664 46.992 19.3904 46.936 19.6424 46.824C19.8944 46.7027 20.1138 46.558 20.3004 46.39V44.094C19.4604 44.094 18.8304 44.2387 18.4104 44.528C17.9998 44.808 17.7944 45.172 17.7944 45.62C17.7944 46.068 17.8971 46.4087 18.1024 46.642C18.3171 46.8753 18.6064 46.992 18.9704 46.992ZM23.7921 47.174L24.7161 47.062V41.546L23.8201 41.294V40.328L25.9901 40.034H26.0321L26.3821 40.314V40.622L26.3401 41.756H26.3821C26.4474 41.5693 26.6014 41.3407 26.8441 41.07C27.0868 40.79 27.3901 40.5473 27.7541 40.342C28.1274 40.1273 28.5288 40.02 28.9581 40.02C29.1634 40.02 29.3408 40.048 29.4901 40.104V42.204C29.2101 42.008 28.8694 41.91 28.4681 41.91C27.7868 41.91 27.1941 42.092 26.6901 42.456V47.048L28.3141 47.174V48H23.7921V47.174ZM31.026 37.766L30.018 37.584V36.828L32.594 36.52H32.622L33 36.786V43.436L32.958 44.178L35.814 41.182L34.778 41.028V40.23H38.432V41.028L37.298 41.21L35.576 42.862L38.026 47.048L38.796 47.16V48H35.1V47.16L35.814 47.034L34.218 44.08L32.958 45.354L32.986 46.068V47.034L33.868 47.16V48H30.214V47.16L31.026 47.034V37.766ZM42.7146 48.154C41.4826 48.154 40.5633 47.7947 39.9566 47.076C39.3593 46.348 39.0606 45.3587 39.0606 44.108C39.0606 43.268 39.2146 42.54 39.5226 41.924C39.84 41.308 40.2833 40.8367 40.8526 40.51C41.422 40.1833 42.08 40.02 42.8266 40.02C43.76 40.02 44.4786 40.2673 44.9826 40.762C45.4866 41.2473 45.748 41.9427 45.7666 42.848C45.7666 43.464 45.7293 43.9213 45.6546 44.22H41.1046C41.142 45.0693 41.3426 45.732 41.7066 46.208C42.0706 46.6747 42.5886 46.908 43.2606 46.908C43.6246 46.908 43.998 46.8473 44.3806 46.726C44.7726 46.6047 45.0806 46.46 45.3046 46.292L45.6546 47.062C45.4026 47.3327 44.992 47.5847 44.4226 47.818C43.8626 48.042 43.2933 48.154 42.7146 48.154ZM43.8066 43.38C43.8253 43.1187 43.8346 42.918 43.8346 42.778C43.8346 41.5367 43.4193 40.916 42.5886 40.916C42.1313 40.916 41.7766 41.098 41.5246 41.462C41.2726 41.826 41.1326 42.4653 41.1046 43.38H43.8066ZM49.2359 48.126C48.6479 48.126 48.2139 47.9907 47.9339 47.72C47.6539 47.4493 47.5139 47.02 47.5139 46.432V41.294H46.6039V40.566C46.6786 40.538 46.8139 40.4913 47.0099 40.426C47.2059 40.3513 47.3552 40.2907 47.4579 40.244C47.6166 40.1227 47.7519 39.9127 47.8639 39.614C47.9479 39.418 48.1019 38.9327 48.3259 38.158H49.4459L49.5019 40.216H51.6439V41.294H49.5159V45.228C49.5159 45.7507 49.5299 46.1193 49.5579 46.334C49.5859 46.5487 49.6466 46.6887 49.7399 46.754C49.8332 46.81 49.9966 46.838 50.2299 46.838C50.4632 46.838 50.7059 46.8147 50.9579 46.768C51.2099 46.712 51.4199 46.6467 51.5879 46.572L51.8539 47.356C51.5926 47.552 51.2099 47.7293 50.7059 47.888C50.2019 48.0467 49.7119 48.126 49.2359 48.126ZM54.1528 46.852C54.2274 46.964 54.3954 47.0713 54.6568 47.174C54.9274 47.2673 55.1981 47.314 55.4688 47.314C55.9074 47.314 56.2341 47.2253 56.4488 47.048C56.6728 46.8613 56.7848 46.6187 56.7848 46.32C56.7848 46.012 56.6494 45.7647 56.3788 45.578C56.1081 45.382 55.6508 45.144 55.0068 44.864L54.6148 44.696C53.9708 44.4253 53.4901 44.0987 53.1728 43.716C52.8554 43.3333 52.6968 42.8387 52.6968 42.232C52.6968 41.812 52.8228 41.4387 53.0748 41.112C53.3268 40.776 53.6814 40.5147 54.1388 40.328C54.5961 40.1413 55.1234 40.048 55.7208 40.048C56.1594 40.048 56.5328 40.076 56.8408 40.132C57.1581 40.188 57.4894 40.2627 57.8348 40.356C58.0214 40.4213 58.1614 40.4587 58.2548 40.468V42.302H57.1488L56.8268 41.238C56.7708 41.1447 56.6448 41.0607 56.4488 40.986C56.2528 40.9113 56.0288 40.874 55.7768 40.874C55.3941 40.874 55.0861 40.958 54.8528 41.126C54.6288 41.2847 54.5168 41.5087 54.5168 41.798C54.5168 42.0593 54.5961 42.2787 54.7548 42.456C54.9134 42.624 55.0861 42.7547 55.2728 42.848C55.4594 42.9413 55.8048 43.0953 56.3088 43.31C56.8128 43.5247 57.2281 43.73 57.5548 43.926C57.8908 44.122 58.1661 44.3787 58.3808 44.696C58.6048 45.004 58.7168 45.382 58.7168 45.83C58.7168 46.5207 58.4461 47.0807 57.9048 47.51C57.3634 47.9393 56.5841 48.154 55.5667 48.154C55.0908 48.154 54.6614 48.112 54.2788 48.028C53.9054 47.944 53.4714 47.832 52.9768 47.692L52.6688 47.594V45.746H53.8308L54.1528 46.852ZM62.2988 37.598H66.4988V38.466L65.2808 38.648L67.0448 44.962L67.3668 46.516L67.6888 44.962L69.1868 39.838L68.7948 38.648L67.8708 38.466V37.598H72.2528V38.466L70.9088 38.648L72.6588 44.962L73.0368 46.642L73.3308 44.962L74.9268 38.648L73.6668 38.466V37.598H77.0408V38.466L76.1448 38.648L73.4848 48.07H71.6368L69.7048 41.532L67.8568 48.07H66.0368L63.1528 38.662L62.2988 38.466V37.598ZM77.4132 47.174L78.3372 47.062V41.546L77.4412 41.294V40.328L79.6112 40.034H79.6532L80.0032 40.314V40.622L79.9612 41.756H80.0032C80.0685 41.5693 80.2225 41.3407 80.4652 41.07C80.7079 40.79 81.0112 40.5473 81.3752 40.342C81.7485 40.1273 82.1499 40.02 82.5792 40.02C82.7845 40.02 82.9619 40.048 83.1112 40.104V42.204C82.8312 42.008 82.4905 41.91 82.0892 41.91C81.4079 41.91 80.8152 42.092 80.3112 42.456V47.048L81.9352 47.174V48H77.4132V47.174ZM83.849 45.816C83.849 44.9667 84.2737 44.3273 85.123 43.898C85.9817 43.4687 87.0877 43.2493 88.441 43.24V42.918C88.441 42.5353 88.399 42.2367 88.315 42.022C88.2404 41.8073 88.0957 41.6487 87.881 41.546C87.6757 41.434 87.3724 41.378 86.971 41.378C86.5137 41.378 86.103 41.4387 85.739 41.56C85.375 41.672 84.997 41.8213 84.605 42.008L84.171 41.112C84.311 40.9907 84.5444 40.846 84.871 40.678C85.207 40.51 85.6037 40.3653 86.061 40.244C86.5184 40.1133 86.9897 40.048 87.475 40.048C88.1937 40.048 88.7537 40.1413 89.155 40.328C89.5657 40.5147 89.8597 40.8133 90.037 41.224C90.2144 41.6347 90.303 42.1853 90.303 42.876V47.16H91.059V47.944C90.8724 47.9907 90.6064 48.0373 90.261 48.084C89.9157 48.1307 89.6124 48.154 89.351 48.154C89.0337 48.154 88.819 48.1073 88.707 48.014C88.6044 47.9207 88.553 47.7293 88.553 47.44V47.062C88.301 47.342 87.9744 47.594 87.573 47.818C87.1717 48.042 86.719 48.154 86.215 48.154C85.7857 48.154 85.389 48.0653 85.025 47.888C84.6704 47.7013 84.3857 47.4353 84.171 47.09C83.9564 46.7353 83.849 46.3107 83.849 45.816ZM87.111 46.992C87.307 46.992 87.531 46.936 87.783 46.824C88.035 46.7027 88.2544 46.558 88.441 46.39V44.094C87.601 44.094 86.971 44.2387 86.551 44.528C86.1404 44.808 85.935 45.172 85.935 45.62C85.935 46.068 86.0377 46.4087 86.243 46.642C86.4577 46.8753 86.747 46.992 87.111 46.992ZM99.6747 43.856C99.6747 44.64 99.5114 45.3587 99.1847 46.012C98.8674 46.6653 98.3961 47.188 97.7707 47.58C97.1547 47.9627 96.4174 48.154 95.5587 48.154C95.3721 48.154 95.1761 48.1353 94.9707 48.098C94.7747 48.07 94.6161 48.0327 94.4947 47.986L94.5367 49.148V50.422L95.8387 50.59V51.388H91.6807V50.59L92.5907 50.422V41.546L91.6807 41.294V40.328L93.9907 40.034H94.0187L94.3687 40.314V41.098C94.6021 40.8087 94.9194 40.5567 95.3207 40.342C95.7221 40.1273 96.1607 40.02 96.6367 40.02C97.5234 40.02 98.2514 40.3373 98.8207 40.972C99.3901 41.5973 99.6747 42.5587 99.6747 43.856ZM95.9087 41.182C95.6287 41.182 95.3627 41.2427 95.1107 41.364C94.8587 41.4853 94.6674 41.6207 94.5367 41.77V46.964C94.6021 47.0573 94.7327 47.1367 94.9287 47.202C95.1341 47.2673 95.3581 47.3 95.6007 47.3C96.2074 47.3 96.6881 47.0387 97.0427 46.516C97.4067 45.984 97.5887 45.1533 97.5887 44.024C97.5887 43.072 97.4347 42.3627 97.1267 41.896C96.8187 41.42 96.4127 41.182 95.9087 41.182Z" fill="#434343"/>
</svg>
